<?xml version="1.0" encoding="UTF-8" standalone="no"?>
<!-- Created with Inkscape (http://www.inkscape.org/) -->

<svg
   width="32"
   height="32"
   viewBox="0 0 32 32"
   version="1.1"
   id="svg5"
   xml:space="preserve"
   inkscape:version="1.2.2 (732a01da63, 2022-12-09)"
   sodipodi:docname="persistent-storage_icon_32px_v4.svg"
   xmlns:inkscape="http://www.inkscape.org/namespaces/inkscape"
   xmlns:sodipodi="http://sodipodi.sourceforge.net/DTD/sodipodi-0.dtd"
   xmlns="http://www.w3.org/2000/svg"
   xmlns:svg="http://www.w3.org/2000/svg"><sodipodi:namedview
     id="namedview7"
     pagecolor="#ffffff"
     bordercolor="#666666"
     borderopacity="1.0"
     inkscape:showpageshadow="2"
     inkscape:pageopacity="0.0"
     inkscape:pagecheckerboard="0"
     inkscape:deskcolor="#d1d1d1"
     inkscape:document-units="px"
     showgrid="false"
     inkscape:zoom="22.715408"
     inkscape:cx="11.467987"
     inkscape:cy="19.149997"
     inkscape:window-width="3440"
     inkscape:window-height="1377"
     inkscape:window-x="-8"
     inkscape:window-y="-8"
     inkscape:window-maximized="1"
     inkscape:current-layer="svg5"
     showguides="false" /><defs
     id="defs2"><clipPath
       clipPathUnits="userSpaceOnUse"
       id="clipPath27"><path
         d="M 20.02,30.3 5.218,17.42 C 5.124,17.345 5.035,17.265 4.945,17.184 v 0 L 4.893,17.138 4.892,17.135 C 3.78,16.096 3.079,14.62 3.079,12.982 v 0 -0.454 C 2.333,12.233 1.803,11.509 1.803,10.658 v 0 -7.939 c 0,-1.113 0.902,-2.015 2.015,-2.015 v 0 h 9.904 c 0.563,0 1.071,0.232 1.437,0.604 v 0 l 14.587,12.778 -1.974,10.849 -0.773,3.74 -3.529,1.901 z"
         id="path25" /></clipPath><clipPath
       clipPathUnits="userSpaceOnUse"
       id="clipPath35"><path
         d="M -32768,32767 H 32767 V -32768 H -32768 Z"
         id="path33" /></clipPath><linearGradient
       x1="0"
       y1="0"
       x2="1"
       y2="0"
       gradientUnits="userSpaceOnUse"
       gradientTransform="matrix(27.942871,0,0,-27.942871,1.8031285,15.639673)"
       spreadMethod="pad"
       id="linearGradient43"><stop
         style="stop-opacity:0.4399939;stop-color:#ffffff"
         offset="0"
         id="stop37" /><stop
         style="stop-opacity:0.4399939;stop-color:#ffffff"
         offset="0.0206186"
         id="stop39" /><stop
         style="stop-opacity:1;stop-color:#ffffff"
         offset="1"
         id="stop41" /></linearGradient><mask
       maskUnits="userSpaceOnUse"
       x="0"
       y="0"
       width="1"
       height="1"
       id="mask45"><g
         id="g55"><g
           clip-path="url(#clipPath35)"
           id="g53"><g
             id="g51"><g
               id="g49"><path
                 d="M -32768,32767 H 32767 V -32768 H -32768 Z"
                 style="fill:url(#linearGradient43);stroke:none"
                 id="path47" /></g></g></g></g></mask><linearGradient
       x1="0"
       y1="0"
       x2="1"
       y2="0"
       gradientUnits="userSpaceOnUse"
       gradientTransform="matrix(27.942871,0,0,-27.942871,1.8031285,15.639673)"
       spreadMethod="pad"
       id="linearGradient67"><stop
         style="stop-opacity:1;stop-color:#353535"
         offset="0"
         id="stop61" /><stop
         style="stop-opacity:1;stop-color:#353535"
         offset="0.0206186"
         id="stop63" /><stop
         style="stop-opacity:1;stop-color:#7a478b"
         offset="1"
         id="stop65" /></linearGradient><clipPath
       clipPathUnits="userSpaceOnUse"
       id="clipPath77"><path
         d="M 0,32 H 32 V 0 H 0 Z"
         id="path75" /></clipPath><clipPath
       clipPathUnits="userSpaceOnUse"
       id="clipPath85"><path
         d="M 1.8031,18.6724 H 15.7367 V 0.703979 H 1.8031 Z"
         id="path83" /></clipPath><clipPath
       clipPathUnits="userSpaceOnUse"
       id="clipPath89"><path
         d="m 4.074,12.673 h 9.392 c 1.254,0 2.271,-1.017 2.271,-2.271 V 5.16 H 1.803 v 5.242 c 0,1.254 1.017,2.271 2.271,2.271"
         id="path87" /></clipPath><clipPath
       clipPathUnits="userSpaceOnUse"
       id="clipPath411"><path
         d="m 18.534,25.296 c -1.254,0 -2.271,-1.017 -2.271,-2.27 v 0 -5.243 h 13.934 v 5.243 c 0,1.253 -1.016,2.27 -2.271,2.27 v 0 z"
         id="path409" /></clipPath><clipPath
       clipPathUnits="userSpaceOnUse"
       id="clipPath701"><path
         d="M 0,32 H 32 V 0 H 0 Z"
         id="path699" /></clipPath><clipPath
       clipPathUnits="userSpaceOnUse"
       id="clipPath739"><path
         d="m 8.248,20.553 c -1.81,0 -3.277,-1.467 -3.277,-3.277 v 0 -6.268 h 22.058 v 6.268 c 0,1.81 -1.467,3.277 -3.276,3.277 v 0 z"
         id="path737" /></clipPath><clipPath
       clipPathUnits="userSpaceOnUse"
       id="clipPath1029"><path
         d="M 0,32 H 32 V 0 H 0 Z"
         id="path1027" /></clipPath><clipPath
       clipPathUnits="userSpaceOnUse"
       id="clipPath1073"><path
         d="m 25.081,81.378 c -2.532,0 -4.586,-2.053 -4.586,-4.586 v 0 -28.479 c 0,-2.533 2.054,-4.586 4.586,-4.586 v 0 h 77.838 c 2.533,0 4.586,2.053 4.586,4.586 v 0 28.479 c 0,2.533 -2.053,4.586 -4.586,4.586 v 0 z"
         id="path1071" /></clipPath><linearGradient
       x1="0"
       y1="0"
       x2="1"
       y2="0"
       gradientUnits="userSpaceOnUse"
       gradientTransform="matrix(-87.009979,0,0,87.009979,107.50499,62.552654)"
       spreadMethod="pad"
       id="linearGradient1093"><stop
         style="stop-opacity:1;stop-color:#56347c"
         offset="0"
         id="stop1079" /><stop
         style="stop-opacity:1;stop-color:#7a478b"
         offset="0.036"
         id="stop1081" /><stop
         style="stop-opacity:1;stop-color:#56347c"
         offset="0.0816383"
         id="stop1083" /><stop
         style="stop-opacity:1;stop-color:#56347c"
         offset="0.09651375"
         id="stop1085" /><stop
         style="stop-opacity:1;stop-color:#56347c"
         offset="0.918362"
         id="stop1087" /><stop
         style="stop-opacity:1;stop-color:#44285c"
         offset="0.958681"
         id="stop1089" /><stop
         style="stop-opacity:1;stop-color:#56347c"
         offset="1"
         id="stop1091" /></linearGradient><clipPath
       clipPathUnits="userSpaceOnUse"
       id="clipPath1103"><path
         d="M 0,128 H 128 V 0 H 0 Z"
         id="path1101" /></clipPath><clipPath
       clipPathUnits="userSpaceOnUse"
       id="clipPath1123"><path
         d="M 32.9627,116.345 H 65.4988 V 83.8071 H 32.9627 Z"
         id="path1121" /></clipPath><clipPath
       clipPathUnits="userSpaceOnUse"
       id="clipPath1153"><path
         d="m 8.237,20.553 c -1.804,0 -3.266,-1.462 -3.266,-3.266 v 0 -8.902 h 22.058 v 8.902 c 0,1.804 -1.463,3.266 -3.266,3.266 v 0 z"
         id="path1151" /></clipPath><linearGradient
       x1="0"
       y1="0"
       x2="1"
       y2="0"
       gradientUnits="userSpaceOnUse"
       gradientTransform="matrix(-22.057961,0,0,22.057961,27.02898,14.469318)"
       spreadMethod="pad"
       id="linearGradient1171"><stop
         style="stop-opacity:1;stop-color:#2c1842"
         offset="0"
         id="stop1159" /><stop
         style="stop-opacity:1;stop-color:#65339c"
         offset="0.0971022"
         id="stop1161" /><stop
         style="stop-opacity:1;stop-color:#65339c"
         offset="0.11156614"
         id="stop1163" /><stop
         style="stop-opacity:1;stop-color:#65339c"
         offset="0.910679"
         id="stop1165" /><stop
         style="stop-opacity:1;stop-color:#cb46db"
         offset="0.949948"
         id="stop1167" /><stop
         style="stop-opacity:1;stop-color:#65339c"
         offset="1"
         id="stop1169" /></linearGradient><clipPath
       clipPathUnits="userSpaceOnUse"
       id="clipPath1181"><path
         d="M 0,32 H 32 V 0 H 0 Z"
         id="path1179" /></clipPath><clipPath
       clipPathUnits="userSpaceOnUse"
       id="clipPath1189"><path
         d="M 8.51183,19.8833 H 27.0484 V 14.7041 H 8.51183 Z"
         id="path1187" /></clipPath><clipPath
       clipPathUnits="userSpaceOnUse"
       id="clipPath1193"><path
         d="M 16.01,19.883 H 8.512 V 17.97 h 7.498 z"
         id="path1191" /></clipPath><clipPath
       clipPathUnits="userSpaceOnUse"
       id="clipPath1197"><path
         d="M -32768,32767 H 32767 V -32768 H -32768 Z"
         id="path1195" /></clipPath><radialGradient
       fx="-0.99996603"
       fy="-0.0082373302"
       cx="0"
       cy="0"
       r="1"
       gradientUnits="userSpaceOnUse"
       gradientTransform="matrix(2.8286712,0,0,-2.2083366,10.898413,18.864857)"
       spreadMethod="pad"
       id="radialGradient1209"><stop
         style="stop-opacity:1;stop-color:#ffffff"
         offset="0"
         id="stop1199" /><stop
         style="stop-opacity:1;stop-color:#ffffff"
         offset="0.108825"
         id="stop1201" /><stop
         style="stop-opacity:1;stop-color:#ffffff"
         offset="0.1579542"
         id="stop1203" /><stop
         style="stop-opacity:0;stop-color:#ffffff"
         offset="0.91577"
         id="stop1205" /><stop
         style="stop-opacity:0;stop-color:#ffffff"
         offset="1"
         id="stop1207" /></radialGradient><mask
       maskUnits="userSpaceOnUse"
       x="0"
       y="0"
       width="1"
       height="1"
       id="mask1211"><g
         id="g1221"><g
           clip-path="url(#clipPath1197)"
           id="g1219"><g
             id="g1217"><g
               id="g1215"><path
                 d="M -32768,32767 H 32767 V -32768 H -32768 Z"
                 style="fill:url(#radialGradient1209);stroke:none"
                 id="path1213" /></g></g></g></g></mask><radialGradient
       fx="-0.99996603"
       fy="-0.0082373302"
       cx="0"
       cy="0"
       r="1"
       gradientUnits="userSpaceOnUse"
       gradientTransform="matrix(2.8286712,0,0,-2.2083366,10.898413,18.864857)"
       spreadMethod="pad"
       id="radialGradient1233"><stop
         style="stop-opacity:1;stop-color:#2c1842"
         offset="0"
         id="stop1223" /><stop
         style="stop-opacity:1;stop-color:#2c1842"
         offset="0.108825"
         id="stop1225" /><stop
         style="stop-opacity:1;stop-color:#2c1842"
         offset="0.1579542"
         id="stop1227" /><stop
         style="stop-opacity:1;stop-color:#2c1842"
         offset="0.91577"
         id="stop1229" /><stop
         style="stop-opacity:1;stop-color:#2c1842"
         offset="1"
         id="stop1231" /></radialGradient><clipPath
       clipPathUnits="userSpaceOnUse"
       id="clipPath1237"><path
         d="M 23.782,19.883 H 23.487 V 17.97 h 0.295 c 1.804,0 3.266,-1.462 3.266,-3.266 v 1.913 c 0,1.804 -1.462,3.266 -3.266,3.266"
         id="path1235" /></clipPath><clipPath
       clipPathUnits="userSpaceOnUse"
       id="clipPath1241"><path
         d="M -32768,32767 H 32767 V -32768 H -32768 Z"
         id="path1239" /></clipPath><radialGradient
       fx="0"
       fy="0"
       cx="0"
       cy="0"
       r="1"
       gradientUnits="userSpaceOnUse"
       gradientTransform="matrix(2.6588938,0,0,-2.6588938,24.111967,18.73868)"
       spreadMethod="pad"
       id="radialGradient1251"><stop
         style="stop-opacity:1;stop-color:#ffffff"
         offset="0"
         id="stop1243" /><stop
         style="stop-opacity:1;stop-color:#ffffff"
         offset="0.05575479"
         id="stop1245" /><stop
         style="stop-opacity:0;stop-color:#ffffff"
         offset="0.91577"
         id="stop1247" /><stop
         style="stop-opacity:0;stop-color:#ffffff"
         offset="1"
         id="stop1249" /></radialGradient><mask
       maskUnits="userSpaceOnUse"
       x="0"
       y="0"
       width="1"
       height="1"
       id="mask1253"><g
         id="g1263"><g
           clip-path="url(#clipPath1241)"
           id="g1261"><g
             id="g1259"><g
               id="g1257"><path
                 d="M -32768,32767 H 32767 V -32768 H -32768 Z"
                 style="fill:url(#radialGradient1251);stroke:none"
                 id="path1255" /></g></g></g></g></mask><radialGradient
       fx="0"
       fy="0"
       cx="0"
       cy="0"
       r="1"
       gradientUnits="userSpaceOnUse"
       gradientTransform="matrix(2.6588938,0,0,-2.6588938,24.111967,18.73868)"
       spreadMethod="pad"
       id="radialGradient1273"><stop
         style="stop-opacity:1;stop-color:#2c1842"
         offset="0"
         id="stop1265" /><stop
         style="stop-opacity:1;stop-color:#2c1842"
         offset="0.05575479"
         id="stop1267" /><stop
         style="stop-opacity:1;stop-color:#2c1842"
         offset="0.91577"
         id="stop1269" /><stop
         style="stop-opacity:1;stop-color:#2c1842"
         offset="1"
         id="stop1271" /></radialGradient><clipPath
       clipPathUnits="userSpaceOnUse"
       id="clipPath1347"><path
         d="M 20.02,30.3 5.218,17.42 C 5.124,17.346 5.035,17.265 4.945,17.184 v 0 L 4.893,17.138 4.892,17.135 C 3.78,16.096 3.079,14.62 3.079,12.982 v 0 -0.454 C 2.333,12.233 1.804,11.509 1.804,10.658 v 0 -7.939 c 0,-1.113 0.901,-2.015 2.014,-2.015 v 0 h 9.904 c 0.564,0 1.071,0.232 1.437,0.605 v 0 L 29.746,14.086 27.96,25.365 c 0,0 0,2.356 -1.504,3.873 v 0 c -1.152,1.164 -2.624,1.476 -3.868,1.476 v 0 C 21.153,30.714 20.02,30.3 20.02,30.3"
         id="path1345" /></clipPath><clipPath
       clipPathUnits="userSpaceOnUse"
       id="clipPath1355"><path
         d="M -32768,32767 H 32767 V -32768 H -32768 Z"
         id="path1353" /></clipPath><linearGradient
       x1="0"
       y1="0"
       x2="1"
       y2="0"
       gradientUnits="userSpaceOnUse"
       gradientTransform="matrix(27.942871,0,0,-27.942871,1.8033229,15.708818)"
       spreadMethod="pad"
       id="linearGradient1361"><stop
         style="stop-opacity:0.10998703;stop-color:#ffffff"
         offset="0"
         id="stop1357" /><stop
         style="stop-opacity:0.4399939;stop-color:#ffffff"
         offset="1"
         id="stop1359" /></linearGradient><mask
       maskUnits="userSpaceOnUse"
       x="0"
       y="0"
       width="1"
       height="1"
       id="mask1363"><g
         id="g1373"><g
           clip-path="url(#clipPath1355)"
           id="g1371"><g
             id="g1369"><g
               id="g1367"><path
                 d="M -32768,32767 H 32767 V -32768 H -32768 Z"
                 style="fill:url(#linearGradient1361);stroke:none"
                 id="path1365" /></g></g></g></g></mask><linearGradient
       x1="0.74211854"
       y1="0.12808685"
       x2="0.42289817"
       y2="0.36552343"
       gradientUnits="userSpaceOnUse"
       gradientTransform="matrix(27.942871,0,0,-27.942871,1.8033229,15.708818)"
       spreadMethod="pad"
       id="linearGradient1383"><stop
         style="stop-opacity:1;stop-color:#cb46db"
         offset="0"
         id="stop1379" /><stop
         style="stop-opacity:1;stop-color:#cb46db"
         offset="1"
         id="stop1381" /></linearGradient><clipPath
       clipPathUnits="userSpaceOnUse"
       id="clipPath1393"><path
         d="m 18.497,25.296 c -1.233,0 -2.233,-1 -2.233,-2.234 v 0 -5.141 h 13.933 v 5.141 c 0,1.234 -1,2.234 -2.233,2.234 v 0 z"
         id="path1391" /></clipPath><linearGradient
       x1="0"
       y1="0"
       x2="1"
       y2="0"
       gradientUnits="userSpaceOnUse"
       gradientTransform="matrix(-13.933635,0,0,13.933635,30.19709,21.608299)"
       spreadMethod="pad"
       id="linearGradient1409"><stop
         style="stop-opacity:1;stop-color:#2c1842"
         offset="0"
         id="stop1399" /><stop
         style="stop-opacity:1;stop-color:#65339c"
         offset="0.0971022"
         id="stop1401" /><stop
         style="stop-opacity:1;stop-color:#65339c"
         offset="0.11156614"
         id="stop1403" /><stop
         style="stop-opacity:1;stop-color:#65339c"
         offset="0.910679"
         id="stop1405" /><stop
         style="stop-opacity:1;stop-color:#cb46db"
         offset="1"
         id="stop1407" /></linearGradient><clipPath
       clipPathUnits="userSpaceOnUse"
       id="clipPath1419"><path
         d="M 0,32 H 32 V 0 H 0 Z"
         id="path1417" /></clipPath><clipPath
       clipPathUnits="userSpaceOnUse"
       id="clipPath1455"><path
         d="M 1.8029,18.6725 H 15.7402 V 0.704041 H 1.8029 Z"
         id="path1453" /></clipPath><clipPath
       clipPathUnits="userSpaceOnUse"
       id="clipPath1459"><path
         d="m 4.04,12.673 h 9.467 c 1.233,0 2.233,-1 2.233,-2.234 V 5.297 H 1.807 v 5.142 c 0,1.234 1,2.234 2.233,2.234"
         id="path1457" /></clipPath><linearGradient
       x1="0"
       y1="0"
       x2="1"
       y2="0"
       gradientUnits="userSpaceOnUse"
       gradientTransform="matrix(-13.933635,0,0,13.933635,15.740205,8.9846926)"
       spreadMethod="pad"
       id="linearGradient1471"><stop
         style="stop-opacity:1;stop-color:#2c1842"
         offset="0"
         id="stop1461" /><stop
         style="stop-opacity:1;stop-color:#65339c"
         offset="0.0971022"
         id="stop1463" /><stop
         style="stop-opacity:1;stop-color:#65339c"
         offset="0.11156614"
         id="stop1465" /><stop
         style="stop-opacity:1;stop-color:#65339c"
         offset="0.910679"
         id="stop1467" /><stop
         style="stop-opacity:1;stop-color:#cb46db"
         offset="1"
         id="stop1469" /></linearGradient></defs><g
     id="g3905"
     transform="matrix(2.9085765,0,0,2.9085765,2.0237696,4.7264944)"><g
       id="g1147"
       transform="matrix(0.35277776,0,0,-0.35277778,-0.84179357,9.6363731)"><g
         id="g1149"
         clip-path="url(#clipPath1153)"><g
           id="g1155"
           style="display:inline"><g
             id="g1157"
             style="display:inline"><path
               d="m 8.237,20.553 c -1.804,0 -3.266,-1.462 -3.266,-3.266 v 0 -8.902 h 22.058 v 8.902 c 0,1.804 -1.463,3.266 -3.266,3.266 v 0 z"
               style="display:inline;fill:url(#linearGradient1171);stroke:none"
               id="path1173" /></g></g></g></g><g
       id="g1175"
       transform="matrix(0.35277776,0,0,-0.35277778,-0.84179357,9.6363731)"><g
         id="g1177"
         clip-path="url(#clipPath1181)"><g
           id="g1183"><g
             id="g1185" /><g
             id="g1305"><g
               clip-path="url(#clipPath1189)"
               opacity="0.770004"
               id="g1303"><g
                 id="g1287"><g
                   clip-path="url(#clipPath1193)"
                   id="g1285"><g
                     id="g1283"><g
                       id="g1275" /><g
                       mask="url(#mask1211)"
                       id="g1281"><g
                         id="g1279"><path
                           d="M 16.01,19.883 H 8.512 V 17.97 h 7.498 z"
                           style="fill:url(#radialGradient1233);stroke:none"
                           id="path1277" /></g></g></g></g></g><g
                 id="g1301"><g
                   clip-path="url(#clipPath1237)"
                   id="g1299"><g
                     id="g1297"><g
                       id="g1289" /><g
                       mask="url(#mask1253)"
                       id="g1295"><g
                         id="g1293"><path
                           d="M 23.782,19.883 H 23.487 V 17.97 h 0.295 c 1.804,0 3.266,-1.462 3.266,-3.266 v 1.913 c 0,1.804 -1.462,3.266 -3.266,3.266"
                           style="fill:url(#radialGradient1273);stroke:none"
                           id="path1291" /></g></g></g></g></g></g></g></g><g
           id="g1307"
           transform="translate(23.6108,1.606)"><path
             d="m 0,0 h -15.222 c -1.887,0 -3.418,1.53 -3.418,3.418 v 7.715 c 0,1.888 1.531,3.418 3.418,3.418 H 0 c 1.888,0 3.418,-1.53 3.418,-3.418 V 3.418 C 3.418,1.53 1.888,0 0,0"
             style="fill:#ca46db;fill-opacity:1;fill-rule:nonzero;stroke:none"
             id="path1309" /></g><g
           id="g1315"
           transform="translate(23.4874,17.9695)"><path
             d="m 0,0 c -0.84,0 -1.521,0.681 -1.521,1.521 v 2.552 c 0,3.29 -2.677,5.967 -5.967,5.967 -3.29,0 -5.966,-2.677 -5.966,-5.967 V 1.521 c 0,-0.84 -0.681,-1.521 -1.521,-1.521 -0.84,0 -1.522,0.681 -1.522,1.521 v 2.552 c 0,4.967 4.042,9.009 9.009,9.009 4.968,0 9.009,-4.042 9.009,-9.009 V 1.521 C 1.521,0.681 0.84,0 0,0"
             style="fill:#ca46db;fill-opacity:1;fill-rule:nonzero;stroke:none"
             id="path1317" /></g><g
           id="g1319"
           transform="translate(8.512,21.6618)"><path
             d="m 0,0 c -0.21,0 -0.38,0.17 -0.38,0.38 0,4.339 3.529,7.869 7.868,7.869 0.21,0 0.38,-0.171 0.38,-0.381 0,-0.209 -0.17,-0.38 -0.38,-0.38 C 3.569,7.488 0.38,4.3 0.38,0.38 0.38,0.17 0.21,0 0,0"
             style="fill:#e1c2ff;fill-opacity:1;fill-rule:nonzero;stroke:none"
             id="path1321" /></g><g
           id="g1323"
           transform="translate(17.5947,4.7888)"><path
             d="m 0,0 c 0.307,0 0.517,0.31 0.404,0.595 l -1.174,2.95 c -0.069,0.174 0.012,0.366 0.18,0.45 0.729,0.368 1.23,1.123 1.23,1.995 0,1.235 -1.001,2.235 -2.235,2.235 -0.021,0 -0.043,0 -0.065,-10e-4 C -2.829,8.191 -3.801,7.214 -3.829,6.045 -3.85,5.149 -3.344,4.37 -2.599,3.995 -2.432,3.911 -2.351,3.719 -2.42,3.546 L -3.593,0.595 C -3.706,0.31 -3.496,0 -3.189,0 Z"
             style="fill:#44285c;fill-opacity:1;fill-rule:nonzero;stroke:none"
             id="path1325" /></g><g
           id="g1327"
           transform="translate(17.5948,4.4137)"><path
             d="m 0,0 h -3.43 c -0.207,0 -0.375,0.168 -0.375,0.375 0,0.207 0.168,0.375 0.375,0.375 H 0 l 0.055,0.081 -1.173,2.951 c -0.141,0.353 0.014,0.749 0.358,0.923 0.632,0.318 1.025,0.955 1.025,1.66 0,0.572 -0.257,1.103 -0.704,1.457 -0.163,0.129 -0.19,0.366 -0.061,0.528 0.13,0.161 0.366,0.188 0.527,0.06 0.627,-0.498 0.988,-1.243 0.988,-2.045 0,-0.99 -0.551,-1.883 -1.437,-2.33 L 0.752,1.108 C 0.851,0.858 0.82,0.577 0.669,0.354 0.519,0.133 0.269,0 0,0"
             style="fill:#e1c2ff;fill-opacity:1;fill-rule:nonzero;stroke:none"
             id="path1329" /></g><g
           id="g1331"
           transform="translate(5.346,4.7766)"><path
             d="m 0,0 c -0.207,0 -0.375,0.168 -0.375,0.375 l -0.002,7.319 c -0.078,2.432 1.564,3.769 3.795,3.685 0.207,-0.008 0.375,-0.168 0.375,-0.375 0,-0.207 -0.168,-0.375 -0.375,-0.375 -1.905,0 -3.043,-1.138 -3.043,-3.043 V 0.375 C 0.375,0.168 0.207,0 0,0"
             style="fill:#e1c2ff;fill-opacity:1;fill-rule:nonzero;stroke:none"
             id="path1333" /></g></g></g></g></svg>
