<?xml version="1.0" encoding="UTF-8" standalone="no"?>
<!-- Created with Inkscape (http://www.inkscape.org/) -->

<svg
   width="32"
   height="32"
   viewBox="0 0 32 32"
   version="1.1"
   id="svg5"
   xml:space="preserve"
   inkscape:version="1.2.2 (732a01da63, 2022-12-09)"
   sodipodi:docname="inkscape_storage_backup.svg"
   xmlns:inkscape="http://www.inkscape.org/namespaces/inkscape"
   xmlns:sodipodi="http://sodipodi.sourceforge.net/DTD/sodipodi-0.dtd"
   xmlns:xlink="http://www.w3.org/1999/xlink"
   xmlns="http://www.w3.org/2000/svg"
   xmlns:svg="http://www.w3.org/2000/svg"><sodipodi:namedview
     id="namedview7"
     pagecolor="#ffffff"
     bordercolor="#666666"
     borderopacity="1.0"
     inkscape:showpageshadow="2"
     inkscape:pageopacity="0.0"
     inkscape:pagecheckerboard="0"
     inkscape:deskcolor="#d1d1d1"
     inkscape:document-units="px"
     showgrid="false"
     inkscape:zoom="22.627417"
     inkscape:cx="31.576737"
     inkscape:cy="10.871767"
     inkscape:window-width="3440"
     inkscape:window-height="1377"
     inkscape:window-x="-8"
     inkscape:window-y="-8"
     inkscape:window-maximized="1"
     inkscape:current-layer="layer1"
     showguides="false" /><defs
     id="defs2"><linearGradient
       inkscape:collect="always"
       id="linearGradient12849"><stop
         style="stop-color:#ca46db;stop-opacity:0.44;"
         offset="0"
         id="stop12845" /><stop
         style="stop-color:#ca46db;stop-opacity:0.11;"
         offset="1"
         id="stop12847" /></linearGradient><clipPath
       clipPathUnits="userSpaceOnUse"
       id="clipPath27"><path
         d="M 20.02,30.3 5.218,17.42 C 5.124,17.345 5.035,17.265 4.945,17.184 v 0 L 4.893,17.138 4.892,17.135 C 3.78,16.096 3.079,14.62 3.079,12.982 v 0 -0.454 C 2.333,12.233 1.803,11.509 1.803,10.658 v 0 -7.939 c 0,-1.113 0.902,-2.015 2.015,-2.015 v 0 h 9.904 c 0.563,0 1.071,0.232 1.437,0.604 v 0 l 14.587,12.778 -1.974,10.849 -0.773,3.74 -3.529,1.901 z"
         id="path25" /></clipPath><clipPath
       clipPathUnits="userSpaceOnUse"
       id="clipPath35"><path
         d="M -32768,32767 H 32767 V -32768 H -32768 Z"
         id="path33" /></clipPath><linearGradient
       x1="0"
       y1="0"
       x2="1"
       y2="0"
       gradientUnits="userSpaceOnUse"
       gradientTransform="matrix(27.942871,0,0,-27.942871,1.8031285,15.639673)"
       spreadMethod="pad"
       id="linearGradient43"><stop
         style="stop-opacity:0.4399939;stop-color:#ffffff"
         offset="0"
         id="stop37" /><stop
         style="stop-opacity:0.4399939;stop-color:#ffffff"
         offset="0.0206186"
         id="stop39" /><stop
         style="stop-opacity:1;stop-color:#ffffff"
         offset="1"
         id="stop41" /></linearGradient><mask
       maskUnits="userSpaceOnUse"
       x="0"
       y="0"
       width="1"
       height="1"
       id="mask45"><g
         id="g55"><g
           clip-path="url(#clipPath35)"
           id="g53"><g
             id="g51"><g
               id="g49"><path
                 d="M -32768,32767 H 32767 V -32768 H -32768 Z"
                 style="fill:url(#linearGradient43);stroke:none"
                 id="path47" /></g></g></g></g></mask><linearGradient
       x1="0"
       y1="0"
       x2="1"
       y2="0"
       gradientUnits="userSpaceOnUse"
       gradientTransform="matrix(27.942871,0,0,-27.942871,1.8031285,15.639673)"
       spreadMethod="pad"
       id="linearGradient67"><stop
         style="stop-opacity:1;stop-color:#353535"
         offset="0"
         id="stop61" /><stop
         style="stop-opacity:1;stop-color:#353535"
         offset="0.0206186"
         id="stop63" /><stop
         style="stop-opacity:1;stop-color:#7a478b"
         offset="1"
         id="stop65" /></linearGradient><clipPath
       clipPathUnits="userSpaceOnUse"
       id="clipPath77"><path
         d="M 0,32 H 32 V 0 H 0 Z"
         id="path75" /></clipPath><clipPath
       clipPathUnits="userSpaceOnUse"
       id="clipPath85"><path
         d="M 1.8031,18.6724 H 15.7367 V 0.703979 H 1.8031 Z"
         id="path83" /></clipPath><clipPath
       clipPathUnits="userSpaceOnUse"
       id="clipPath89"><path
         d="m 4.074,12.673 h 9.392 c 1.254,0 2.271,-1.017 2.271,-2.271 V 5.16 H 1.803 v 5.242 c 0,1.254 1.017,2.271 2.271,2.271"
         id="path87" /></clipPath><clipPath
       clipPathUnits="userSpaceOnUse"
       id="clipPath411"><path
         d="m 18.534,25.296 c -1.254,0 -2.271,-1.017 -2.271,-2.27 v 0 -5.243 h 13.934 v 5.243 c 0,1.253 -1.016,2.27 -2.271,2.27 v 0 z"
         id="path409" /></clipPath><clipPath
       clipPathUnits="userSpaceOnUse"
       id="clipPath701"><path
         d="M 0,32 H 32 V 0 H 0 Z"
         id="path699" /></clipPath><clipPath
       clipPathUnits="userSpaceOnUse"
       id="clipPath739"><path
         d="m 8.248,20.553 c -1.81,0 -3.277,-1.467 -3.277,-3.277 v 0 -6.268 h 22.058 v 6.268 c 0,1.81 -1.467,3.277 -3.276,3.277 v 0 z"
         id="path737" /></clipPath><clipPath
       clipPathUnits="userSpaceOnUse"
       id="clipPath1029"><path
         d="M 0,32 H 32 V 0 H 0 Z"
         id="path1027" /></clipPath><clipPath
       clipPathUnits="userSpaceOnUse"
       id="clipPath1073"><path
         d="m 25.081,81.378 c -2.532,0 -4.586,-2.053 -4.586,-4.586 v 0 -28.479 c 0,-2.533 2.054,-4.586 4.586,-4.586 v 0 h 77.838 c 2.533,0 4.586,2.053 4.586,4.586 v 0 28.479 c 0,2.533 -2.053,4.586 -4.586,4.586 v 0 z"
         id="path1071" /></clipPath><linearGradient
       x1="0"
       y1="0"
       x2="1"
       y2="0"
       gradientUnits="userSpaceOnUse"
       gradientTransform="matrix(-87.009979,0,0,87.009979,107.50499,62.552654)"
       spreadMethod="pad"
       id="linearGradient1093"><stop
         style="stop-opacity:1;stop-color:#56347c"
         offset="0"
         id="stop1079" /><stop
         style="stop-opacity:1;stop-color:#7a478b"
         offset="0.036"
         id="stop1081" /><stop
         style="stop-opacity:1;stop-color:#56347c"
         offset="0.0816383"
         id="stop1083" /><stop
         style="stop-opacity:1;stop-color:#56347c"
         offset="0.09651375"
         id="stop1085" /><stop
         style="stop-opacity:1;stop-color:#56347c"
         offset="0.918362"
         id="stop1087" /><stop
         style="stop-opacity:1;stop-color:#44285c"
         offset="0.958681"
         id="stop1089" /><stop
         style="stop-opacity:1;stop-color:#56347c"
         offset="1"
         id="stop1091" /></linearGradient><clipPath
       clipPathUnits="userSpaceOnUse"
       id="clipPath1103"><path
         d="M 0,128 H 128 V 0 H 0 Z"
         id="path1101" /></clipPath><clipPath
       clipPathUnits="userSpaceOnUse"
       id="clipPath1123"><path
         d="M 32.9627,116.345 H 65.4988 V 83.8071 H 32.9627 Z"
         id="path1121" /></clipPath><clipPath
       clipPathUnits="userSpaceOnUse"
       id="clipPath1153"><path
         d="m 8.237,20.553 c -1.804,0 -3.266,-1.462 -3.266,-3.266 v 0 -8.902 h 22.058 v 8.902 c 0,1.804 -1.463,3.266 -3.266,3.266 v 0 z"
         id="path1151" /></clipPath><linearGradient
       x1="0"
       y1="0"
       x2="1"
       y2="0"
       gradientUnits="userSpaceOnUse"
       gradientTransform="matrix(-22.057961,0,0,22.057961,27.02898,14.469318)"
       spreadMethod="pad"
       id="linearGradient1171"><stop
         style="stop-opacity:1;stop-color:#2c1842"
         offset="0"
         id="stop1159" /><stop
         style="stop-opacity:1;stop-color:#65339c"
         offset="0.0971022"
         id="stop1161" /><stop
         style="stop-opacity:1;stop-color:#65339c"
         offset="0.11156614"
         id="stop1163" /><stop
         style="stop-opacity:1;stop-color:#65339c"
         offset="0.910679"
         id="stop1165" /><stop
         style="stop-opacity:1;stop-color:#cb46db"
         offset="0.949948"
         id="stop1167" /><stop
         style="stop-opacity:1;stop-color:#65339c"
         offset="1"
         id="stop1169" /></linearGradient><clipPath
       clipPathUnits="userSpaceOnUse"
       id="clipPath1181"><path
         d="M 0,32 H 32 V 0 H 0 Z"
         id="path1179" /></clipPath><clipPath
       clipPathUnits="userSpaceOnUse"
       id="clipPath1189"><path
         d="M 8.51183,19.8833 H 27.0484 V 14.7041 H 8.51183 Z"
         id="path1187" /></clipPath><clipPath
       clipPathUnits="userSpaceOnUse"
       id="clipPath1193"><path
         d="M 16.01,19.883 H 8.512 V 17.97 h 7.498 z"
         id="path1191" /></clipPath><clipPath
       clipPathUnits="userSpaceOnUse"
       id="clipPath1197"><path
         d="M -32768,32767 H 32767 V -32768 H -32768 Z"
         id="path1195" /></clipPath><radialGradient
       fx="-0.99996603"
       fy="-0.0082373302"
       cx="0"
       cy="0"
       r="1"
       gradientUnits="userSpaceOnUse"
       gradientTransform="matrix(2.8286712,0,0,-2.2083366,10.898413,18.864857)"
       spreadMethod="pad"
       id="radialGradient1209"><stop
         style="stop-opacity:1;stop-color:#ffffff"
         offset="0"
         id="stop1199" /><stop
         style="stop-opacity:1;stop-color:#ffffff"
         offset="0.108825"
         id="stop1201" /><stop
         style="stop-opacity:1;stop-color:#ffffff"
         offset="0.1579542"
         id="stop1203" /><stop
         style="stop-opacity:0;stop-color:#ffffff"
         offset="0.91577"
         id="stop1205" /><stop
         style="stop-opacity:0;stop-color:#ffffff"
         offset="1"
         id="stop1207" /></radialGradient><mask
       maskUnits="userSpaceOnUse"
       x="0"
       y="0"
       width="1"
       height="1"
       id="mask1211"><g
         id="g1221"><g
           clip-path="url(#clipPath1197)"
           id="g1219"><g
             id="g1217"><g
               id="g1215"><path
                 d="M -32768,32767 H 32767 V -32768 H -32768 Z"
                 style="fill:url(#radialGradient1209);stroke:none"
                 id="path1213" /></g></g></g></g></mask><radialGradient
       fx="-0.99996603"
       fy="-0.0082373302"
       cx="0"
       cy="0"
       r="1"
       gradientUnits="userSpaceOnUse"
       gradientTransform="matrix(2.8286712,0,0,-2.2083366,10.898413,18.864857)"
       spreadMethod="pad"
       id="radialGradient1233"><stop
         style="stop-opacity:1;stop-color:#2c1842"
         offset="0"
         id="stop1223" /><stop
         style="stop-opacity:1;stop-color:#2c1842"
         offset="0.108825"
         id="stop1225" /><stop
         style="stop-opacity:1;stop-color:#2c1842"
         offset="0.1579542"
         id="stop1227" /><stop
         style="stop-opacity:1;stop-color:#2c1842"
         offset="0.91577"
         id="stop1229" /><stop
         style="stop-opacity:1;stop-color:#2c1842"
         offset="1"
         id="stop1231" /></radialGradient><clipPath
       clipPathUnits="userSpaceOnUse"
       id="clipPath1237"><path
         d="M 23.782,19.883 H 23.487 V 17.97 h 0.295 c 1.804,0 3.266,-1.462 3.266,-3.266 v 1.913 c 0,1.804 -1.462,3.266 -3.266,3.266"
         id="path1235" /></clipPath><clipPath
       clipPathUnits="userSpaceOnUse"
       id="clipPath1241"><path
         d="M -32768,32767 H 32767 V -32768 H -32768 Z"
         id="path1239" /></clipPath><radialGradient
       fx="0"
       fy="0"
       cx="0"
       cy="0"
       r="1"
       gradientUnits="userSpaceOnUse"
       gradientTransform="matrix(2.6588938,0,0,-2.6588938,24.111967,18.73868)"
       spreadMethod="pad"
       id="radialGradient1251"><stop
         style="stop-opacity:1;stop-color:#ffffff"
         offset="0"
         id="stop1243" /><stop
         style="stop-opacity:1;stop-color:#ffffff"
         offset="0.05575479"
         id="stop1245" /><stop
         style="stop-opacity:0;stop-color:#ffffff"
         offset="0.91577"
         id="stop1247" /><stop
         style="stop-opacity:0;stop-color:#ffffff"
         offset="1"
         id="stop1249" /></radialGradient><mask
       maskUnits="userSpaceOnUse"
       x="0"
       y="0"
       width="1"
       height="1"
       id="mask1253"><g
         id="g1263"><g
           clip-path="url(#clipPath1241)"
           id="g1261"><g
             id="g1259"><g
               id="g1257"><path
                 d="M -32768,32767 H 32767 V -32768 H -32768 Z"
                 style="fill:url(#radialGradient1251);stroke:none"
                 id="path1255" /></g></g></g></g></mask><radialGradient
       fx="0"
       fy="0"
       cx="0"
       cy="0"
       r="1"
       gradientUnits="userSpaceOnUse"
       gradientTransform="matrix(2.6588938,0,0,-2.6588938,24.111967,18.73868)"
       spreadMethod="pad"
       id="radialGradient1273"><stop
         style="stop-opacity:1;stop-color:#2c1842"
         offset="0"
         id="stop1265" /><stop
         style="stop-opacity:1;stop-color:#2c1842"
         offset="0.05575479"
         id="stop1267" /><stop
         style="stop-opacity:1;stop-color:#2c1842"
         offset="0.91577"
         id="stop1269" /><stop
         style="stop-opacity:1;stop-color:#2c1842"
         offset="1"
         id="stop1271" /></radialGradient><clipPath
       clipPathUnits="userSpaceOnUse"
       id="clipPath1347"><path
         d="M 20.02,30.3 5.218,17.42 C 5.124,17.346 5.035,17.265 4.945,17.184 v 0 L 4.893,17.138 4.892,17.135 C 3.78,16.096 3.079,14.62 3.079,12.982 v 0 -0.454 C 2.333,12.233 1.804,11.509 1.804,10.658 v 0 -7.939 c 0,-1.113 0.901,-2.015 2.014,-2.015 v 0 h 9.904 c 0.564,0 1.071,0.232 1.437,0.605 v 0 L 29.746,14.086 27.96,25.365 c 0,0 0,2.356 -1.504,3.873 v 0 c -1.152,1.164 -2.624,1.476 -3.868,1.476 v 0 C 21.153,30.714 20.02,30.3 20.02,30.3"
         id="path1345" /></clipPath><clipPath
       clipPathUnits="userSpaceOnUse"
       id="clipPath1355"><path
         d="M -32768,32767 H 32767 V -32768 H -32768 Z"
         id="path1353" /></clipPath><linearGradient
       x1="0"
       y1="0"
       x2="1"
       y2="0"
       gradientUnits="userSpaceOnUse"
       gradientTransform="matrix(27.942871,0,0,-27.942871,1.8033229,15.708818)"
       spreadMethod="pad"
       id="linearGradient1361"><stop
         style="stop-opacity:0.10998703;stop-color:#ffffff"
         offset="0"
         id="stop1357" /><stop
         style="stop-opacity:0.4399939;stop-color:#ffffff"
         offset="1"
         id="stop1359" /></linearGradient><mask
       maskUnits="userSpaceOnUse"
       x="0"
       y="0"
       width="1"
       height="1"
       id="mask1363"><g
         id="g1373"><g
           clip-path="url(#clipPath1355)"
           id="g1371"><g
             id="g1369"><g
               id="g1367"><path
                 d="M -32768,32767 H 32767 V -32768 H -32768 Z"
                 style="fill:url(#linearGradient1361);stroke:none"
                 id="path1365" /></g></g></g></g></mask><linearGradient
       x1="0.74055487"
       y1="-0.11272167"
       x2="0.30718496"
       y2="0.23573701"
       gradientUnits="userSpaceOnUse"
       gradientTransform="matrix(27.942871,0,0,-27.942871,1.8033229,15.708818)"
       spreadMethod="pad"
       id="linearGradient1383"><stop
         style="stop-opacity:1;stop-color:#cb46db"
         offset="0"
         id="stop1379" /><stop
         style="stop-opacity:1;stop-color:#cb46db"
         offset="1"
         id="stop1381" /></linearGradient><clipPath
       clipPathUnits="userSpaceOnUse"
       id="clipPath1393"><path
         d="m 18.497,25.296 c -1.233,0 -2.233,-1 -2.233,-2.234 v 0 -5.141 h 13.933 v 5.141 c 0,1.234 -1,2.234 -2.233,2.234 v 0 z"
         id="path1391" /></clipPath><linearGradient
       x1="0"
       y1="0"
       x2="1"
       y2="0"
       gradientUnits="userSpaceOnUse"
       gradientTransform="matrix(-13.933635,0,0,13.933635,30.19709,21.608299)"
       spreadMethod="pad"
       id="linearGradient1409"><stop
         style="stop-opacity:1;stop-color:#2c1842"
         offset="0"
         id="stop1399" /><stop
         style="stop-opacity:1;stop-color:#65339c"
         offset="0.0971022"
         id="stop1401" /><stop
         style="stop-opacity:1;stop-color:#65339c"
         offset="0.11156614"
         id="stop1403" /><stop
         style="stop-opacity:1;stop-color:#65339c"
         offset="0.910679"
         id="stop1405" /><stop
         style="stop-opacity:1;stop-color:#cb46db"
         offset="1"
         id="stop1407" /></linearGradient><clipPath
       clipPathUnits="userSpaceOnUse"
       id="clipPath1419"><path
         d="M 0,32 H 32 V 0 H 0 Z"
         id="path1417" /></clipPath><clipPath
       clipPathUnits="userSpaceOnUse"
       id="clipPath1455"><path
         d="M 1.8029,18.6725 H 15.7402 V 0.704041 H 1.8029 Z"
         id="path1453" /></clipPath><clipPath
       clipPathUnits="userSpaceOnUse"
       id="clipPath1459"><path
         d="m 4.04,12.673 h 9.467 c 1.233,0 2.233,-1 2.233,-2.234 V 5.297 H 1.807 v 5.142 c 0,1.234 1,2.234 2.233,2.234"
         id="path1457" /></clipPath><linearGradient
       x1="0"
       y1="0"
       x2="1"
       y2="0"
       gradientUnits="userSpaceOnUse"
       gradientTransform="matrix(-13.933635,0,0,13.933635,15.740205,8.9846926)"
       spreadMethod="pad"
       id="linearGradient1471"><stop
         style="stop-opacity:1;stop-color:#2c1842"
         offset="0"
         id="stop1461" /><stop
         style="stop-opacity:1;stop-color:#65339c"
         offset="0.0971022"
         id="stop1463" /><stop
         style="stop-opacity:1;stop-color:#65339c"
         offset="0.11156614"
         id="stop1465" /><stop
         style="stop-opacity:1;stop-color:#65339c"
         offset="0.910679"
         id="stop1467" /><stop
         style="stop-opacity:1;stop-color:#cb46db"
         offset="1"
         id="stop1469" /></linearGradient><linearGradient
       inkscape:collect="always"
       xlink:href="#linearGradient12849"
       id="linearGradient12851"
       x1="300.78192"
       y1="23.915421"
       x2="284.18524"
       y2="38.002773"
       gradientUnits="userSpaceOnUse" /><clipPath
       clipPathUnits="userSpaceOnUse"
       id="clipPath1455-7"><path
         d="M 1.8029,18.6725 H 15.7402 V 0.704041 H 1.8029 Z"
         id="path1453-0" /></clipPath><clipPath
       clipPathUnits="userSpaceOnUse"
       id="clipPath1459-2"><path
         d="m 4.04,12.673 h 9.467 c 1.233,0 2.233,-1 2.233,-2.234 V 5.297 H 1.807 v 5.142 c 0,1.234 1,2.234 2.233,2.234"
         id="path1457-5" /></clipPath><linearGradient
       x1="0"
       y1="0"
       x2="1"
       y2="0"
       gradientUnits="userSpaceOnUse"
       gradientTransform="matrix(-13.933635,0,0,13.933635,15.740205,8.9846926)"
       spreadMethod="pad"
       id="linearGradient1471-5"><stop
         style="stop-opacity:1;stop-color:#2c1842"
         offset="0"
         id="stop1461-8" /><stop
         style="stop-opacity:1;stop-color:#65339c"
         offset="0.0971022"
         id="stop1463-8" /><stop
         style="stop-opacity:1;stop-color:#65339c"
         offset="0.11156614"
         id="stop1465-5" /><stop
         style="stop-opacity:1;stop-color:#65339c"
         offset="0.910679"
         id="stop1467-9" /><stop
         style="stop-opacity:1;stop-color:#cb46db"
         offset="1"
         id="stop1469-0" /></linearGradient></defs><g
     inkscape:label="Capa 1"
     inkscape:groupmode="layer"
     id="layer1"
     transform="translate(-277.27365,-13.790134)"><path
       id="path8319"
       style="fill:url(#linearGradient12851);fill-opacity:1;stroke:none;stroke-width:1px;stroke-linecap:butt;stroke-linejoin:miter;stroke-opacity:1"
       d="m 300.30295,15.340915 c -1.98802,-0.07216 -3.48498,0.42854 -3.48498,0.42854 l -14.17323,12.38982 -0.01,0.02734 c -1.43864,1.042791 -2.37696,2.735868 -2.37696,4.644532 v 0.53125 c -0.75872,0.36171 -1.28515,1.134215 -1.28515,2.03125 v 5.179687 2.597656 c 0,1.121378 0.90987,2.03125 2.03125,2.03125 h 9.97851 c 0.72234,0 1.35501,-0.379179 1.71485,-0.947265 l 14.32894,-12.411486 -1.73324,-11.152967 c 0,0 0.1814,-4.379344 -2.8457,-5.072266 -0.75678,-0.173231 -1.48186,-0.25329 -2.14453,-0.277344 z"
       sodipodi:nodetypes="scccscscssscccsss" /></g><g
     id="g4478"
     transform="translate(-0.13913581,-0.16435775)"
     sodipodi:insensitive="true"
     style="display:inline"><g
       id="g3958"
       transform="matrix(2.8559859,0,0,2.8559859,-124.60886,-15.730574)"><g
         id="g1341"
         transform="matrix(0.35277776,0,0,-0.35277778,43.637189,16.812281)"
         style="display:none"><g
           id="g1343"
           clip-path="url(#clipPath1347)"
           style="display:inline"><g
             id="g1349"><g
               id="g1375"
               mask="url(#mask1363)"
               style="display:inline"><g
                 id="g1377"
                 style="display:inline"><path
                   d="M 20.02,30.3 5.218,17.42 C 5.124,17.346 5.035,17.265 4.945,17.184 v 0 L 4.893,17.138 4.892,17.135 C 3.78,16.096 3.079,14.62 3.079,12.982 v 0 -0.454 C 2.333,12.233 1.804,11.509 1.804,10.658 v 0 -7.939 c 0,-1.113 0.901,-2.015 2.014,-2.015 v 0 h 9.904 c 0.564,0 1.071,0.232 1.437,0.605 v 0 L 29.746,14.086 27.96,25.365 c 0,0 0,2.356 -1.504,3.873 v 0 c -1.152,1.164 -2.624,1.476 -3.868,1.476 v 0 C 21.153,30.714 20.02,30.3 20.02,30.3"
                   style="fill:#cc45db;fill-opacity:0.333333;stroke:none"
                   id="path1385"
                   inkscape:label="path1385" /></g></g></g></g></g><g
         id="g1387"
         transform="matrix(0.35277776,0,0,-0.35277778,43.637189,16.812281)"
         style="display:inline"><g
           id="g1389"
           clip-path="url(#clipPath1393)"><g
             id="g1395"><g
               id="g1397"><path
                 d="m 18.497,25.296 c -1.233,0 -2.233,-1 -2.233,-2.234 v 0 -5.141 h 13.933 v 5.141 c 0,1.234 -1,2.234 -2.233,2.234 v 0 z"
                 style="fill:url(#linearGradient1409);stroke:none"
                 id="path1411" /></g></g></g></g><g
         id="g1413"
         transform="matrix(0.35277776,0,0,-0.35277778,43.637189,16.812281)"
         style="display:inline"><g
           id="g1415"
           clip-path="url(#clipPath1419)"><g
             id="g1421"
             transform="translate(28.1824,13.3277)"
             style="display:inline"><path
               d="m 0,0 h -9.904 c -1.113,0 -2.015,0.902 -2.015,2.015 v 5.162 c 0,1.113 0.902,2.015 2.015,2.015 H 0 c 1.113,0 2.015,-0.902 2.015,-2.015 V 2.015 C 2.015,0.902 1.113,0 0,0"
               style="fill:#ca46db;fill-opacity:1;fill-rule:nonzero;stroke:none"
               id="path1423" /></g><g
             id="g1425"
             transform="translate(27.9599,23.033)"><path
               d="m 0,0 c -0.062,0 -0.125,0.006 -0.187,0.018 -0.061,0.013 -0.122,0.032 -0.18,0.056 -0.059,0.024 -0.113,0.053 -0.166,0.088 -0.053,0.035 -0.101,0.075 -0.146,0.118 -0.045,0.045 -0.085,0.095 -0.12,0.148 -0.034,0.051 -0.064,0.107 -0.088,0.165 -0.024,0.057 -0.042,0.118 -0.055,0.179 -0.012,0.062 -0.019,0.125 -0.019,0.189 0,0.062 0.007,0.125 0.019,0.187 0.013,0.061 0.031,0.122 0.055,0.18 0.024,0.057 0.054,0.113 0.088,0.166 0.035,0.053 0.075,0.101 0.12,0.146 0.045,0.045 0.093,0.085 0.146,0.12 0.053,0.034 0.107,0.064 0.166,0.088 0.058,0.024 0.119,0.042 0.18,0.054 C 0.125,1.965 0.456,1.864 0.679,1.64 0.724,1.595 0.764,1.547 0.799,1.494 0.834,1.441 0.863,1.385 0.887,1.328 0.911,1.27 0.93,1.209 0.942,1.148 0.954,1.086 0.961,1.023 0.961,0.961 0.961,0.897 0.954,0.834 0.942,0.772 0.93,0.711 0.911,0.65 0.887,0.593 0.863,0.535 0.834,0.479 0.799,0.428 0.764,0.375 0.724,0.325 0.679,0.28 0.636,0.237 0.586,0.197 0.533,0.162 0.482,0.127 0.426,0.098 0.368,0.074 0.309,0.05 0.25,0.031 0.187,0.018 0.127,0.006 0.063,0 0,0"
               style="fill:#44285c;fill-opacity:1;fill-rule:nonzero;stroke:none"
               id="path1427" /></g><g
             id="g1429"
             transform="translate(27.9599,23.0325)"><path
               d="m 0,0 c -0.531,0 -0.961,0.43 -0.961,0.961 v 1.612 c 0,2.078 -1.691,3.769 -3.769,3.769 -2.078,0 -3.769,-1.691 -3.769,-3.769 V 0.961 C -8.499,0.43 -8.929,0 -9.46,0 c -0.53,0 -0.961,0.43 -0.961,0.961 v 1.612 c 0,3.138 2.553,5.691 5.691,5.691 3.138,0 5.691,-2.553 5.691,-5.691 V 0.961 C 0.961,0.43 0.531,0 0,0"
               style="fill:#ca46db;fill-opacity:1;fill-rule:nonzero;stroke:none"
               id="path1431" /></g><g
             id="g1433"
             transform="translate(18.5002,25.3649)"><path
               d="m 0,0 c -0.133,0 -0.24,0.108 -0.24,0.24 0,2.741 2.229,4.971 4.97,4.971 0.132,0 0.24,-0.108 0.24,-0.241 C 4.97,4.838 4.862,4.73 4.73,4.73 2.254,4.73 0.24,2.716 0.24,0.24 0.24,0.108 0.133,0 0,0"
               style="fill:#e1c2ff;fill-opacity:1;fill-rule:nonzero;stroke:none"
               id="path1435" /></g><g
             id="g1437"
             transform="translate(24.2376,15.3381)"><path
               d="M 0,0 C 0.194,0 0.326,0.196 0.255,0.376 L -0.486,2.24 c -0.044,0.109 0.007,0.23 0.113,0.284 0.461,0.232 0.777,0.709 0.777,1.26 0,0.78 -0.632,1.412 -1.411,1.412 -0.014,0 -0.028,-10e-4 -0.041,-10e-4 C -1.787,5.174 -2.401,4.557 -2.419,3.818 -2.432,3.252 -2.112,2.76 -1.642,2.523 -1.536,2.47 -1.485,2.349 -1.528,2.24 L -2.269,0.376 C -2.341,0.196 -2.208,0 -2.015,0 Z"
               style="fill:#44285c;fill-opacity:1;fill-rule:nonzero;stroke:none"
               id="path1439" /></g><g
             id="g1441"
             transform="translate(24.238,15.0885)"><path
               d="m 0,0 h -2.167 c -0.138,0 -0.25,0.112 -0.25,0.25 0,0.138 0.112,0.25 0.25,0.25 H 0 l -0.719,1.896 c -0.091,0.228 0.009,0.486 0.233,0.6 0.395,0.199 0.64,0.597 0.64,1.038 0,0.356 -0.16,0.688 -0.439,0.91 -0.109,0.086 -0.126,0.243 -0.04,0.351 0.086,0.109 0.244,0.126 0.35,0.04 0.4,-0.317 0.629,-0.792 0.629,-1.301 0,-0.631 -0.35,-1.199 -0.915,-1.484 L 0.487,0.718 C 0.552,0.556 0.531,0.374 0.434,0.229 0.336,0.086 0.174,0 0,0"
               style="fill:#e1c2ff;fill-opacity:1;fill-rule:nonzero;stroke:none"
               id="path1443" /></g><g
             id="g1445"
             transform="translate(16.5167,14.935)"><path
               d="M 0,0 C -0.138,0 -0.25,0.112 -0.25,0.25 L -0.251,5.127 C -0.34,6.934 0.655,7.688 2.277,7.582 2.415,7.573 2.527,7.47 2.527,7.332 2.527,7.194 2.415,7.082 2.277,7.082 0.857,7.089 0.266,6.452 0.25,5.055 V 0.25 C 0.25,0.112 0.138,0 0,0"
               style="fill:#e1c2ff;fill-opacity:1;fill-rule:nonzero;stroke:none"
               id="path1447" /></g><g
             id="g1449"><g
               id="g1451" /><g
               id="g1513"><g
                 clip-path="url(#clipPath1455)"
                 opacity="0.440002"
                 id="g1511"><g
                   id="g1481"><g
                     clip-path="url(#clipPath1459)"
                     id="g1479"><g
                       id="g1477"><g
                         id="g1475"><path
                           d="m 4.04,12.673 h 9.467 c 1.233,0 2.233,-1 2.233,-2.234 V 5.297 H 1.807 v 5.142 c 0,1.234 1,2.234 2.233,2.234"
                           style="fill:url(#linearGradient1471);stroke:none"
                           id="path1473" /></g></g></g></g><g
                   transform="translate(13.7256,0.704)"
                   id="g1485"><path
                     d="m 0,0 h -9.904 c -1.113,0 -2.015,0.902 -2.015,2.015 v 5.162 c 0,1.113 0.902,2.015 2.015,2.015 H 0 c 1.113,0 2.015,-0.902 2.015,-2.015 V 2.015 C 2.015,0.902 1.113,0 0,0"
                     style="fill:#ca46db;fill-opacity:1;fill-rule:nonzero;stroke:none"
                     id="path1483" /></g><g
                   transform="translate(13.503,10.4094)"
                   id="g1489"><path
                     d="M 0,0 C -0.062,0 -0.125,0.006 -0.187,0.018 -0.248,0.03 -0.309,0.05 -0.367,0.074 -0.426,0.098 -0.48,0.127 -0.533,0.162 -0.586,0.197 -0.634,0.237 -0.679,0.28 c -0.045,0.045 -0.085,0.095 -0.12,0.148 -0.034,0.051 -0.064,0.107 -0.088,0.165 -0.024,0.057 -0.042,0.118 -0.055,0.179 -0.012,0.062 -0.019,0.125 -0.019,0.189 0,0.062 0.007,0.125 0.019,0.187 0.013,0.061 0.031,0.122 0.055,0.18 0.024,0.057 0.054,0.113 0.088,0.166 0.035,0.053 0.075,0.101 0.12,0.146 0.045,0.045 0.093,0.085 0.146,0.12 0.053,0.034 0.107,0.064 0.166,0.088 0.058,0.024 0.119,0.042 0.18,0.054 C 0.125,1.965 0.456,1.864 0.679,1.64 0.724,1.595 0.764,1.547 0.799,1.494 0.834,1.441 0.863,1.385 0.887,1.328 0.911,1.27 0.93,1.209 0.942,1.148 0.954,1.086 0.961,1.023 0.961,0.961 0.961,0.897 0.954,0.834 0.942,0.772 0.93,0.711 0.911,0.65 0.887,0.593 0.863,0.535 0.834,0.479 0.799,0.428 0.764,0.375 0.724,0.325 0.679,0.28 0.636,0.237 0.586,0.197 0.533,0.162 0.482,0.127 0.426,0.098 0.368,0.074 0.309,0.05 0.25,0.03 0.187,0.018 0.127,0.006 0.063,0 0,0"
                     style="fill:#44285c;fill-opacity:1;fill-rule:nonzero;stroke:none"
                     id="path1487" /></g><g
                   transform="translate(13.5031,10.4089)"
                   id="g1493"><path
                     d="m 0,0 c -0.531,0 -0.961,0.43 -0.961,0.961 v 1.612 c 0,2.078 -1.691,3.769 -3.769,3.769 -2.078,0 -3.769,-1.691 -3.769,-3.769 V 0.961 C -8.499,0.43 -8.929,0 -9.46,0 c -0.53,0 -0.961,0.43 -0.961,0.961 v 1.612 c 0,3.138 2.553,5.691 5.691,5.691 3.138,0 5.691,-2.553 5.691,-5.691 V 0.961 C 0.961,0.43 0.531,0 0,0"
                     style="fill:#ca46db;fill-opacity:1;fill-rule:nonzero;stroke:none"
                     id="path1491" /></g><g
                   transform="translate(4.0433,12.7412)"
                   id="g1497"><path
                     d="m 0,0 c -0.133,0 -0.24,0.108 -0.24,0.24 0,2.741 2.229,4.971 4.97,4.971 0.132,0 0.24,-0.108 0.24,-0.241 C 4.97,4.838 4.862,4.73 4.73,4.73 2.254,4.73 0.24,2.716 0.24,0.24 0.24,0.108 0.133,0 0,0"
                     style="fill:#e1c2ff;fill-opacity:1;fill-rule:nonzero;stroke:none"
                     id="path1495" /></g><g
                   transform="translate(9.7807,2.7145)"
                   id="g1501"><path
                     d="M 0,0 C 0.194,0 0.326,0.196 0.255,0.376 L -0.486,2.24 c -0.044,0.109 0.007,0.23 0.113,0.284 0.461,0.232 0.777,0.709 0.777,1.26 0,0.78 -0.632,1.412 -1.411,1.412 -0.014,0 -0.028,-10e-4 -0.041,-10e-4 C -1.787,5.174 -2.401,4.557 -2.419,3.818 -2.432,3.252 -2.112,2.76 -1.642,2.523 -1.536,2.47 -1.485,2.349 -1.528,2.24 L -2.27,0.376 C -2.341,0.196 -2.208,0 -2.015,0 Z"
                     style="fill:#44285c;fill-opacity:1;fill-rule:nonzero;stroke:none"
                     id="path1499" /></g><g
                   transform="translate(9.7811,2.4649)"
                   id="g1505"><path
                     d="m 0,0 h -2.167 c -0.138,0 -0.25,0.112 -0.25,0.25 0,0.138 0.112,0.25 0.25,0.25 H 0 l -0.719,1.896 c -0.091,0.228 0.009,0.486 0.233,0.6 0.395,0.199 0.64,0.597 0.64,1.038 0,0.356 -0.16,0.688 -0.439,0.91 -0.109,0.086 -0.126,0.243 -0.04,0.351 0.086,0.109 0.244,0.126 0.35,0.04 0.4,-0.317 0.629,-0.792 0.629,-1.301 0,-0.631 -0.35,-1.199 -0.915,-1.484 L 0.487,0.718 C 0.552,0.556 0.531,0.374 0.434,0.229 0.336,0.086 0.174,0 0,0"
                     style="fill:#e1c2ff;fill-opacity:1;fill-rule:nonzero;stroke:none"
                     id="path1503" /></g><g
                   transform="translate(2.0598,2.3113)"
                   id="g1509"><path
                     d="M 0,0 C -0.138,0 -0.25,0.112 -0.25,0.25 L -0.251,5.127 C -0.34,6.934 0.655,7.688 2.277,7.582 2.415,7.573 2.527,7.47 2.527,7.332 2.527,7.194 2.415,7.082 2.277,7.082 0.857,7.089 0.266,6.452 0.25,5.055 V 0.25 C 0.25,0.112 0.138,0 0,0"
                     style="fill:#e1c2ff;fill-opacity:1;fill-rule:nonzero;stroke:none"
                     id="path1507" /></g></g></g></g></g></g></g></g></svg>
