<?xml version="1.0" encoding="UTF-8"?><svg id="Layer_2" xmlns="http://www.w3.org/2000/svg" xmlns:xlink="http://www.w3.org/1999/xlink" viewBox="0 0 128 128"><defs><style>.cls-1{opacity:.44;stroke:#fff;stroke-width:3px;}.cls-1,.cls-2{fill:none;stroke-linecap:round;stroke-linejoin:round;}.cls-3{fill:#9c6bad;}.cls-4{fill:#8f4299;}.cls-5{fill:url(#linear-gradient);}.cls-6{fill:#44285c;}.cls-2{stroke:#8f4299;stroke-width:12px;}</style><linearGradient id="linear-gradient" x1="-262.66" y1="-269.36" x2="-175.65" y2="-269.36" gradientTransform="translate(283.16 330.61)" gradientUnits="userSpaceOnUse"><stop offset="0" stop-color="#56347c"/><stop offset=".04" stop-color="#7a478b"/><stop offset=".08" stop-color="#56347c"/><stop offset=".92" stop-color="#56347c"/><stop offset=".96" stop-color="#44285c"/><stop offset="1" stop-color="#56347c"/></linearGradient></defs><rect class="cls-5" x="20.5" y="42.43" width="87.01" height="37.65" rx="4.59" ry="4.59" transform="translate(128 122.51) rotate(180)"/><rect class="cls-4" x="20.5" y="59.77" width="87.01" height="57.4" rx="4.59" ry="4.59"/><path class="cls-2" d="M93.54,50.43v-10.07c0-16.31-13.22-29.54-29.54-29.54s-29.54,13.22-29.54,29.54v10.07"/><path class="cls-1" d="M64,10.83c-16.31,0-29.54,13.22-29.54,29.54"/><g><path class="cls-6" d="M57.71,105.62c-.9,0-1.74-.44-2.25-1.19s-.61-1.69-.28-2.53l4.63-11.64c.09-.22-.05-.42-.23-.51-3.37-1.7-5.49-5.23-5.4-9,.12-5.13,4.4-9.43,9.53-9.57h.28c5.41,0,9.82,4.4,9.82,9.81,0,3.73-2.07,7.08-5.4,8.76-.18,.09-.32,.3-.23,.51l4.63,11.64c.33,.84,.23,1.78-.28,2.53s-1.34,1.19-2.25,1.19h-12.58Z"/><path class="cls-3" d="M64,72.17c4.87,0,8.82,3.95,8.82,8.82,0,3.44-1.98,6.42-4.85,7.87-.66,.33-.98,1.09-.71,1.77l4.63,11.64c.45,1.12-.38,2.35-1.59,2.35h-12.58c-1.21,0-2.04-1.22-1.59-2.35l4.63-11.64c.27-.68-.05-1.44-.71-1.77-2.94-1.48-4.94-4.55-4.85-8.09,.11-4.61,3.95-8.47,8.56-8.6,.09,0,.17,0,.26,0m0-2c-.1,0-.21,0-.31,0-5.66,.16-10.37,4.89-10.5,10.55-.09,3.98,2.05,7.73,5.5,9.68l-4.43,11.13c-.46,1.15-.31,2.44,.38,3.46,.69,1.02,1.84,1.63,3.07,1.63h12.58c1.23,0,2.38-.61,3.07-1.63,.69-1.02,.83-2.31,.38-3.46l-4.43-11.13c3.41-1.92,5.5-5.48,5.5-9.42,0-5.96-4.85-10.82-10.82-10.82h0Z"/></g></svg>