<?xml version="1.0" encoding="UTF-8" standalone="no"?>
<svg
   xmlns:dc="http://purl.org/dc/elements/1.1/"
   xmlns:cc="http://creativecommons.org/ns#"
   xmlns:rdf="http://www.w3.org/1999/02/22-rdf-syntax-ns#"
   xmlns:svg="http://www.w3.org/2000/svg"
   xmlns="http://www.w3.org/2000/svg"
   xmlns:sodipodi="http://sodipodi.sourceforge.net/DTD/sodipodi-0.dtd"
   xmlns:inkscape="http://www.inkscape.org/namespaces/inkscape"
   version="1.1"
   x="0px"
   y="0px"
   viewBox="0 0 29.999999 24.393761"
   xml:space="preserve"
   id="svg2498"
   sodipodi:docname="twitter.svg"
   inkscape:version="1.0.2 (e86c870879, 2021-01-15)"
   width="30"
   height="24.393761"><metadata
   id="metadata2504"><rdf:RDF><cc:Work
       rdf:about=""><dc:format>image/svg+xml</dc:format><dc:type
         rdf:resource="http://purl.org/dc/dcmitype/StillImage" /><dc:title></dc:title></cc:Work></rdf:RDF></metadata><defs
   id="defs2502" /><sodipodi:namedview
   pagecolor="#ffffff"
   bordercolor="#666666"
   borderopacity="1"
   objecttolerance="10"
   gridtolerance="10"
   guidetolerance="10"
   inkscape:pageopacity="0"
   inkscape:pageshadow="2"
   inkscape:window-width="1680"
   inkscape:window-height="986"
   id="namedview2500"
   showgrid="false"
   inkscape:zoom="1.0054358"
   inkscape:cx="124.89998"
   inkscape:cy="101.6"
   inkscape:window-x="0"
   inkscape:window-y="0"
   inkscape:window-maximized="1"
   inkscape:current-layer="g2495"
   fit-margin-top="0"
   fit-margin-left="0"
   fit-margin-right="0"
   fit-margin-bottom="0"
   inkscape:document-rotation="0" />
<style
   type="text/css"
   id="style2488">
	.st0{opacity:0.15;fill:#292F33;}
	.st1{fill:#FFFFFF;}
</style>

<g
   id="Logo__x2014__FIXED"
   transform="translate(-75.10002,-98.4)">
	<g
   id="g2495">
		<path
   class="st1"
   d="m 84.523785,122.79376 c 11.320527,0 17.515005,-9.38776 17.515005,-17.51501 0,-0.2641 0,-0.52821 -0.012,-0.79231 1.20048,-0.86435 2.2449,-1.95679 3.07323,-3.19328 -1.10444,0.49219 -2.29292,0.81632 -3.54142,0.97238 1.27251,-0.7563 2.2449,-1.96878 2.71309,-3.409358 -1.18848,0.70828 -2.50901,1.212488 -3.91357,1.488588 C 99.229668,99.144297 97.633032,98.4 95.868324,98.4 c -3.397356,0 -6.15846,2.7611 -6.15846,6.15846 0,0.48019 0.06002,0.94838 0.156063,1.40456 -5.114046,-0.2521 -9.651862,-2.71308 -12.689077,-6.43457 -0.528211,0.91237 -0.828331,1.96879 -0.828331,3.09724 0,2.13685 1.092437,4.02161 2.737095,5.12605 -1.008403,-0.036 -1.956783,-0.31213 -2.785114,-0.76831 0,0.024 0,0.048 0,0.084 0,2.97719 2.12485,5.47419 4.933973,6.03841 -0.516206,0.14406 -1.056422,0.21609 -1.620648,0.21609 -0.396158,0 -0.780312,-0.036 -1.15246,-0.10805 0.780312,2.44899 3.061224,4.22569 5.7503,4.27371 -2.112845,1.65667 -4.765907,2.64106 -7.647059,2.64106 -0.492197,0 -0.984394,-0.024 -1.464586,-0.084 2.713085,1.72869 5.954381,2.7491 9.423771,2.7491"
   id="path2493"
   style="fill:#f9f9f9;fill-opacity:1;stroke-width:0.120048"
   inkscape:connector-curvature="0" />
	</g>
</g>
</svg>
