<?xml version="1.0" encoding="UTF-8" standalone="no"?>
<svg
   xmlns:dc="http://purl.org/dc/elements/1.1/"
   xmlns:cc="http://creativecommons.org/ns#"
   xmlns:rdf="http://www.w3.org/1999/02/22-rdf-syntax-ns#"
   xmlns:svg="http://www.w3.org/2000/svg"
   xmlns="http://www.w3.org/2000/svg"
   viewBox="0 0 1280 549.03998"
   version="1.1"
   id="svg1457"
   width="1280"
   height="549.03998">
  <metadata
     id="metadata1461">
    <rdf:RDF>
      <cc:Work
         rdf:about="">
        <dc:format>image/svg+xml</dc:format>
        <dc:type
           rdf:resource="http://purl.org/dc/dcmitype/StillImage" />
        <dc:title>unsafebrowser</dc:title>
      </cc:Work>
    </rdf:RDF>
  </metadata>
  <defs
     id="defs1176">
    <style
       id="style1174">.cls-1{fill:#d6d7d9;}.cls-2{fill:#fff;}.cls-3{fill:#af97c7;}.cls-4,.cls-7{fill:none;}.cls-4{stroke:#b5b7b9;stroke-linecap:round;stroke-linejoin:round;stroke-width:2px;}.cls-5{fill:#393a35;}.cls-6{fill:#53b351;}.cls-7{stroke:#fff;stroke-miterlimit:10;}</style>
  </defs>
  <title
     id="title1178">unsafebrowser</title>
  <path
     class="cls-1"
     d="M 1272,74.71 V 541.04 H 8 V 74.71 h 1264 m 0,-8 H 8 a 8,8 0 0 0 -8,8 v 466.33 a 8,8 0 0 0 8,8 h 1264 a 8,8 0 0 0 8,-8 V 74.71 a 8,8 0 0 0 -8,-8 z"
     id="path1180" />
  <rect
     class="cls-1"
     x="1233.84"
     y="74.709999"
     width="38.139999"
     height="466.32999"
     id="rect1182" />
  <polygon
     class="cls-2"
     points="1564.55,363.43 1581.25,363.43 1572.9,350.19 1564.55,363.43 "
     id="polygon1184"
     transform="translate(-320,-265.48)" />
  <rect
     class="cls-2"
     x="-1256.4601"
     y="-374.60995"
     width="7.1100001"
     height="262.57001"
     rx="3.5599999"
     transform="scale(-1)"
     id="rect1186"
     ry="3.5599999" />
  <polygon
     class="cls-2"
     points="1581.25,790.34 1564.55,790.34 1572.9,803.57 1581.25,790.34 "
     id="polygon1188"
     transform="translate(-320,-265.48)" />
  <path
     class="cls-3"
     d="m 196,383.25 -28.26,-28.26 h 3 a 20.49,20.49 0 0 0 20.44,-20.47 V 256.63 A 20.49,20.49 0 0 0 170.69,236.14 H 113.2 a 20.49,20.49 0 0 0 -20.49,20.49 v 77.89 a 20.49,20.49 0 0 0 20.49,20.49 h 3 l -28.3,28.24 a 4.5,4.5 0 1 0 6.36,6.36 l 34.62,-34.62 H 155 l 34.62,34.62 a 4.5,4.5 0 0 0 6.36,-6.36 z m -30.25,-53.53 a 8.45,8.45 0 1 1 8.46,-8.45 8.45,8.45 0 0 1 -8.46,8.45 z m -54.93,-61.37 a 8.21,8.21 0 0 1 8.2,-8.21 h 47 a 8.22,8.22 0 0 1 8.21,8.21 v 19 a 8.21,8.21 0 0 1 -8.23,8.17 h -47 a 8.2,8.2 0 0 1 -8.2,-8.2 z m 0,52.92 a 8.45,8.45 0 1 1 8.45,8.45 8.45,8.45 0 0 1 -8.45,-8.45 z"
     id="path1190" />
  <circle
     class="cls-3"
     cx="141.94"
     cy="211.02"
     r="11.12"
     id="circle1192" />
  <path
     class="cls-3"
     d="m 142,181.36 a 29.73,29.73 0 0 0 -24.15,12.44 4.94,4.94 0 1 0 8,5.74 19.79,19.79 0 0 1 32.21,0 4.94,4.94 0 1 0 8,-5.74 A 29.73,29.73 0 0 0 142,181.36 Z"
     id="path1194" />
  <path
     class="cls-3"
     d="m 142,162.83 a 48.3,48.3 0 0 0 -35.86,16 5,5 0 0 0 0.38,7 4.89,4.89 0 0 0 3.3,1.26 5,5 0 0 0 3.68,-1.63 38.28,38.28 0 0 1 57,0 4.95,4.95 0 0 0 7.36,-6.61 A 48.29,48.29 0 0 0 142,162.83 Z"
     id="path1196" />
  <path
     class="cls-3"
     d="m 189.56,164.28 a 66.7,66.7 0 0 0 -95.23,0 4.94,4.94 0 0 0 3.53,8.4 4.88,4.88 0 0 0 3.52,-1.48 56.85,56.85 0 0 1 81.13,0 4.94,4.94 0 1 0 7.05,-6.92 z"
     id="path1198" />
  <path
     class="cls-1"
     d="M 1272,8 V 74.71 H 8 V 8 h 1264 m 0,-8 H 8 A 8,8 0 0 0 0,8 v 66.71 a 8,8 0 0 0 8,8 h 1264 a 8,8 0 0 0 8,-8 V 8 a 8,8 0 0 0 -8,-8 z"
     id="path1200" />
  <polygon
     class="cls-4"
     points="370.69,313.85 370.69,290.58 352.25,302.22 370.69,313.85 "
     id="polygon1202"
     transform="translate(-320,-265.48)" />
  <polygon
     class="cls-4"
     points="403.92,290.58 403.92,313.85 422.36,302.22 403.92,290.58 "
     id="polygon1204"
     transform="translate(-320,-265.48)" />
  <path
     class="cls-4"
     d="m 141.19,26.2 a 10.54,10.54 0 1 0 10.53,10.54"
     id="path1206" />
  <rect
     class="cls-4"
     x="334.83002"
     y="22.53001"
     width="610.34998"
     height="29.620001"
     rx="7.0999999"
     id="rect1208"
     ry="7.0999999" />
  <polyline
     class="cls-4"
     points="1481.46 294.93 1481.46 294.93 1490.66 309.5 1499.86 294.93"
     id="polyline1210"
     transform="translate(-320,-265.48)" />
  <line
     class="cls-4"
     x1="1233.33"
     y1="29.049999"
     x2="1248.7"
     y2="44.419994"
     id="line1212" />
  <line
     class="cls-4"
     x1="1248.7"
     y1="29.049999"
     x2="1233.33"
     y2="44.419994"
     id="line1214" />
  <rect
     class="cls-4"
     x="1198.15"
     y="29.049999"
     width="15.37"
     height="15.37"
     id="rect1216" />
  <path
     class="cls-5"
     d="M 393.78,158.11 H 422 v 7 h -19.93 v 13.23 h 17 v 7 h -17 v 19.52 h -8.29 z"
     id="path1218" />
  <path
     class="cls-5"
     d="m 428.1,169.76 h 6.79 l 0.57,6.22 h 0.29 a 14.69,14.69 0 0 1 4.5,-5.25 9.47,9.47 0 0 1 5.44,-1.83 9.32,9.32 0 0 1 4,0.72 l -1.43,7.15 a 14.25,14.25 0 0 0 -1.71,-0.43 10.67,10.67 0 0 0 -1.93,-0.14 7.68,7.68 0 0 0 -4.37,1.6 12.56,12.56 0 0 0 -3.93,5.62 v 21.45 h -8.22 z"
     id="path1220" />
  <path
     class="cls-5"
     d="m 469.07,205.72 a 18.15,18.15 0 0 1 -6.8,-1.25 16,16 0 0 1 -5.5,-3.61 16.47,16.47 0 0 1 -3.68,-5.75 21.32,21.32 0 0 1 -1.33,-7.76 20.94,20.94 0 0 1 1.36,-7.72 17.75,17.75 0 0 1 3.61,-5.79 16,16 0 0 1 5.19,-3.65 14.73,14.73 0 0 1 6,-1.29 15.33,15.33 0 0 1 6.3,1.22 12.29,12.29 0 0 1 4.54,3.43 15.2,15.2 0 0 1 2.75,5.29 23.13,23.13 0 0 1 0.93,6.72 c 0,0.81 0,1.57 -0.11,2.29 a 14.21,14.21 0 0 1 -0.25,1.72 h -22.31 a 11.3,11.3 0 0 0 3.33,7.25 10,10 0 0 0 7,2.54 13,13 0 0 0 4.25,-0.68 18.87,18.87 0 0 0 3.9,-1.89 l 2.79,5.14 a 24.93,24.93 0 0 1 -5.58,2.72 19.24,19.24 0 0 1 -6.39,1.07 z m 6.22,-21.73 a 10.46,10.46 0 0 0 -1.75,-6.4 6.33,6.33 0 0 0 -5.4,-2.32 7.83,7.83 0 0 0 -5.51,2.21 10.53,10.53 0 0 0 -2.93,6.51 z"
     id="path1222" />
  <path
     class="cls-5"
     d="m 505.32,205.72 a 18.15,18.15 0 0 1 -6.8,-1.25 16,16 0 0 1 -5.5,-3.61 16.47,16.47 0 0 1 -3.68,-5.75 22.94,22.94 0 0 1 0,-15.48 17.75,17.75 0 0 1 3.61,-5.79 15.88,15.88 0 0 1 5.19,-3.65 14.73,14.73 0 0 1 6,-1.29 15.25,15.25 0 0 1 6.29,1.22 12.13,12.13 0 0 1 4.57,3.4 15.05,15.05 0 0 1 2.76,5.29 23.13,23.13 0 0 1 0.93,6.72 c 0,0.81 0,1.57 -0.11,2.29 a 16.54,16.54 0 0 1 -0.25,1.72 H 496 a 11.3,11.3 0 0 0 3.33,7.25 10,10 0 0 0 7,2.54 13,13 0 0 0 4.25,-0.68 18.87,18.87 0 0 0 3.9,-1.89 l 2.79,5.14 a 24.93,24.93 0 0 1 -5.58,2.72 19.24,19.24 0 0 1 -6.37,1.1 z m 6.22,-21.73 a 10.46,10.46 0 0 0 -1.75,-6.4 6.33,6.33 0 0 0 -5.4,-2.32 7.82,7.82 0 0 0 -5.51,2.21 10.53,10.53 0 0 0 -2.93,6.51 z"
     id="path1224" />
  <path
     class="cls-5"
     d="m 536.92,158.11 h 8.51 l 4.07,23.59 q 0.57,3.79 1.15,7.51 l 1.14,7.43 h 0.29 c 0.52,-2.47 1,-5 1.53,-7.47 0.53,-2.47 1,-5 1.54,-7.47 l 5.72,-23.59 h 7.22 l 5.72,23.59 c 0.53,2.43 1.05,4.9 1.58,7.4 0.53,2.5 1,5 1.57,7.54 h 0.28 q 0.57,-3.78 1.11,-7.5 0.54,-3.72 1.11,-7.44 l 4.08,-23.59 h 7.93 l -8.94,46.76 h -10.29 l -5.79,-24.6 c -0.39,-1.81 -0.75,-3.61 -1.11,-5.4 -0.36,-1.79 -0.68,-3.58 -1,-5.4 h -0.28 c -0.34,1.82 -0.68,3.62 -1,5.4 -0.32,1.78 -0.73,3.59 -1.11,5.4 l -5.65,24.6 h -10.09 z"
     id="path1226" />
  <path
     class="cls-5"
     d="m 602.2,163.61 a 5.24,5.24 0 0 1 -3.65,-1.29 4.3,4.3 0 0 1 -1.43,-3.36 4.42,4.42 0 0 1 1.43,-3.39 5.69,5.69 0 0 1 7.29,0 4.38,4.38 0 0 1 1.43,3.39 4.26,4.26 0 0 1 -1.43,3.36 5.23,5.23 0 0 1 -3.64,1.29 z m -4.15,6.15 h 8.22 v 35.11 h -8.22 z"
     id="path1228" />
  <path
     class="cls-5"
     d="m 614.56,183.85 h 17 v 6 h -17 z"
     id="path1230" />
  <path
     class="cls-5"
     d="m 640.52,158.11 h 28.24 v 7 h -20 v 13.23 h 17 v 7 h -17 v 19.52 h -8.29 z"
     id="path1232" />
  <path
     class="cls-5"
     d="m 680.41,163.61 a 5.23,5.23 0 0 1 -3.64,-1.29 4.26,4.26 0 0 1 -1.43,-3.36 4.38,4.38 0 0 1 1.43,-3.39 5.69,5.69 0 0 1 7.29,0 4.42,4.42 0 0 1 1.43,3.39 4.3,4.3 0 0 1 -1.43,3.36 5.24,5.24 0 0 1 -3.65,1.29 z m -4.14,6.15 h 8.22 v 35.11 h -8.22 z"
     id="path1234" />
  <path
     class="cls-5"
     d="m 709.3,154.39 h 8.22 v 13 l -0.28,6.79 a 28.84,28.84 0 0 1 4.89,-3.68 12.11,12.11 0 0 1 6.33,-1.61 c 3.77,0 6.51,1.21 8.22,3.61 1.71,2.4 2.58,5.85 2.58,10.33 v 22 H 731 v -21 q 0,-4.36 -1.29,-6.15 a 4.86,4.86 0 0 0 -4.22,-1.79 7.38,7.38 0 0 0 -4,1.11 25.81,25.81 0 0 0 -4,3.25 v 24.53 h -8.22 z"
     id="path1236" />
  <path
     class="cls-5"
     d="m 763.57,205.72 a 16.57,16.57 0 0 1 -6.29,-1.21 15.51,15.51 0 0 1 -5.33,-3.58 17,17 0 0 1 -3.68,-5.79 23,23 0 0 1 0,-15.58 17.09,17.09 0 0 1 3.68,-5.8 16.2,16.2 0 0 1 11.62,-4.86 16.49,16.49 0 0 1 6.32,1.25 15.68,15.68 0 0 1 5.33,3.61 17.88,17.88 0 0 1 3.68,5.8 22.37,22.37 0 0 1 0,15.58 17.73,17.73 0 0 1 -3.68,5.79 15.05,15.05 0 0 1 -5.33,3.58 16.83,16.83 0 0 1 -6.32,1.21 z m 0,-6.72 a 7,7 0 0 0 6.07,-3.18 14.52,14.52 0 0 0 2.22,-8.47 14.71,14.71 0 0 0 -2.22,-8.55 7,7 0 0 0 -6.07,-3.18 6.92,6.92 0 0 0 -6,3.18 c -1.46,2.13 -2.18,5 -2.18,8.55 a 14.67,14.67 0 0 0 2.18,8.47 6.92,6.92 0 0 0 6,3.18 z"
     id="path1238" />
  <path
     class="cls-5"
     d="m 799.25,205.72 a 13.06,13.06 0 0 1 -5.19,-0.92 8.75,8.75 0 0 1 -3.43,-2.62 10.65,10.65 0 0 1 -1.93,-4 20.28,20.28 0 0 1 -0.61,-5.18 v -16.73 h -5 v -6.15 l 5.43,-0.36 1,-9.58 h 6.87 v 9.58 h 8.93 v 6.51 h -8.93 V 193 q 0,6.15 4.93,6.15 a 8.25,8.25 0 0 0 1.89,-0.22 8.65,8.65 0 0 0 1.76,-0.57 l 1.43,6.08 a 27.94,27.94 0 0 1 -3.26,0.89 18.52,18.52 0 0 1 -3.89,0.39 z"
     id="path1240" />
  <path
     class="cls-5"
     d="m 821.77,205.72 a 19.47,19.47 0 0 1 -7.19,-1.39 22.93,22.93 0 0 1 -6.11,-3.47 l 3.86,-5.29 a 22.16,22.16 0 0 0 4.67,2.95 12.25,12.25 0 0 0 5,1 6.29,6.29 0 0 0 4.22,-1.18 3.8,3.8 0 0 0 1.36,-3 3,3 0 0 0 -0.64,-1.9 6.14,6.14 0 0 0 -1.72,-1.47 16.18,16.18 0 0 0 -2.43,-1.17 c -0.91,-0.36 -1.81,-0.73 -2.72,-1.11 -1.14,-0.43 -2.31,-0.93 -3.5,-1.5 a 14.43,14.43 0 0 1 -3.18,-2.08 10.55,10.55 0 0 1 -2.29,-2.82 7.72,7.72 0 0 1 -0.89,-3.83 9.5,9.5 0 0 1 3.43,-7.58 q 3.43,-2.93 9.36,-2.93 a 16.13,16.13 0 0 1 6.58,1.29 24.3,24.3 0 0 1 5.08,2.93 l -3.79,5 a 19.05,19.05 0 0 0 -3.75,-2.18 9.88,9.88 0 0 0 -4,-0.83 5.77,5.77 0 0 0 -3.9,1.11 3.55,3.55 0 0 0 -1.25,2.75 2.79,2.79 0 0 0 0.61,1.83 5.51,5.51 0 0 0 1.61,1.32 15.8,15.8 0 0 0 2.32,1.07 c 0.88,0.34 1.8,0.67 2.75,1 1.19,0.43 2.39,0.92 3.58,1.47 a 14.85,14.85 0 0 1 3.25,2 9.37,9.37 0 0 1 2.36,3 9.09,9.09 0 0 1 0.89,4.19 10.09,10.09 0 0 1 -0.89,4.25 9.86,9.86 0 0 1 -2.61,3.43 12.73,12.73 0 0 1 -4.29,2.33 18.54,18.54 0 0 1 -5.78,0.81 z"
     id="path1242" />
  <path
     class="cls-5"
     d="m 842.79,169.76 h 6.79 l 0.57,3.72 h 0.29 a 25.39,25.39 0 0 1 4.93,-3.22 12.57,12.57 0 0 1 5.65,-1.36 13.08,13.08 0 0 1 5.83,1.25 12.16,12.16 0 0 1 4.32,3.61 16.78,16.78 0 0 1 2.72,5.65 27.12,27.12 0 0 1 0.93,7.37 24.15,24.15 0 0 1 -1.25,8 18.28,18.28 0 0 1 -3.33,5.94 14.62,14.62 0 0 1 -4.79,3.68 13,13 0 0 1 -5.64,1.28 11.31,11.31 0 0 1 -4.58,-1 17.2,17.2 0 0 1 -4.43,-2.86 l 0.21,5.87 v 11 h -8.22 z m 15.3,29.17 a 7.14,7.14 0 0 0 5.86,-3 c 1.58,-2 2.36,-5 2.36,-9 0,-3.53 -0.59,-6.27 -1.79,-8.22 a 6.25,6.25 0 0 0 -5.79,-2.94 c -2.48,0 -5,1.32 -7.72,3.94 v 16.37 a 12.31,12.31 0 0 0 3.72,2.29 9.89,9.89 0 0 0 3.36,0.56 z"
     id="path1244" />
  <path
     class="cls-5"
     d="m 897.49,205.72 a 16.66,16.66 0 0 1 -6.3,-1.21 15.57,15.57 0 0 1 -5.32,-3.58 17.12,17.12 0 0 1 -3.69,-5.79 23.15,23.15 0 0 1 0,-15.58 17.26,17.26 0 0 1 3.69,-5.8 16.16,16.16 0 0 1 11.62,-4.86 16.49,16.49 0 0 1 6.32,1.25 15.78,15.78 0 0 1 5.33,3.61 17.88,17.88 0 0 1 3.68,5.8 22.37,22.37 0 0 1 0,15.58 17.73,17.73 0 0 1 -3.68,5.79 15.14,15.14 0 0 1 -5.33,3.58 16.83,16.83 0 0 1 -6.32,1.21 z m 0,-6.72 a 7,7 0 0 0 6.07,-3.18 14.52,14.52 0 0 0 2.22,-8.47 14.71,14.71 0 0 0 -2.22,-8.55 7.36,7.36 0 0 0 -12.12,0 14.94,14.94 0 0 0 -2.18,8.55 14.75,14.75 0 0 0 2.18,8.47 6.94,6.94 0 0 0 6.05,3.18 z"
     id="path1246" />
  <path
     class="cls-5"
     d="m 933.16,205.72 a 13,13 0 0 1 -5.18,-0.92 8.67,8.67 0 0 1 -3.43,-2.62 10.65,10.65 0 0 1 -1.93,-4 20.28,20.28 0 0 1 -0.61,-5.18 v -16.73 h -5 v -6.15 l 5.43,-0.36 1,-9.58 h 6.86 v 9.58 h 8.94 v 6.51 H 930.3 V 193 q 0,6.15 4.94,6.15 a 8.25,8.25 0 0 0 1.89,-0.22 8.36,8.36 0 0 0 1.75,-0.57 l 1.43,6.08 a 27.21,27.21 0 0 1 -3.25,0.89 18.55,18.55 0 0 1 -3.9,0.39 z"
     id="path1248" />
  <rect
     class="cls-6"
     x="576.15997"
     y="416.35001"
     width="176.91"
     height="64.32"
     rx="14.17"
     id="rect1250"
     ry="14.17"
     style="fill:#af97c7;fill-opacity:1" />
  <path
     class="cls-5"
     d="m 616.57,457.23 a 8.58,8.58 0 0 1 -3.57,-0.71 8,8 0 0 1 -2.8,-2.06 9.38,9.38 0 0 1 -1.86,-3.32 13.62,13.62 0 0 1 -0.67,-4.44 13.47,13.47 0 0 1 0.68,-4.41 10,10 0 0 1 1.89,-3.31 8.32,8.32 0 0 1 2.86,-2.1 8.82,8.82 0 0 1 3.59,-0.72 6.75,6.75 0 0 1 3.27,0.76 8.46,8.46 0 0 1 2.31,1.75 l -1.39,1.67 a 6.62,6.62 0 0 0 -1.83,-1.39 5.06,5.06 0 0 0 -2.33,-0.53 5.94,5.94 0 0 0 -2.63,0.57 5.62,5.62 0 0 0 -2,1.65 7.43,7.43 0 0 0 -1.28,2.58 12,12 0 0 0 -0.45,3.41 12.24,12.24 0 0 0 0.45,3.46 8,8 0 0 0 1.25,2.62 5.54,5.54 0 0 0 2,1.67 5.61,5.61 0 0 0 2.62,0.59 5.4,5.4 0 0 0 2.6,-0.6 8,8 0 0 0 2.11,-1.69 l 1.43,1.61 a 9.18,9.18 0 0 1 -2.73,2.17 7.55,7.55 0 0 1 -3.52,0.77 z"
     id="path1252"
     style="fill:#ffffff" />
  <path
     class="cls-5"
     d="m 632.19,457.23 a 6.81,6.81 0 0 1 -2.65,-0.53 6.5,6.5 0 0 1 -2.22,-1.53 7.48,7.48 0 0 1 -1.53,-2.49 10.1,10.1 0 0 1 0,-6.69 7.63,7.63 0 0 1 1.53,-2.5 6.42,6.42 0 0 1 2.22,-1.55 7,7 0 0 1 5.3,0 6.42,6.42 0 0 1 2.22,1.55 7.63,7.63 0 0 1 1.53,2.5 9.94,9.94 0 0 1 0,6.69 7.48,7.48 0 0 1 -1.53,2.49 6.5,6.5 0 0 1 -2.22,1.53 6.81,6.81 0 0 1 -2.65,0.53 z m 0,-2.11 a 3.79,3.79 0 0 0 1.77,-0.42 4.18,4.18 0 0 0 1.38,-1.18 5.76,5.76 0 0 0 0.88,-1.81 8.23,8.23 0 0 0 0.31,-2.36 8.35,8.35 0 0 0 -0.31,-2.37 5.82,5.82 0 0 0 -0.88,-1.84 4.13,4.13 0 0 0 -1.38,-1.2 3.94,3.94 0 0 0 -3.54,0 4.13,4.13 0 0 0 -1.38,1.2 5.82,5.82 0 0 0 -0.88,1.84 8.35,8.35 0 0 0 -0.31,2.37 8.23,8.23 0 0 0 0.31,2.36 5.76,5.76 0 0 0 0.84,1.81 4.18,4.18 0 0 0 1.38,1.18 3.79,3.79 0 0 0 1.81,0.42 z"
     id="path1254"
     style="fill:#ffffff" />
  <path
     class="cls-5"
     d="m 643.13,441.79 h 2.11 l 0.22,2.17 h 0.09 a 12.39,12.39 0 0 1 2.28,-1.82 5.27,5.27 0 0 1 2.77,-0.72 4,4 0 0 1 3.49,1.48 7.41,7.41 0 0 1 1.1,4.41 v 9.54 h -2.54 v -9.2 a 5.43,5.43 0 0 0 -0.65,-3.13 2.5,2.5 0 0 0 -2.17,-0.94 3.65,3.65 0 0 0 -2.08,0.59 13.24,13.24 0 0 0 -2,1.73 v 10.91 h -2.55 z"
     id="path1256"
     style="fill:#ffffff" />
  <path
     class="cls-5"
     d="m 660.09,441.79 h 2.11 l 0.22,2.17 h 0.09 a 12.39,12.39 0 0 1 2.28,-1.82 5.25,5.25 0 0 1 2.77,-0.72 4.07,4.07 0 0 1 3.49,1.48 7.41,7.41 0 0 1 1.1,4.41 v 9.54 h -2.54 v -9.2 a 5.43,5.43 0 0 0 -0.68,-3.09 2.5,2.5 0 0 0 -2.17,-0.94 3.65,3.65 0 0 0 -2.08,0.59 13.74,13.74 0 0 0 -2,1.73 v 10.91 h -2.54 z"
     id="path1258"
     style="fill:#ffffff" />
  <path
     class="cls-5"
     d="m 683.15,457.23 a 7.39,7.39 0 0 1 -2.83,-0.55 6.68,6.68 0 0 1 -2.3,-1.55 7.13,7.13 0 0 1 -1.53,-2.46 9.28,9.28 0 0 1 -0.56,-3.32 9.15,9.15 0 0 1 0.57,-3.33 8.08,8.08 0 0 1 1.5,-2.5 6.55,6.55 0 0 1 2.16,-1.56 6.06,6.06 0 0 1 2.51,-0.54 6.35,6.35 0 0 1 2.56,0.49 5,5 0 0 1 1.89,1.43 6.65,6.65 0 0 1 1.16,2.23 9.8,9.8 0 0 1 0.4,2.91 c 0,0.27 0,0.54 0,0.79 a 3.84,3.84 0 0 1 -0.08,0.67 h -10.16 a 5.92,5.92 0 0 0 1.51,3.83 4.64,4.64 0 0 0 3.51,1.41 5.83,5.83 0 0 0 2,-0.33 8.64,8.64 0 0 0 1.76,-0.85 l 0.89,1.68 a 12.86,12.86 0 0 1 -2.2,1.08 7.6,7.6 0 0 1 -2.76,0.47 z m 3.32,-9.12 a 5.36,5.36 0 0 0 -1,-3.49 3.35,3.35 0 0 0 -2.74,-1.19 3.77,3.77 0 0 0 -1.53,0.31 3.94,3.94 0 0 0 -1.32,0.92 5,5 0 0 0 -1,1.47 6.53,6.53 0 0 0 -0.51,2 z"
     id="path1260"
     style="fill:#ffffff" />
  <path
     class="cls-5"
     d="m 698.37,457.23 a 7.41,7.41 0 0 1 -2.79,-0.53 6.3,6.3 0 0 1 -2.24,-1.53 7.25,7.25 0 0 1 -1.49,-2.49 9.61,9.61 0 0 1 -0.54,-3.33 9,9 0 0 1 0.58,-3.36 7.59,7.59 0 0 1 1.59,-2.5 6.58,6.58 0 0 1 2.31,-1.55 7.37,7.37 0 0 1 2.77,-0.52 5.64,5.64 0 0 1 2.54,0.52 8.86,8.86 0 0 1 1.86,1.24 l -1.3,1.68 a 5.72,5.72 0 0 0 -1.38,-1 3.5,3.5 0 0 0 -1.63,-0.38 4.23,4.23 0 0 0 -3.38,1.62 6,6 0 0 0 -1,1.84 7.37,7.37 0 0 0 -0.36,2.37 7.56,7.56 0 0 0 0.34,2.36 5.66,5.66 0 0 0 1,1.81 4.11,4.11 0 0 0 1.47,1.18 4.29,4.29 0 0 0 1.89,0.42 4.23,4.23 0 0 0 1.94,-0.45 8.12,8.12 0 0 0 1.6,-1.07 l 1.11,1.7 a 8.08,8.08 0 0 1 -2.26,1.41 6.65,6.65 0 0 1 -2.63,0.56 z"
     id="path1262"
     style="fill:#ffffff" />
  <path
     class="cls-5"
     d="m 711,457.23 a 4.87,4.87 0 0 1 -2,-0.38 3.41,3.41 0 0 1 -1.33,-1 3.91,3.91 0 0 1 -0.73,-1.58 8.71,8.71 0 0 1 -0.22,-2.05 v -8.34 h -2.23 v -1.92 l 2.36,-0.15 0.31,-4.22 h 2.14 v 4.22 h 4.06 v 2.07 h -4.06 v 8.38 a 3.84,3.84 0 0 0 0.51,2.15 2,2 0 0 0 1.81,0.76 3.11,3.11 0 0 0 0.87,-0.13 6.93,6.93 0 0 0 0.84,-0.27 l 0.49,1.92 q -0.62,0.21 -1.35,0.39 a 6.44,6.44 0 0 1 -1.47,0.15 z"
     id="path1264"
     style="fill:#ffffff" />
  <path
     class="cls-5"
     d="m 718.68,457.23 a 1.8,1.8 0 0 1 -1.32,-0.55 1.87,1.87 0 0 1 -0.54,-1.38 2,2 0 0 1 0.54,-1.44 1.8,1.8 0 0 1 1.32,-0.54 1.78,1.78 0 0 1 1.29,0.54 2,2 0 0 1 0.54,1.44 1.87,1.87 0 0 1 -0.54,1.38 1.79,1.79 0 0 1 -1.29,0.55 z M 717.44,439 717.38,436.09 H 720 l -0.06,2.91 -0.34,11.72 h -1.77 z"
     id="path1266"
     style="fill:#ffffff" />
  <path
     class="cls-5"
     d="m 505.51,368.26 h 2.08 v 16.4 h -2.08 z"
     id="path1268" />
  <path
     class="cls-5"
     d="m 519.69,384.96 a 3.67,3.67 0 0 1 -2.54,-0.9 3.22,3.22 0 0 1 -1,-2.55 3.38,3.38 0 0 1 1.77,-3.06 14.57,14.57 0 0 1 5.68,-1.49 5.19,5.19 0 0 0 -0.12,-1.12 2.75,2.75 0 0 0 -0.38,-1 2.15,2.15 0 0 0 -0.77,-0.69 2.61,2.61 0 0 0 -1.23,-0.26 4.9,4.9 0 0 0 -2,0.4 9.84,9.84 0 0 0 -1.65,0.9 l -0.8,-1.42 a 12.9,12.9 0 0 1 2.08,-1.07 6.91,6.91 0 0 1 2.7,-0.51 3.73,3.73 0 0 1 3.22,1.36 6,6 0 0 1 1,3.64 v 7.45 H 524 l -0.17,-1.45 h -0.08 a 10.46,10.46 0 0 1 -1.87,1.24 4.69,4.69 0 0 1 -2.19,0.53 z m 0.6,-1.65 a 3.54,3.54 0 0 0 1.65,-0.41 9,9 0 0 0 1.65,-1.21 v -3.38 a 19.23,19.23 0 0 0 -2.57,0.48 6.53,6.53 0 0 0 -1.67,0.65 2.52,2.52 0 0 0 -0.93,0.86 2.05,2.05 0 0 0 -0.28,1.06 1.71,1.71 0 0 0 0.62,1.5 2.56,2.56 0 0 0 1.53,0.45 z"
     id="path1270" />
  <path
     class="cls-5"
     d="m 533.59,390.26 a 9.23,9.23 0 0 1 -2.05,-0.21 5,5 0 0 1 -1.59,-0.64 3.17,3.17 0 0 1 -1,-1 2.62,2.62 0 0 1 -0.36,-1.39 2.58,2.58 0 0 1 0.41,-1.5 4.78,4.78 0 0 1 1.3,-1.27 v -0.11 a 2.33,2.33 0 0 1 -0.77,-0.76 2.26,2.26 0 0 1 -0.31,-1.21 2.16,2.16 0 0 1 0.43,-1.35 3.84,3.84 0 0 1 0.9,-0.9 v -0.1 a 4.82,4.82 0 0 1 -1.05,-1.3 3.72,3.72 0 0 1 -0.5,-2 4.32,4.32 0 0 1 0.36,-1.8 4.16,4.16 0 0 1 1,-1.37 4.54,4.54 0 0 1 1.46,-0.86 5.22,5.22 0 0 1 1.77,-0.3 4.59,4.59 0 0 1 0.93,0.09 6,6 0 0 1 0.79,0.21 h 4.23 v 1.58 H 537 a 3.58,3.58 0 0 1 1,2.5 4.35,4.35 0 0 1 -0.35,1.76 4,4 0 0 1 -1,1.32 4.28,4.28 0 0 1 -1.42,0.84 5,5 0 0 1 -1.73,0.3 4.36,4.36 0 0 1 -0.93,-0.11 4.82,4.82 0 0 1 -0.9,-0.32 3.22,3.22 0 0 0 -0.55,0.62 1.46,1.46 0 0 0 -0.22,0.84 1.19,1.19 0 0 0 0.45,0.95 2.77,2.77 0 0 0 1.7,0.37 h 2.35 a 5.89,5.89 0 0 1 3.18,0.69 2.43,2.43 0 0 1 1.07,2.21 3.19,3.19 0 0 1 -0.43,1.61 4.07,4.07 0 0 1 -1.22,1.34 6.45,6.45 0 0 1 -1.94,0.91 8.82,8.82 0 0 1 -2.47,0.36 z m 0.3,-1.42 a 5.53,5.53 0 0 0 1.58,-0.22 4.29,4.29 0 0 0 1.22,-0.55 2.49,2.49 0 0 0 0.77,-0.78 1.8,1.8 0 0 0 0.28,-0.93 1.19,1.19 0 0 0 -0.63,-1.17 4,4 0 0 0 -1.82,-0.33 h -2.1 a 7.1,7.1 0 0 1 -0.77,0 3.87,3.87 0 0 1 -0.81,-0.16 3.4,3.4 0 0 0 -1,1 2.1,2.1 0 0 0 -0.3,1.05 1.74,1.74 0 0 0 0.94,1.55 5,5 0 0 0 2.64,0.54 z m -0.3,-9.4 a 2.45,2.45 0 0 0 1,-0.2 2.65,2.65 0 0 0 0.83,-0.58 2.54,2.54 0 0 0 0.56,-0.91 3.3,3.3 0 0 0 0.2,-1.21 2.78,2.78 0 0 0 -0.75,-2.09 2.62,2.62 0 0 0 -3.65,0 2.78,2.78 0 0 0 -0.78,2.07 3.53,3.53 0 0 0 0.2,1.21 2.69,2.69 0 0 0 0.56,0.91 2.77,2.77 0 0 0 0.83,0.58 2.54,2.54 0 0 0 1,0.22 z"
     id="path1272" />
  <path
     class="cls-5"
     d="m 542.09,372.52 h 1.7 l 0.17,2.2 H 544 a 5.64,5.64 0 0 1 1.51,-1.83 3.27,3.27 0 0 1 3.24,-0.42 l -0.4,1.8 a 3.85,3.85 0 0 0 -0.55,-0.15 3.65,3.65 0 0 0 -0.63,-0.05 2.7,2.7 0 0 0 -1.61,0.63 4.86,4.86 0 0 0 -1.46,2.17 v 7.8 h -2 z"
     id="path1274" />
  <path
     class="cls-5"
     d="m 555.44,384.96 a 6,6 0 0 1 -2.29,-0.44 5.36,5.36 0 0 1 -1.85,-1.25 5.7,5.7 0 0 1 -1.24,-2 7.49,7.49 0 0 1 -0.45,-2.68 7.37,7.37 0 0 1 0.46,-2.69 6.31,6.31 0 0 1 1.23,-2 5.31,5.31 0 0 1 1.74,-1.26 4.9,4.9 0 0 1 2,-0.44 5,5 0 0 1 2.06,0.4 4.07,4.07 0 0 1 1.53,1.15 5.31,5.31 0 0 1 0.94,1.8 8.14,8.14 0 0 1 0.32,2.35 c 0,0.22 0,0.43 0,0.64 a 3.69,3.69 0 0 1 -0.06,0.54 h -8.2 a 4.71,4.71 0 0 0 1.21,3.08 3.74,3.74 0 0 0 2.84,1.14 4.9,4.9 0 0 0 1.61,-0.26 7.67,7.67 0 0 0 1.41,-0.69 l 0.73,1.35 a 10.93,10.93 0 0 1 -1.78,0.88 6.15,6.15 0 0 1 -2.21,0.38 z m 2.67,-7.35 a 4.32,4.32 0 0 0 -0.79,-2.81 2.69,2.69 0 0 0 -2.21,-1 3.09,3.09 0 0 0 -1.24,0.25 3.25,3.25 0 0 0 -1.06,0.73 4.05,4.05 0 0 0 -0.79,1.19 5.44,5.44 0 0 0 -0.41,1.6 z"
     id="path1276" />
  <path
     class="cls-5"
     d="m 567.84,384.96 a 6,6 0 0 1 -2.29,-0.44 5.36,5.36 0 0 1 -1.85,-1.25 5.7,5.7 0 0 1 -1.24,-2 7.49,7.49 0 0 1 -0.45,-2.68 7.37,7.37 0 0 1 0.46,-2.69 6.31,6.31 0 0 1 1.23,-2 5.31,5.31 0 0 1 1.74,-1.26 4.9,4.9 0 0 1 2,-0.44 5,5 0 0 1 2.06,0.4 4.07,4.07 0 0 1 1.53,1.15 5.31,5.31 0 0 1 0.97,1.77 8.14,8.14 0 0 1 0.32,2.35 c 0,0.22 0,0.43 0,0.64 a 3.69,3.69 0 0 1 -0.06,0.54 H 564 a 4.71,4.71 0 0 0 1.21,3.08 3.74,3.74 0 0 0 2.84,1.14 4.9,4.9 0 0 0 1.61,-0.26 7.67,7.67 0 0 0 1.41,-0.69 l 0.73,1.35 a 10.93,10.93 0 0 1 -1.78,0.88 6.15,6.15 0 0 1 -2.18,0.41 z m 2.67,-7.35 a 4.32,4.32 0 0 0 -0.79,-2.81 2.69,2.69 0 0 0 -2.21,-1 3.09,3.09 0 0 0 -1.24,0.25 3.25,3.25 0 0 0 -1.06,0.73 4.05,4.05 0 0 0 -0.79,1.19 5.44,5.44 0 0 0 -0.41,1.6 z"
     id="path1278" />
  <path
     class="cls-5"
     d="m 584.14,384.96 a 3.94,3.94 0 0 1 -1.64,-0.3 2.87,2.87 0 0 1 -1.08,-0.82 3.2,3.2 0 0 1 -0.58,-1.28 7.07,7.07 0 0 1 -0.18,-1.65 v -6.72 h -1.8 v -1.56 l 1.9,-0.12 0.25,-3.4 h 1.72 v 3.41 H 586 v 1.68 h -3.28 v 6.75 a 3,3 0 0 0 0.42,1.73 1.62,1.62 0 0 0 1.46,0.62 3,3 0 0 0 0.7,-0.1 5.77,5.77 0 0 0 0.67,-0.23 l 0.41,1.55 a 10.07,10.07 0 0 1 -1.09,0.31 5.18,5.18 0 0 1 -1.15,0.13 z"
     id="path1280" />
  <path
     class="cls-5"
     d="m 593.14,384.96 a 5.52,5.52 0 0 1 -2.14,-0.44 5.38,5.38 0 0 1 -1.79,-1.24 6,6 0 0 1 -1.24,-2 8.15,8.15 0 0 1 0,-5.4 6.31,6.31 0 0 1 1.24,-2 5.41,5.41 0 0 1 1.79,-1.25 5.64,5.64 0 0 1 4.27,0 5.41,5.41 0 0 1 1.79,1.25 6.31,6.31 0 0 1 1.24,2 8.15,8.15 0 0 1 0,5.4 6,6 0 0 1 -1.24,2 5.38,5.38 0 0 1 -1.79,1.24 5.47,5.47 0 0 1 -2.13,0.44 z m 0,-1.7 a 3,3 0 0 0 1.42,-0.34 3.24,3.24 0 0 0 1.11,-0.95 4.53,4.53 0 0 0 0.72,-1.46 7,7 0 0 0 0.25,-1.9 7.07,7.07 0 0 0 -0.25,-1.91 4.7,4.7 0 0 0 -0.72,-1.49 3.17,3.17 0 0 0 -1.11,-1 3.16,3.16 0 0 0 -2.85,0 3.17,3.17 0 0 0 -1.11,1 4.48,4.48 0 0 0 -0.71,1.49 6.69,6.69 0 0 0 -0.25,1.91 6.62,6.62 0 0 0 0.25,1.9 4.32,4.32 0 0 0 0.71,1.46 3.24,3.24 0 0 0 1.11,0.95 3,3 0 0 0 1.43,0.34 z"
     id="path1282" />
  <path
     class="cls-5"
     d="m 610.79,384.96 a 4,4 0 0 1 -1.64,-0.3 2.87,2.87 0 0 1 -1.08,-0.82 3.2,3.2 0 0 1 -0.58,-1.28 7.07,7.07 0 0 1 -0.18,-1.65 v -6.72 h -1.8 v -1.56 l 1.9,-0.12 0.25,-3.4 h 1.73 v 3.41 h 3.27 v 1.68 h -3.27 v 6.75 a 3,3 0 0 0 0.41,1.73 1.62,1.62 0 0 0 1.46,0.62 3,3 0 0 0 0.7,-0.1 6.73,6.73 0 0 0 0.68,-0.23 l 0.36,1.55 a 10.07,10.07 0 0 1 -1.09,0.31 5.18,5.18 0 0 1 -1.12,0.13 z"
     id="path1284" />
  <path
     class="cls-5"
     d="m 615.41,366.86 h 2.05 v 4.85 l -0.07,2.5 a 11.27,11.27 0 0 1 1.82,-1.41 4.17,4.17 0 0 1 2.23,-0.59 3.26,3.26 0 0 1 2.81,1.2 5.94,5.94 0 0 1 0.89,3.55 v 7.7 h -2 v -7.42 a 4.41,4.41 0 0 0 -0.55,-2.49 2,2 0 0 0 -1.75,-0.76 3,3 0 0 0 -1.68,0.47 11.2,11.2 0 0 0 -1.65,1.4 v 8.8 h -2.05 z"
     id="path1286" />
  <path
     class="cls-5"
     d="m 633.93,384.96 a 6,6 0 0 1 -2.28,-0.44 5.36,5.36 0 0 1 -1.85,-1.25 5.7,5.7 0 0 1 -1.24,-2 7.49,7.49 0 0 1 -0.45,-2.68 7.37,7.37 0 0 1 0.46,-2.69 6.31,6.31 0 0 1 1.23,-2 5.31,5.31 0 0 1 1.74,-1.26 4.87,4.87 0 0 1 2,-0.44 5,5 0 0 1 2.06,0.4 4.07,4.07 0 0 1 1.53,1.15 5.31,5.31 0 0 1 0.94,1.8 8.14,8.14 0 0 1 0.32,2.35 c 0,0.22 0,0.43 0,0.64 a 3.69,3.69 0 0 1 -0.06,0.54 h -8.2 a 4.71,4.71 0 0 0 1.21,3.08 3.73,3.73 0 0 0 2.83,1.14 4.91,4.91 0 0 0 1.62,-0.26 7.67,7.67 0 0 0 1.41,-0.69 l 0.72,1.35 a 10.43,10.43 0 0 1 -1.77,0.88 6.17,6.17 0 0 1 -2.22,0.38 z m 2.68,-7.35 a 4.32,4.32 0 0 0 -0.79,-2.81 2.69,2.69 0 0 0 -2.21,-1 3.09,3.09 0 0 0 -1.24,0.25 3.25,3.25 0 0 0 -1.06,0.73 4.05,4.05 0 0 0 -0.79,1.19 5.44,5.44 0 0 0 -0.41,1.6 z"
     id="path1288" />
  <path
     class="cls-5"
     d="m 650,370.01 h -5 v -1.75 h 12 v 1.75 h -4.95 v 14.65 H 650 Z"
     id="path1290" />
  <path
     class="cls-5"
     d="m 663.08,384.96 a 6,6 0 0 1 -2.28,-0.44 5.36,5.36 0 0 1 -1.85,-1.25 5.7,5.7 0 0 1 -1.24,-2 7.49,7.49 0 0 1 -0.45,-2.68 7.37,7.37 0 0 1 0.46,-2.69 6.31,6.31 0 0 1 1.23,-2 5.27,5.27 0 0 1 1.73,-1.26 5,5 0 0 1 2,-0.44 5,5 0 0 1 2.06,0.4 4.07,4.07 0 0 1 1.53,1.15 5.12,5.12 0 0 1 0.93,1.8 7.8,7.8 0 0 1 0.33,2.35 c 0,0.22 0,0.43 0,0.64 a 2.63,2.63 0 0 1 -0.07,0.54 h -8.2 a 4.76,4.76 0 0 0 1.22,3.08 3.73,3.73 0 0 0 2.83,1.14 4.91,4.91 0 0 0 1.62,-0.26 7.67,7.67 0 0 0 1.41,-0.69 l 0.72,1.35 a 10.43,10.43 0 0 1 -1.77,0.88 6.17,6.17 0 0 1 -2.21,0.38 z m 2.68,-7.35 a 4.32,4.32 0 0 0 -0.79,-2.81 2.69,2.69 0 0 0 -2.21,-1 3.09,3.09 0 0 0 -1.24,0.25 3.25,3.25 0 0 0 -1.06,0.73 4.05,4.05 0 0 0 -0.79,1.19 5.44,5.44 0 0 0 -0.41,1.6 z"
     id="path1292" />
  <path
     class="cls-5"
     d="m 670.56,372.52 h 1.7 l 0.17,2.2 h 0.08 a 5.77,5.77 0 0 1 1.51,-1.83 3.27,3.27 0 0 1 3.24,-0.42 l -0.4,1.8 a 3.53,3.53 0 0 0 -0.55,-0.15 3.65,3.65 0 0 0 -0.63,-0.05 2.72,2.72 0 0 0 -1.61,0.63 4.94,4.94 0 0 0 -1.46,2.17 v 7.8 h -2.05 z"
     id="path1294" />
  <path
     class="cls-5"
     d="m 679.23,372.52 h 1.7 l 0.18,1.75 h 0.07 a 8.76,8.76 0 0 1 1.74,-1.46 3.79,3.79 0 0 1 2,-0.59 3.5,3.5 0 0 1 2.19,0.61 3.58,3.58 0 0 1 1.16,1.72 10,10 0 0 1 1.91,-1.69 3.67,3.67 0 0 1 2.09,-0.64 3.29,3.29 0 0 1 2.79,1.2 5.86,5.86 0 0 1 0.91,3.55 v 7.7 h -2 v -7.42 a 4.33,4.33 0 0 0 -0.55,-2.49 2,2 0 0 0 -1.7,-0.76 c -0.92,0 -1.93,0.62 -3.05,1.87 v 8.8 h -2 v -7.42 a 4.33,4.33 0 0 0 -0.55,-2.49 2,2 0 0 0 -1.73,-0.76 c -0.91,0 -1.93,0.62 -3.05,1.87 v 8.8 h -2 z"
     id="path1296" />
  <path
     class="cls-5"
     d="m 703.13,384.96 a 6.66,6.66 0 0 1 -2.47,-0.47 7.9,7.9 0 0 1 -2,-1.2 l 1,-1.38 a 8.71,8.71 0 0 0 1.64,1.05 4.4,4.4 0 0 0 1.94,0.4 2.57,2.57 0 0 0 1.8,-0.55 1.77,1.77 0 0 0 0.6,-1.35 1.45,1.45 0 0 0 -0.25,-0.83 2.67,2.67 0 0 0 -0.64,-0.61 4.64,4.64 0 0 0 -0.89,-0.46 l -1,-0.4 c -0.43,-0.15 -0.86,-0.32 -1.3,-0.51 a 5.34,5.34 0 0 1 -1.16,-0.7 3.82,3.82 0 0 1 -0.84,-1 2.64,2.64 0 0 1 -0.32,-1.33 3.14,3.14 0 0 1 0.29,-1.36 3.06,3.06 0 0 1 0.82,-1.1 4,4 0 0 1 1.31,-0.73 5.6,5.6 0 0 1 1.75,-0.26 5.45,5.45 0 0 1 2.12,0.4 6.56,6.56 0 0 1 1.66,1 l -1,1.29 a 6.64,6.64 0 0 0 -1.3,-0.77 3.58,3.58 0 0 0 -1.47,-0.3 2.34,2.34 0 0 0 -1.69,0.53 1.64,1.64 0 0 0 -0.54,1.22 1.25,1.25 0 0 0 0.23,0.74 2.13,2.13 0 0 0 0.6,0.55 4.59,4.59 0 0 0 0.86,0.42 l 1,0.39 1.32,0.53 a 5.05,5.05 0 0 1 1.18,0.68 3.67,3.67 0 0 1 0.87,1 3,3 0 0 1 0.33,1.46 3.24,3.24 0 0 1 -1.13,2.54 4.06,4.06 0 0 1 -1.4,0.79 6,6 0 0 1 -1.92,0.32 z"
     id="path1298" />
  <path
     class="cls-5"
     d="m 718.23,384.96 a 3.66,3.66 0 0 1 -2.53,-0.9 3.22,3.22 0 0 1 -1,-2.55 3.37,3.37 0 0 1 1.78,-3.06 14.52,14.52 0 0 1 5.67,-1.49 5.19,5.19 0 0 0 -0.11,-1.12 2.59,2.59 0 0 0 -0.39,-1 2,2 0 0 0 -0.76,-0.69 2.65,2.65 0 0 0 -1.24,-0.26 4.82,4.82 0 0 0 -2,0.4 9.84,9.84 0 0 0 -1.65,0.9 l -0.8,-1.42 a 12.77,12.77 0 0 1 2.07,-1.07 7,7 0 0 1 2.7,-0.51 3.73,3.73 0 0 1 3.23,1.36 6.06,6.06 0 0 1 1,3.64 v 7.45 h -1.7 l -0.18,-1.45 h -0.07 a 10.54,10.54 0 0 1 -1.88,1.24 4.64,4.64 0 0 1 -2.14,0.53 z m 0.6,-1.65 a 3.48,3.48 0 0 0 1.65,-0.41 8.39,8.39 0 0 0 1.65,-1.21 v -3.38 a 19,19 0 0 0 -2.56,0.48 6.53,6.53 0 0 0 -1.67,0.65 2.44,2.44 0 0 0 -0.93,0.86 2.06,2.06 0 0 0 -0.29,1.06 1.72,1.72 0 0 0 0.63,1.5 2.51,2.51 0 0 0 1.52,0.45 z"
     id="path1300" />
  <path
     class="cls-5"
     d="m 728,372.52 h 1.7 l 0.18,1.75 h 0.07 a 10.25,10.25 0 0 1 1.84,-1.46 4.23,4.23 0 0 1 2.24,-0.59 3.26,3.26 0 0 1 2.81,1.2 5.94,5.94 0 0 1 0.89,3.55 v 7.7 h -2 v -7.42 a 4.41,4.41 0 0 0 -0.55,-2.49 2,2 0 0 0 -1.75,-0.76 3,3 0 0 0 -1.68,0.47 11.2,11.2 0 0 0 -1.65,1.4 v 8.8 h -2 z"
     id="path1302" />
  <path
     class="cls-5"
     d="m 745.86,384.96 a 4.48,4.48 0 0 1 -3.66,-1.65 7.19,7.19 0 0 1 -1.37,-4.7 7.69,7.69 0 0 1 0.44,-2.66 6.35,6.35 0 0 1 1.16,-2 5,5 0 0 1 1.68,-1.28 4.61,4.61 0 0 1 2,-0.45 4.11,4.11 0 0 1 1.82,0.38 8.41,8.41 0 0 1 1.58,1 l -0.1,-2.07 v -4.68 h 2.07 v 17.8 h -1.7 l -0.17,-1.42 h -0.08 a 7.62,7.62 0 0 1 -1.66,1.21 4.14,4.14 0 0 1 -2.01,0.52 z m 0.45,-1.72 a 3.21,3.21 0 0 0 1.6,-0.42 5.58,5.58 0 0 0 1.5,-1.26 v -6.35 a 5.06,5.06 0 0 0 -1.49,-1 3.87,3.87 0 0 0 -1.46,-0.28 2.88,2.88 0 0 0 -1.36,0.33 3.49,3.49 0 0 0 -1.12,1 5.08,5.08 0 0 0 -0.75,1.47 6.18,6.18 0 0 0 -0.27,1.9 5.84,5.84 0 0 0 0.87,3.42 2.87,2.87 0 0 0 2.48,1.19 z"
     id="path1304" />
  <path
     class="cls-5"
     d="m 767,384.96 a 6.88,6.88 0 0 1 -2.85,-0.58 6.43,6.43 0 0 1 -2.26,-1.66 7.68,7.68 0 0 1 -1.5,-2.67 11.14,11.14 0 0 1 -0.54,-3.59 10.89,10.89 0 0 1 0.55,-3.55 7.92,7.92 0 0 1 1.53,-2.67 6.48,6.48 0 0 1 2.3,-1.69 7.09,7.09 0 0 1 2.9,-0.59 5.47,5.47 0 0 1 2.64,0.61 6.87,6.87 0 0 1 1.86,1.42 l -1.13,1.35 a 5.16,5.16 0 0 0 -1.47,-1.13 4.1,4.1 0 0 0 -1.88,-0.42 4.61,4.61 0 0 0 -3.75,1.78 6.19,6.19 0 0 0 -1,2.09 9.38,9.38 0 0 0 -0.37,2.75 9.66,9.66 0 0 0 0.37,2.79 6.67,6.67 0 0 0 1,2.11 4.42,4.42 0 0 0 3.7,1.82 4.4,4.4 0 0 0 2.1,-0.48 6.82,6.82 0 0 0 1.7,-1.36 l 1.15,1.3 a 7.3,7.3 0 0 1 -2.2,1.75 6.24,6.24 0 0 1 -2.85,0.62 z"
     id="path1306" />
  <path
     class="cls-5"
     d="m 779.58,384.96 a 5.47,5.47 0 0 1 -2.13,-0.42 5.28,5.28 0 0 1 -1.79,-1.24 6,6 0 0 1 -1.24,-2 8.15,8.15 0 0 1 0,-5.4 6.31,6.31 0 0 1 1.24,-2 5.31,5.31 0 0 1 1.79,-1.25 5.64,5.64 0 0 1 4.27,0 5.41,5.41 0 0 1 1.79,1.25 6.49,6.49 0 0 1 1.24,2 8.15,8.15 0 0 1 0,5.4 6.17,6.17 0 0 1 -1.24,2 5.38,5.38 0 0 1 -1.79,1.24 5.52,5.52 0 0 1 -2.14,0.42 z m 0,-1.7 a 3,3 0 0 0 1.43,-0.34 3.24,3.24 0 0 0 1.11,-0.95 4.32,4.32 0 0 0 0.71,-1.46 6.62,6.62 0 0 0 0.25,-1.9 6.69,6.69 0 0 0 -0.25,-1.91 4.48,4.48 0 0 0 -0.71,-1.49 3.17,3.17 0 0 0 -1.11,-1 3,3 0 0 0 -1.43,-0.34 3.09,3.09 0 0 0 -2.53,1.3 4.7,4.7 0 0 0 -0.72,1.49 7.07,7.07 0 0 0 -0.25,1.91 7,7 0 0 0 0.25,1.9 4.53,4.53 0 0 0 0.72,1.46 3.07,3.07 0 0 0 1.11,0.95 3,3 0 0 0 1.42,0.38 z"
     id="path1308" />
  <path
     class="cls-5"
     d="m 788.41,372.52 h 1.7 l 0.17,1.75 h 0.08 a 9.59,9.59 0 0 1 1.84,-1.46 4.19,4.19 0 0 1 2.23,-0.59 3.28,3.28 0 0 1 2.82,1.2 5.94,5.94 0 0 1 0.88,3.55 v 7.7 h -2.05 v -7.42 a 4.33,4.33 0 0 0 -0.55,-2.49 2,2 0 0 0 -1.75,-0.76 2.94,2.94 0 0 0 -1.67,0.47 10.26,10.26 0 0 0 -1.65,1.4 v 8.8 h -2 z"
     id="path1310" />
  <path
     class="cls-5"
     d="m 806.23,384.96 a 4.51,4.51 0 0 1 -3.66,-1.65 7.19,7.19 0 0 1 -1.36,-4.7 7.69,7.69 0 0 1 0.43,-2.66 6.37,6.37 0 0 1 1.17,-2 5,5 0 0 1 1.67,-1.28 4.64,4.64 0 0 1 2,-0.45 4.18,4.18 0 0 1 1.83,0.38 8.35,8.35 0 0 1 1.57,1 l -0.1,-2.07 v -4.68 h 2.08 v 17.8 h -1.7 l -0.18,-1.42 h -0.07 a 8.14,8.14 0 0 1 -1.66,1.21 4.18,4.18 0 0 1 -2.02,0.52 z m 0.45,-1.72 a 3.21,3.21 0 0 0 1.6,-0.42 5.58,5.58 0 0 0 1.5,-1.26 v -6.35 a 5,5 0 0 0 -1.48,-1 4,4 0 0 0 -1.47,-0.28 2.91,2.91 0 0 0 -1.36,0.33 3.45,3.45 0 0 0 -1.11,1 4.63,4.63 0 0 0 -0.75,1.47 5.89,5.89 0 0 0 -0.28,1.9 5.77,5.77 0 0 0 0.88,3.42 2.85,2.85 0 0 0 2.47,1.19 z"
     id="path1312" />
  <path
     class="cls-5"
     d="m 817,370.01 a 1.44,1.44 0 0 1 -1,-0.38 1.2,1.2 0 0 1 -0.42,-0.94 1.24,1.24 0 0 1 0.42,-1 1.6,1.6 0 0 1 2,0 1.23,1.23 0 0 1 0.41,1 1.19,1.19 0 0 1 -0.41,0.94 1.44,1.44 0 0 1 -1,0.38 z m -1,2.5 h 2 v 12.15 h -2 z"
     id="path1314" />
  <path
     class="cls-5"
     d="m 825.93,384.96 a 4,4 0 0 1 -1.64,-0.3 2.76,2.76 0 0 1 -1.07,-0.82 3.22,3.22 0 0 1 -0.59,-1.28 7.09,7.09 0 0 1 -0.17,-1.65 v -6.72 h -1.8 v -1.56 l 1.9,-0.12 0.25,-3.4 h 1.72 v 3.41 h 3.28 v 1.68 h -3.28 v 6.75 a 3.11,3.11 0 0 0 0.41,1.73 1.65,1.65 0 0 0 1.47,0.62 3.1,3.1 0 0 0 0.7,-0.1 6.5,6.5 0 0 0 0.67,-0.23 l 0.4,1.55 a 8.91,8.91 0 0 1 -1.09,0.31 5.18,5.18 0 0 1 -1.16,0.13 z"
     id="path1316" />
  <path
     class="cls-5"
     d="m 831.61,370.01 a 1.44,1.44 0 0 1 -1,-0.38 1.2,1.2 0 0 1 -0.42,-0.94 1.24,1.24 0 0 1 0.42,-1 1.6,1.6 0 0 1 2,0 1.26,1.26 0 0 1 0.41,1 1.23,1.23 0 0 1 -0.41,0.94 1.44,1.44 0 0 1 -1,0.38 z m -1,2.5 h 2 v 12.15 h -2 z"
     id="path1318" />
  <path
     class="cls-5"
     d="m 841.43,384.96 a 5.55,5.55 0 0 1 -2.14,-0.42 5.34,5.34 0 0 1 -1.78,-1.24 6,6 0 0 1 -1.24,-2 8.15,8.15 0 0 1 0,-5.4 6.31,6.31 0 0 1 1.24,-2 5.37,5.37 0 0 1 1.78,-1.25 5.41,5.41 0 0 1 6.07,1.25 6.29,6.29 0 0 1 1.23,2 8,8 0 0 1 0,5.4 6,6 0 0 1 -1.23,2 5.49,5.49 0 0 1 -1.79,1.24 5.55,5.55 0 0 1 -2.14,0.42 z m 0,-1.7 a 3,3 0 0 0 1.43,-0.34 3.24,3.24 0 0 0 1.11,-0.95 4.52,4.52 0 0 0 0.71,-1.46 6.62,6.62 0 0 0 0.25,-1.9 6.69,6.69 0 0 0 -0.25,-1.91 4.68,4.68 0 0 0 -0.71,-1.49 3.17,3.17 0 0 0 -1.11,-1 3,3 0 0 0 -1.43,-0.34 3,3 0 0 0 -1.42,0.34 3.11,3.11 0 0 0 -1.12,1 4.9,4.9 0 0 0 -0.71,1.49 6.69,6.69 0 0 0 -0.25,1.91 6.62,6.62 0 0 0 0.25,1.9 4.73,4.73 0 0 0 0.71,1.46 3.18,3.18 0 0 0 1.12,0.95 3,3 0 0 0 1.42,0.34 z"
     id="path1320" />
  <path
     class="cls-5"
     d="m 850.26,372.52 h 1.7 l 0.17,1.75 h 0.08 a 9.85,9.85 0 0 1 1.83,-1.46 4.23,4.23 0 0 1 2.24,-0.59 3.26,3.26 0 0 1 2.81,1.2 5.94,5.94 0 0 1 0.89,3.55 v 7.7 h -2 v -7.42 a 4.33,4.33 0 0 0 -0.55,-2.49 2,2 0 0 0 -1.75,-0.76 2.94,2.94 0 0 0 -1.67,0.47 10.26,10.26 0 0 0 -1.65,1.4 v 8.8 h -2 z"
     id="path1322" />
  <path
     class="cls-5"
     d="m 867.11,384.96 a 6.71,6.71 0 0 1 -2.48,-0.47 8.07,8.07 0 0 1 -2.05,-1.2 l 1,-1.38 a 8.64,8.64 0 0 0 1.63,1.05 4.43,4.43 0 0 0 1.94,0.4 2.57,2.57 0 0 0 1.8,-0.55 1.77,1.77 0 0 0 0.6,-1.35 1.38,1.38 0 0 0 -0.25,-0.83 2.49,2.49 0 0 0 -0.64,-0.61 4.54,4.54 0 0 0 -0.88,-0.46 l -1,-0.4 c -0.44,-0.15 -0.87,-0.32 -1.3,-0.51 a 5.11,5.11 0 0 1 -1.16,-0.7 3.46,3.46 0 0 1 -0.84,-1 2.55,2.55 0 0 1 -0.33,-1.33 3.29,3.29 0 0 1 0.29,-1.36 3.17,3.17 0 0 1 0.82,-1.1 4,4 0 0 1 1.32,-0.73 5.55,5.55 0 0 1 1.75,-0.26 5.4,5.4 0 0 1 2.11,0.4 6.39,6.39 0 0 1 1.66,1 l -1,1.29 a 6.94,6.94 0 0 0 -1.3,-0.77 3.59,3.59 0 0 0 -1.48,-0.3 2.36,2.36 0 0 0 -1.69,0.53 1.67,1.67 0 0 0 -0.53,1.22 1.24,1.24 0 0 0 0.22,0.74 2.13,2.13 0 0 0 0.6,0.55 4.4,4.4 0 0 0 0.87,0.42 l 1,0.39 c 0.43,0.17 0.87,0.34 1.31,0.53 a 5.12,5.12 0 0 1 1.19,0.68 3.64,3.64 0 0 1 0.86,1 3,3 0 0 1 0.34,1.46 3.47,3.47 0 0 1 -0.29,1.4 3.34,3.34 0 0 1 -0.85,1.14 4,4 0 0 1 -1.4,0.79 5.94,5.94 0 0 1 -1.84,0.32 z"
     id="path1324" />
  <rect
     class="cls-4"
     x="456.87"
     y="361.23996"
     width="28.6"
     height="28.6"
     rx="5.7600002"
     id="rect1326"
     ry="5.7600002" />
  <rect
     class="cls-7"
     x="-1256.4601"
     y="-512.39001"
     width="7.1100001"
     height="400.35001"
     rx="3.5599999"
     transform="scale(-1)"
     id="rect1328"
     ry="3.5599999" />
  <path
     class="cls-5"
     d="m 437.65,242.75 h 2.67 l 2.14,11.07 c 0.18,1.11 0.38,2.21 0.59,3.28 0.21,1.07 0.4,2.17 0.58,3.29 h 0.13 c 0.23,-1.12 0.46,-2.22 0.71,-3.3 0.25,-1.08 0.49,-2.17 0.71,-3.27 L 448,242.75 h 2.35 l 2.82,11.07 c 0.25,1.07 0.5,2.16 0.75,3.26 0.25,1.1 0.49,2.19 0.74,3.31 h 0.12 c 0.19,-1.12 0.38,-2.22 0.56,-3.3 0.18,-1.08 0.38,-2.17 0.59,-3.27 l 2.14,-11.07 h 2.48 l -4.22,20.34 h -3.1 l -3.06,-12.25 c -0.19,-0.78 -0.36,-1.55 -0.52,-2.31 -0.16,-0.76 -0.31,-1.52 -0.48,-2.31 h -0.12 q -0.25,1.19 -0.51,2.31 -0.26,1.12 -0.51,2.31 l -3,12.25 H 442 Z"
     id="path1330" />
  <path
     class="cls-5"
     d="m 470,263.46 a 7.35,7.35 0 0 1 -2.83,-0.54 6.72,6.72 0 0 1 -2.3,-1.55 7.08,7.08 0 0 1 -1.53,-2.47 10.07,10.07 0 0 1 0,-6.65 7.91,7.91 0 0 1 1.52,-2.49 6.73,6.73 0 0 1 2.16,-1.57 6.06,6.06 0 0 1 2.51,-0.54 6.35,6.35 0 0 1 2.56,0.5 5,5 0 0 1 1.89,1.42 6.74,6.74 0 0 1 1.16,2.23 9.82,9.82 0 0 1 0.4,2.92 c 0,0.27 0,0.53 0,0.79 a 3.72,3.72 0 0 1 -0.08,0.66 h -10.22 a 5.9,5.9 0 0 0 1.5,3.83 4.67,4.67 0 0 0 3.52,1.42 5.83,5.83 0 0 0 2,-0.33 8.84,8.84 0 0 0 1.75,-0.85 l 0.9,1.67 a 13.66,13.66 0 0 1 -2.2,1.09 7.61,7.61 0 0 1 -2.71,0.46 z m 3.32,-9.11 a 5.42,5.42 0 0 0 -1,-3.49 3.32,3.32 0 0 0 -2.74,-1.19 3.85,3.85 0 0 0 -1.54,0.31 4,4 0 0 0 -1.31,0.91 4.85,4.85 0 0 0 -1,1.47 6.52,6.52 0 0 0 -0.51,2 z"
     id="path1332" />
  <path
     class="cls-5"
     d="m 481.92,263.46 a 2.38,2.38 0 0 1 -2.08,-0.87 4.37,4.37 0 0 1 -0.62,-2.54 v -19 h 2.54 v 19.22 a 1.33,1.33 0 0 0 0.22,0.86 0.63,0.63 0 0 0 0.5,0.25 h 0.23 a 1.3,1.3 0 0 0 0.32,-0.06 l 0.35,1.92 a 2.4,2.4 0 0 1 -0.59,0.19 5.22,5.22 0 0 1 -0.87,0.03 z"
     id="path1334" />
  <path
     class="cls-5"
     d="m 493.08,263.46 a 7.41,7.41 0 0 1 -2.79,-0.53 6.25,6.25 0 0 1 -2.25,-1.53 7.2,7.2 0 0 1 -1.49,-2.48 9.61,9.61 0 0 1 -0.54,-3.33 9.08,9.08 0 0 1 0.59,-3.37 7.52,7.52 0 0 1 1.58,-2.49 6.58,6.58 0 0 1 2.31,-1.55 7.42,7.42 0 0 1 2.77,-0.53 5.68,5.68 0 0 1 2.55,0.53 8.49,8.49 0 0 1 1.86,1.24 l -1.31,1.67 a 6.34,6.34 0 0 0 -1.38,-1 3.45,3.45 0 0 0 -1.62,-0.37 4.26,4.26 0 0 0 -1.89,0.42 4.18,4.18 0 0 0 -1.49,1.19 5.82,5.82 0 0 0 -1,1.85 7.37,7.37 0 0 0 -0.36,2.37 7.53,7.53 0 0 0 0.35,2.35 5.6,5.6 0 0 0 0.94,1.82 4.17,4.17 0 0 0 1.47,1.17 4.3,4.3 0 0 0 1.9,0.42 4.19,4.19 0 0 0 1.93,-0.45 7.7,7.7 0 0 0 1.6,-1.07 l 1.11,1.71 a 7.94,7.94 0 0 1 -2.26,1.41 6.77,6.77 0 0 1 -2.58,0.55 z"
     id="path1336" />
  <path
     class="cls-5"
     d="m 506.47,263.46 a 6.81,6.81 0 0 1 -2.65,-0.53 6.5,6.5 0 0 1 -2.22,-1.53 7.43,7.43 0 0 1 -1.53,-2.48 9.15,9.15 0 0 1 -0.58,-3.33 9.3,9.3 0 0 1 0.58,-3.37 7.58,7.58 0 0 1 1.53,-2.49 6.42,6.42 0 0 1 2.22,-1.55 6.89,6.89 0 0 1 5.3,0 6.42,6.42 0 0 1 2.22,1.55 7.58,7.58 0 0 1 1.53,2.49 9.3,9.3 0 0 1 0.57,3.37 9.15,9.15 0 0 1 -0.57,3.33 7.43,7.43 0 0 1 -1.53,2.48 6.5,6.5 0 0 1 -2.22,1.53 6.81,6.81 0 0 1 -2.65,0.53 z m 0,-2.11 a 3.79,3.79 0 0 0 1.77,-0.42 4.15,4.15 0 0 0 1.38,-1.17 5.71,5.71 0 0 0 0.88,-1.82 8.2,8.2 0 0 0 0.31,-2.35 8.35,8.35 0 0 0 -0.31,-2.37 5.88,5.88 0 0 0 -0.88,-1.85 4.1,4.1 0 0 0 -1.38,-1.19 3.94,3.94 0 0 0 -3.54,0 4.1,4.1 0 0 0 -1.38,1.19 5.88,5.88 0 0 0 -0.88,1.85 8.35,8.35 0 0 0 -0.31,2.37 8.2,8.2 0 0 0 0.31,2.35 5.71,5.71 0 0 0 0.88,1.82 4.15,4.15 0 0 0 1.38,1.17 3.79,3.79 0 0 0 1.77,0.42 z"
     id="path1338" />
  <path
     class="cls-5"
     d="m 517.41,248.02 h 2.11 l 0.22,2.17 h 0.09 a 10.39,10.39 0 0 1 2.15,-1.81 4.66,4.66 0 0 1 2.53,-0.73 4.28,4.28 0 0 1 2.71,0.76 4.36,4.36 0 0 1 1.45,2.12 12.78,12.78 0 0 1 2.37,-2.09 4.56,4.56 0 0 1 2.59,-0.79 4.05,4.05 0 0 1 3.45,1.49 7.16,7.16 0 0 1 1.13,4.4 v 9.55 h -2.54 v -9.21 a 5.42,5.42 0 0 0 -0.68,-3.08 2.44,2.44 0 0 0 -2.11,-0.95 q -1.71,0 -3.78,2.33 v 10.91 h -2.54 v -9.21 a 5.42,5.42 0 0 0 -0.68,-3.08 2.47,2.47 0 0 0 -2.14,-0.95 q -1.71,0 -3.79,2.33 v 10.91 h -2.54 z"
     id="path1340" />
  <path
     class="cls-5"
     d="m 549.22,263.46 a 7.44,7.44 0 0 1 -2.84,-0.54 6.68,6.68 0 0 1 -2.29,-1.55 7.25,7.25 0 0 1 -1.54,-2.47 10.15,10.15 0 0 1 0,-6.65 7.73,7.73 0 0 1 1.52,-2.49 6.8,6.8 0 0 1 2.15,-1.57 6.13,6.13 0 0 1 2.51,-0.54 6.32,6.32 0 0 1 2.56,0.5 5,5 0 0 1 1.89,1.42 6.39,6.39 0 0 1 1.16,2.23 9.81,9.81 0 0 1 0.41,2.92 c 0,0.27 0,0.53 0,0.79 a 3,3 0 0 1 -0.08,0.66 h -10.16 a 5.85,5.85 0 0 0 1.5,3.83 4.65,4.65 0 0 0 3.52,1.42 5.87,5.87 0 0 0 2,-0.33 9.12,9.12 0 0 0 1.75,-0.85 l 0.9,1.67 a 14.09,14.09 0 0 1 -2.2,1.09 7.68,7.68 0 0 1 -2.76,0.46 z m 3.32,-9.11 a 5.42,5.42 0 0 0 -1,-3.49 3.33,3.33 0 0 0 -2.74,-1.19 3.85,3.85 0 0 0 -1.54,0.31 4.12,4.12 0 0 0 -1.32,0.91 5,5 0 0 0 -1,1.47 6.82,6.82 0 0 0 -0.52,2 z"
     id="path1342" />
  <path
     class="cls-5"
     d="m 569.43,263.46 a 4.88,4.88 0 0 1 -2,-0.37 3.51,3.51 0 0 1 -1.33,-1 3.9,3.9 0 0 1 -0.73,-1.58 8.83,8.83 0 0 1 -0.22,-2.05 v -8.34 h -2.23 v -1.92 l 2.35,-0.16 0.31,-4.21 h 2.14 v 4.21 h 4.06 v 2.08 h -4.06 v 8.4 a 3.73,3.73 0 0 0 0.52,2.15 2,2 0 0 0 1.81,0.76 3.49,3.49 0 0 0 0.87,-0.12 5,5 0 0 0 0.83,-0.28 l 0.5,1.92 a 10.85,10.85 0 0 1 -1.35,0.39 6.5,6.5 0 0 1 -1.47,0.12 z"
     id="path1344" />
  <path
     class="cls-5"
     d="m 580.59,263.46 a 6.81,6.81 0 0 1 -2.65,-0.53 6.5,6.5 0 0 1 -2.22,-1.53 7.43,7.43 0 0 1 -1.53,-2.48 9.15,9.15 0 0 1 -0.58,-3.33 9.3,9.3 0 0 1 0.58,-3.37 7.58,7.58 0 0 1 1.53,-2.49 6.42,6.42 0 0 1 2.22,-1.55 6.89,6.89 0 0 1 5.3,0 6.42,6.42 0 0 1 2.22,1.55 7.58,7.58 0 0 1 1.54,2.49 9.3,9.3 0 0 1 0.57,3.37 9.15,9.15 0 0 1 -0.57,3.33 7.43,7.43 0 0 1 -1.53,2.48 6.5,6.5 0 0 1 -2.22,1.53 6.81,6.81 0 0 1 -2.66,0.53 z m 0,-2.11 a 3.79,3.79 0 0 0 1.77,-0.42 4.15,4.15 0 0 0 1.38,-1.17 5.71,5.71 0 0 0 0.88,-1.82 8.2,8.2 0 0 0 0.31,-2.35 8.35,8.35 0 0 0 -0.31,-2.37 5.88,5.88 0 0 0 -0.88,-1.85 4.1,4.1 0 0 0 -1.38,-1.19 3.94,3.94 0 0 0 -3.54,0 4.1,4.1 0 0 0 -1.38,1.19 5.88,5.88 0 0 0 -0.88,1.85 8.35,8.35 0 0 0 -0.31,2.37 8.2,8.2 0 0 0 0.31,2.35 5.71,5.71 0 0 0 0.88,1.82 4.15,4.15 0 0 0 1.38,1.17 3.79,3.79 0 0 0 1.77,0.42 z"
     id="path1346" />
  <path
     class="cls-5"
     d="m 598,269.57 a 5.64,5.64 0 0 1 -1,-0.08 4,4 0 0 1 -0.81,-0.23 l 0.5,-2 0.56,0.14 a 2.46,2.46 0 0 0 0.59,0.08 2.73,2.73 0 0 0 2.16,-0.96 6.39,6.39 0 0 0 1.29,-2.3 l 0.34,-1.12 -6.05,-15.1 h 2.64 l 3.07,8.34 c 0.22,0.66 0.47,1.36 0.73,2.09 0.26,0.73 0.5,1.46 0.72,2.16 h 0.13 c 0.22,-0.68 0.44,-1.4 0.65,-2.14 0.21,-0.74 0.41,-1.45 0.62,-2.11 l 2.7,-8.34 h 2.48 l -5.68,16.31 a 18.86,18.86 0 0 1 -0.9,2.08 6.78,6.78 0 0 1 -1.17,1.65 5.39,5.39 0 0 1 -1.55,1.11 4.92,4.92 0 0 1 -2.02,0.42 z"
     id="path1348" />
  <path
     class="cls-5"
     d="m 617.94,263.46 a 6.81,6.81 0 0 1 -2.65,-0.53 6.56,6.56 0 0 1 -2.21,-1.53 7.62,7.62 0 0 1 -1.54,-2.48 9.15,9.15 0 0 1 -0.57,-3.33 9.3,9.3 0 0 1 0.57,-3.37 7.78,7.78 0 0 1 1.54,-2.49 6.47,6.47 0 0 1 2.21,-1.55 6.92,6.92 0 0 1 5.31,0 6.47,6.47 0 0 1 2.21,1.55 7.78,7.78 0 0 1 1.54,2.49 9.3,9.3 0 0 1 0.57,3.37 9.15,9.15 0 0 1 -0.57,3.33 7.62,7.62 0 0 1 -1.54,2.48 6.56,6.56 0 0 1 -2.21,1.53 6.86,6.86 0 0 1 -2.66,0.53 z m 0,-2.11 a 3.76,3.76 0 0 0 1.77,-0.42 4,4 0 0 0 1.38,-1.17 5.51,5.51 0 0 0 0.88,-1.82 8.2,8.2 0 0 0 0.31,-2.35 8.35,8.35 0 0 0 -0.31,-2.37 5.67,5.67 0 0 0 -0.88,-1.85 3.92,3.92 0 0 0 -1.38,-1.19 3.92,3.92 0 0 0 -3.53,0 3.92,3.92 0 0 0 -1.38,1.19 5.89,5.89 0 0 0 -0.89,1.85 8.72,8.72 0 0 0 -0.31,2.37 8.57,8.57 0 0 0 0.31,2.35 5.72,5.72 0 0 0 0.89,1.82 4,4 0 0 0 1.38,1.17 3.75,3.75 0 0 0 1.76,0.42 z"
     id="path1350" />
  <path
     class="cls-5"
     d="m 633.29,263.46 a 4.09,4.09 0 0 1 -3.52,-1.49 7.38,7.38 0 0 1 -1.1,-4.4 v -9.55 h 2.57 v 9.21 a 5.49,5.49 0 0 0 0.67,3.08 2.44,2.44 0 0 0 2.15,1 3.65,3.65 0 0 0 2.08,-0.6 10.09,10.09 0 0 0 2,-1.94 v -10.75 h 2.54 v 15.07 h -2.11 l -0.22,-2.36 h -0.09 a 10,10 0 0 1 -2.22,2 5,5 0 0 1 -2.75,0.73 z"
     id="path1352" />
  <path
     class="cls-5"
     d="m 645.75,248.02 h 2.11 l 0.22,2.73 h 0.09 a 7.05,7.05 0 0 1 1.83,-2.23 3.9,3.9 0 0 1 2.41,-0.84 4.13,4.13 0 0 1 1.61,0.31 l -0.5,2.23 a 5.79,5.79 0 0 0 -0.68,-0.18 4,4 0 0 0 -0.77,-0.07 3.36,3.36 0 0 0 -2,0.78 6.18,6.18 0 0 0 -1.82,2.7 v 9.67 h -2.54 z"
     id="path1354" />
  <path
     class="cls-5"
     d="m 665.4,263.46 a 2.36,2.36 0 0 1 -2.07,-0.87 4.29,4.29 0 0 1 -0.62,-2.54 v -19 h 2.54 v 19.22 a 1.27,1.27 0 0 0 0.22,0.86 0.62,0.62 0 0 0 0.49,0.25 h 0.23 a 1.29,1.29 0 0 0 0.33,-0.06 l 0.34,1.92 a 2.15,2.15 0 0 1 -0.59,0.19 5.14,5.14 0 0 1 -0.87,0.03 z"
     id="path1356" />
  <path
     class="cls-5"
     d="m 676.47,263.46 a 6.81,6.81 0 0 1 -2.65,-0.53 6.5,6.5 0 0 1 -2.22,-1.53 7.43,7.43 0 0 1 -1.53,-2.48 9.15,9.15 0 0 1 -0.57,-3.33 9.3,9.3 0 0 1 0.57,-3.37 7.58,7.58 0 0 1 1.53,-2.49 6.42,6.42 0 0 1 2.22,-1.55 6.89,6.89 0 0 1 5.3,0 6.42,6.42 0 0 1 2.22,1.55 7.58,7.58 0 0 1 1.53,2.49 9.3,9.3 0 0 1 0.58,3.37 9.15,9.15 0 0 1 -0.58,3.33 7.43,7.43 0 0 1 -1.53,2.48 6.5,6.5 0 0 1 -2.22,1.53 6.81,6.81 0 0 1 -2.65,0.53 z m 0,-2.11 a 3.79,3.79 0 0 0 1.77,-0.42 4.15,4.15 0 0 0 1.38,-1.17 5.71,5.71 0 0 0 0.88,-1.82 8.2,8.2 0 0 0 0.31,-2.35 8.35,8.35 0 0 0 -0.31,-2.37 5.88,5.88 0 0 0 -0.88,-1.85 4.1,4.1 0 0 0 -1.38,-1.19 3.94,3.94 0 0 0 -3.54,0 4.1,4.1 0 0 0 -1.38,1.19 5.88,5.88 0 0 0 -0.88,1.85 8.35,8.35 0 0 0 -0.31,2.37 8.2,8.2 0 0 0 0.31,2.35 5.71,5.71 0 0 0 0.88,1.82 4.15,4.15 0 0 0 1.38,1.17 3.79,3.79 0 0 0 1.77,0.42 z"
     id="path1358" />
  <path
     class="cls-5"
     d="m 693.37,263.46 a 7.33,7.33 0 0 1 -2.79,-0.53 6.25,6.25 0 0 1 -2.25,-1.53 7.2,7.2 0 0 1 -1.49,-2.48 9.61,9.61 0 0 1 -0.54,-3.33 8.89,8.89 0 0 1 0.59,-3.37 7.52,7.52 0 0 1 1.58,-2.49 6.58,6.58 0 0 1 2.31,-1.55 7.42,7.42 0 0 1 2.77,-0.53 5.64,5.64 0 0 1 2.54,0.53 8,8 0 0 1 1.86,1.24 l -1.3,1.67 a 6.34,6.34 0 0 0 -1.38,-1 3.49,3.49 0 0 0 -1.63,-0.37 4.29,4.29 0 0 0 -1.89,0.42 4.24,4.24 0 0 0 -1.48,1.19 5.82,5.82 0 0 0 -1,1.85 7.37,7.37 0 0 0 -0.36,2.37 7.84,7.84 0 0 0 0.34,2.35 5.81,5.81 0 0 0 1,1.82 4.08,4.08 0 0 0 1.47,1.17 4.29,4.29 0 0 0 1.89,0.42 4.2,4.2 0 0 0 1.94,-0.45 7.7,7.7 0 0 0 1.6,-1.07 l 1.11,1.71 a 7.94,7.94 0 0 1 -2.26,1.41 6.81,6.81 0 0 1 -2.63,0.55 z"
     id="path1360" />
  <path
     class="cls-5"
     d="m 704.71,263.46 a 4.55,4.55 0 0 1 -3.15,-1.12 4,4 0 0 1 -1.25,-3.16 4.16,4.16 0 0 1 2.2,-3.79 18.11,18.11 0 0 1 7,-1.85 7.12,7.12 0 0 0 -0.14,-1.39 3.74,3.74 0 0 0 -0.48,-1.21 2.56,2.56 0 0 0 -1,-0.86 3.28,3.28 0 0 0 -1.53,-0.32 5.93,5.93 0 0 0 -2.45,0.5 12,12 0 0 0 -2,1.11 l -1,-1.77 a 16.51,16.51 0 0 1 2.57,-1.31 8.51,8.51 0 0 1 3.35,-0.64 4.62,4.62 0 0 1 4,1.69 7.44,7.44 0 0 1 1.24,4.51 v 9.24 H 710 l -0.21,-1.8 h -0.1 a 13.16,13.16 0 0 1 -2.32,1.54 5.83,5.83 0 0 1 -2.66,0.63 z m 0.75,-2 a 4.3,4.3 0 0 0 2,-0.52 10.46,10.46 0 0 0 2,-1.5 v -4.19 a 28.35,28.35 0 0 0 -3.18,0.59 8.51,8.51 0 0 0 -2.08,0.81 3.12,3.12 0 0 0 -1.14,1.07 2.52,2.52 0 0 0 -0.36,1.32 2.16,2.16 0 0 0 0.77,1.86 3.19,3.19 0 0 0 1.99,0.52 z"
     id="path1362" />
  <path
     class="cls-5"
     d="m 719.56,263.46 a 2.39,2.39 0 0 1 -2.08,-0.87 4.37,4.37 0 0 1 -0.62,-2.54 v -19 h 2.54 v 19.22 a 1.33,1.33 0 0 0 0.22,0.86 0.64,0.64 0 0 0 0.5,0.25 h 0.23 a 1.45,1.45 0 0 0 0.33,-0.06 l 0.34,1.92 a 2.4,2.4 0 0 1 -0.59,0.19 5.22,5.22 0 0 1 -0.87,0.03 z"
     id="path1364" />
  <path
     class="cls-5"
     d="m 735.71,263.46 a 4.88,4.88 0 0 1 -2,-0.37 3.51,3.51 0 0 1 -1.33,-1 4,4 0 0 1 -0.73,-1.58 8.83,8.83 0 0 1 -0.22,-2.05 v -8.34 h -2.23 v -1.92 l 2.35,-0.16 0.32,-4.21 H 734 v 4.21 h 4 v 2.08 h -4 v 8.4 a 3.73,3.73 0 0 0 0.52,2.15 2,2 0 0 0 1.81,0.76 3.49,3.49 0 0 0 0.87,-0.12 5,5 0 0 0 0.83,-0.28 l 0.5,1.92 a 10.85,10.85 0 0 1 -1.35,0.39 6.5,6.5 0 0 1 -1.47,0.12 z"
     id="path1366" />
  <path
     class="cls-5"
     d="m 741.44,248.02 h 2.11 l 0.22,2.73 h 0.09 a 7,7 0 0 1 1.88,-2.26 3.86,3.86 0 0 1 2.4,-0.84 4.09,4.09 0 0 1 1.61,0.31 l -0.49,2.23 a 5.91,5.91 0 0 0 -0.69,-0.18 4,4 0 0 0 -0.77,-0.07 3.36,3.36 0 0 0 -2,0.78 6.17,6.17 0 0 0 -1.81,2.7 v 9.67 h -2.55 z"
     id="path1368" />
  <path
     class="cls-5"
     d="m 754.93,263.46 a 4.55,4.55 0 0 1 -3.15,-1.12 4,4 0 0 1 -1.25,-3.16 4.16,4.16 0 0 1 2.2,-3.79 18.11,18.11 0 0 1 7,-1.85 7.12,7.12 0 0 0 -0.14,-1.39 3.74,3.74 0 0 0 -0.48,-1.21 2.64,2.64 0 0 0 -1,-0.86 3.28,3.28 0 0 0 -1.53,-0.32 5.93,5.93 0 0 0 -2.45,0.5 12,12 0 0 0 -2,1.11 l -1,-1.77 a 16.51,16.51 0 0 1 2.57,-1.31 8.48,8.48 0 0 1 3.35,-0.64 4.62,4.62 0 0 1 4,1.69 7.44,7.44 0 0 1 1.24,4.51 v 9.24 h -2.11 l -0.22,-1.8 h -0.09 a 13.16,13.16 0 0 1 -2.32,1.54 5.83,5.83 0 0 1 -2.62,0.63 z m 0.74,-2 a 4.31,4.31 0 0 0 2,-0.52 10.46,10.46 0 0 0 2,-1.5 v -4.19 a 28.35,28.35 0 0 0 -3.18,0.59 8.51,8.51 0 0 0 -2.08,0.81 3.16,3.16 0 0 0 -1.15,1.07 2.61,2.61 0 0 0 -0.35,1.32 2.16,2.16 0 0 0 0.77,1.86 3.18,3.18 0 0 0 1.99,0.52 z"
     id="path1370" />
  <path
     class="cls-5"
     d="m 768.38,244.92 a 1.79,1.79 0 0 1 -1.25,-0.46 1.52,1.52 0 0 1 -0.51,-1.18 1.5,1.5 0 0 1 0.51,-1.19 2,2 0 0 1 2.51,0 1.5,1.5 0 0 1 0.51,1.19 1.52,1.52 0 0 1 -0.51,1.18 1.8,1.8 0 0 1 -1.26,0.46 z m -1.3,3.1 h 2.54 v 15.07 h -2.54 z"
     id="path1372" />
  <path
     class="cls-5"
     d="m 774.71,248.02 h 2.11 l 0.21,2.17 h 0.1 a 12.18,12.18 0 0 1 2.27,-1.81 5.22,5.22 0 0 1 2.78,-0.73 4.07,4.07 0 0 1 3.49,1.49 7.38,7.38 0 0 1 1.1,4.4 v 9.55 h -2.55 v -9.21 a 5.34,5.34 0 0 0 -0.68,-3.08 2.48,2.48 0 0 0 -2.17,-0.95 3.72,3.72 0 0 0 -2.07,0.59 12.84,12.84 0 0 0 -2,1.74 v 10.91 h -2.54 z"
     id="path1374" />
  <path
     class="cls-5"
     d="m 801.8,263.46 a 8.18,8.18 0 0 1 -3.07,-0.59 9.45,9.45 0 0 1 -2.54,-1.49 l 1.27,-1.7 a 10.06,10.06 0 0 0 2,1.3 5.55,5.55 0 0 0 2.41,0.5 3.19,3.19 0 0 0 2.23,-0.69 2.19,2.19 0 0 0 0.74,-1.67 1.69,1.69 0 0 0 -0.31,-1 3.18,3.18 0 0 0 -0.79,-0.76 6,6 0 0 0 -1.1,-0.58 l -1.24,-0.49 c -0.54,-0.19 -1.07,-0.4 -1.61,-0.64 a 5.76,5.76 0 0 1 -1.44,-0.87 4.21,4.21 0 0 1 -1,-1.19 3.14,3.14 0 0 1 -0.4,-1.64 4,4 0 0 1 1.37,-3.06 4.82,4.82 0 0 1 1.63,-0.89 6.68,6.68 0 0 1 2.17,-0.33 6.76,6.76 0 0 1 2.62,0.5 8,8 0 0 1 2.06,1.2 l -1.21,1.62 a 8.06,8.06 0 0 0 -1.61,-1 4.44,4.44 0 0 0 -1.83,-0.38 2.88,2.88 0 0 0 -2.09,0.66 2.07,2.07 0 0 0 -0.67,1.51 1.57,1.57 0 0 0 0.28,0.92 2.75,2.75 0 0 0 0.75,0.68 5.93,5.93 0 0 0 1.07,0.53 l 1.25,0.48 c 0.54,0.2 1.08,0.42 1.63,0.65 a 6.22,6.22 0 0 1 1.47,0.85 4.08,4.08 0 0 1 1.07,1.26 3.58,3.58 0 0 1 0.42,1.8 4.16,4.16 0 0 1 -0.36,1.73 4,4 0 0 1 -1,1.43 5,5 0 0 1 -1.74,1 7.2,7.2 0 0 1 -2.43,0.35 z"
     id="path1376" />
  <path
     class="cls-5"
     d="m 815,263.46 a 4.85,4.85 0 0 1 -2,-0.37 3.54,3.54 0 0 1 -1.34,-1 4,4 0 0 1 -0.72,-1.58 8.83,8.83 0 0 1 -0.22,-2.05 v -8.34 h -2.23 v -1.92 l 2.35,-0.16 0.31,-4.21 h 2.14 v 4.21 h 4.06 v 2.08 h -4.06 v 8.4 a 3.82,3.82 0 0 0 0.51,2.15 2,2 0 0 0 1.82,0.76 3.48,3.48 0 0 0 0.86,-0.12 5.51,5.51 0 0 0 0.84,-0.28 l 0.5,1.92 a 12,12 0 0 1 -1.35,0.39 6.57,6.57 0 0 1 -1.47,0.12 z"
     id="path1378" />
  <path
     class="cls-5"
     d="m 823.53,263.46 a 4.51,4.51 0 0 1 -3.14,-1.12 4,4 0 0 1 -1.26,-3.16 4.16,4.16 0 0 1 2.2,-3.79 18.11,18.11 0 0 1 7,-1.85 7.12,7.12 0 0 0 -0.14,-1.39 3.34,3.34 0 0 0 -0.48,-1.21 2.56,2.56 0 0 0 -1,-0.86 3.28,3.28 0 0 0 -1.53,-0.32 5.93,5.93 0 0 0 -2.45,0.5 12,12 0 0 0 -2,1.11 l -1,-1.77 a 16.51,16.51 0 0 1 2.57,-1.31 8.51,8.51 0 0 1 3.35,-0.64 4.61,4.61 0 0 1 4,1.69 7.44,7.44 0 0 1 1.24,4.51 v 9.24 h -2.11 l -0.21,-1.8 h -0.1 a 13.16,13.16 0 0 1 -2.32,1.54 5.83,5.83 0 0 1 -2.62,0.63 z m 0.75,-2 a 4.3,4.3 0 0 0 2,-0.52 10.46,10.46 0 0 0 2,-1.5 v -4.19 a 28.35,28.35 0 0 0 -3.18,0.59 8.51,8.51 0 0 0 -2.08,0.81 3.12,3.12 0 0 0 -1.14,1.07 2.52,2.52 0 0 0 -0.36,1.32 2.14,2.14 0 0 0 0.78,1.86 3.14,3.14 0 0 0 1.98,0.52 z"
     id="path1380" />
  <path
     class="cls-5"
     d="m 840,263.46 a 4.91,4.91 0 0 1 -2,-0.37 3.59,3.59 0 0 1 -1.33,-1 4.18,4.18 0 0 1 -0.73,-1.58 9.41,9.41 0 0 1 -0.22,-2.05 v -8.34 h -2.23 v -1.92 l 2.36,-0.16 0.31,-4.21 h 2.14 v 4.21 h 4.06 v 2.08 h -4.06 v 8.4 a 3.82,3.82 0 0 0 0.51,2.15 2,2 0 0 0 1.81,0.76 3.49,3.49 0 0 0 0.87,-0.12 5.51,5.51 0 0 0 0.84,-0.28 l 0.49,1.92 a 11.2,11.2 0 0 1 -1.34,0.39 6.59,6.59 0 0 1 -1.48,0.12 z"
     id="path1382" />
  <path
     class="cls-5"
     d="m 847,244.92 a 1.77,1.77 0 0 1 -1.25,-0.46 1.5,1.5 0 0 1 -0.52,-1.18 1.48,1.48 0 0 1 0.52,-1.19 1.81,1.81 0 0 1 1.25,-0.45 1.84,1.84 0 0 1 1.26,0.45 1.5,1.5 0 0 1 0.51,1.19 1.52,1.52 0 0 1 -0.51,1.18 1.8,1.8 0 0 1 -1.26,0.46 z m -1.3,3.1 h 2.54 v 15.07 h -2.54 z"
     id="path1384" />
  <path
     class="cls-5"
     d="m 859.21,263.46 a 6.81,6.81 0 0 1 -2.65,-0.53 6.56,6.56 0 0 1 -2.21,-1.53 7.45,7.45 0 0 1 -1.54,-2.48 9.15,9.15 0 0 1 -0.57,-3.33 9.3,9.3 0 0 1 0.57,-3.37 7.6,7.6 0 0 1 1.54,-2.49 6.47,6.47 0 0 1 2.21,-1.55 6.89,6.89 0 0 1 5.3,0 6.42,6.42 0 0 1 2.22,1.55 7.78,7.78 0 0 1 1.54,2.49 9.3,9.3 0 0 1 0.57,3.37 9.15,9.15 0 0 1 -0.57,3.33 7.62,7.62 0 0 1 -1.54,2.48 6.5,6.5 0 0 1 -2.22,1.53 6.78,6.78 0 0 1 -2.65,0.53 z m 0,-2.11 a 3.79,3.79 0 0 0 1.77,-0.42 4,4 0 0 0 1.38,-1.17 5.51,5.51 0 0 0 0.88,-1.82 8.2,8.2 0 0 0 0.31,-2.35 8.35,8.35 0 0 0 -0.31,-2.37 5.67,5.67 0 0 0 -0.88,-1.85 3.92,3.92 0 0 0 -1.38,-1.19 3.79,3.79 0 0 0 -1.77,-0.42 3.72,3.72 0 0 0 -1.76,0.42 3.92,3.92 0 0 0 -1.38,1.19 5.68,5.68 0 0 0 -0.89,1.85 8.72,8.72 0 0 0 -0.31,2.37 8.57,8.57 0 0 0 0.31,2.35 5.52,5.52 0 0 0 0.89,1.82 4,4 0 0 0 1.38,1.17 3.72,3.72 0 0 0 1.76,0.42 z"
     id="path1386" />
  <path
     class="cls-5"
     d="m 870.16,248.02 h 2.1 l 0.22,2.17 h 0.09 a 12.57,12.57 0 0 1 2.28,-1.81 5.2,5.2 0 0 1 2.78,-0.73 4.07,4.07 0 0 1 3.49,1.49 7.38,7.38 0 0 1 1.1,4.4 v 9.55 h -2.55 v -9.21 a 5.34,5.34 0 0 0 -0.68,-3.08 2.49,2.49 0 0 0 -2.17,-0.95 3.75,3.75 0 0 0 -2.08,0.59 12.83,12.83 0 0 0 -2,1.74 v 10.91 h -2.54 z"
     id="path1388" />
  <path
     class="cls-5"
     d="m 888.45,263.46 a 1.8,1.8 0 0 1 -1.32,-0.54 1.87,1.87 0 0 1 -0.54,-1.38 2,2 0 0 1 0.54,-1.44 1.8,1.8 0 0 1 1.32,-0.55 1.76,1.76 0 0 1 1.28,0.55 2,2 0 0 1 0.55,1.44 1.88,1.88 0 0 1 -0.55,1.38 1.75,1.75 0 0 1 -1.28,0.54 z"
     id="path1390" />
  <path
     class="cls-5"
     d="m 424.26,292.42 -6.11,-12.47 h 2.76 l 2.64,5.74 c 0.33,0.74 0.65,1.48 1,2.2 0.35,0.72 0.64,1.47 1,2.23 h 0.12 c 0.35,-0.76 0.71,-1.51 1.06,-2.23 0.35,-0.72 0.68,-1.46 1,-2.2 l 2.6,-5.74 H 433 l -6.11,12.47 v 7.87 h -2.6 z"
     id="path1392" />
  <path
     class="cls-5"
     d="m 440.07,300.66 a 6.64,6.64 0 0 1 -2.65,-0.53 6.5,6.5 0 0 1 -2.22,-1.53 7.43,7.43 0 0 1 -1.53,-2.48 9.15,9.15 0 0 1 -0.57,-3.33 9.34,9.34 0 0 1 0.57,-3.37 7.58,7.58 0 0 1 1.53,-2.49 6.42,6.42 0 0 1 2.22,-1.55 6.89,6.89 0 0 1 5.3,0 6.42,6.42 0 0 1 2.22,1.55 7.58,7.58 0 0 1 1.53,2.49 9.33,9.33 0 0 1 0.58,3.37 9.15,9.15 0 0 1 -0.58,3.33 7.43,7.43 0 0 1 -1.53,2.48 6.5,6.5 0 0 1 -2.22,1.53 6.64,6.64 0 0 1 -2.65,0.53 z m 0,-2.11 a 3.79,3.79 0 0 0 1.77,-0.42 4.27,4.27 0 0 0 1.38,-1.17 5.82,5.82 0 0 0 0.88,-1.82 8.15,8.15 0 0 0 0.31,-2.35 8.35,8.35 0 0 0 -0.31,-2.37 5.88,5.88 0 0 0 -0.88,-1.85 4.1,4.1 0 0 0 -1.38,-1.19 3.94,3.94 0 0 0 -3.54,0 4.1,4.1 0 0 0 -1.38,1.19 5.88,5.88 0 0 0 -0.88,1.85 8.35,8.35 0 0 0 -0.31,2.37 8.15,8.15 0 0 0 0.31,2.35 5.82,5.82 0 0 0 0.88,1.82 4.27,4.27 0 0 0 1.38,1.17 3.79,3.79 0 0 0 1.77,0.39 z"
     id="path1394" />
  <path
     class="cls-5"
     d="m 455.42,300.66 a 4.05,4.05 0 0 1 -3.52,-1.49 7.3,7.3 0 0 1 -1.1,-4.4 v -9.55 h 2.57 v 9.21 a 5.41,5.41 0 0 0 0.63,3.09 2.42,2.42 0 0 0 2.15,1 3.59,3.59 0 0 0 2.08,-0.61 9.46,9.46 0 0 0 2,-1.93 v -10.76 h 2.54 v 15.07 h -2.11 l -0.21,-2.36 h -0.09 a 10.4,10.4 0 0 1 -2.22,2 5,5 0 0 1 -2.72,0.73 z"
     id="path1396" />
  <path
     class="cls-5"
     d="m 480,300.66 a 7.22,7.22 0 0 1 -2.79,-0.53 6.25,6.25 0 0 1 -2.25,-1.53 7.2,7.2 0 0 1 -1.49,-2.48 9.61,9.61 0 0 1 -0.54,-3.33 9.12,9.12 0 0 1 0.59,-3.37 7.52,7.52 0 0 1 1.58,-2.49 6.58,6.58 0 0 1 2.31,-1.55 7.43,7.43 0 0 1 2.78,-0.53 5.67,5.67 0 0 1 2.54,0.53 8.49,8.49 0 0 1 1.86,1.24 l -1.31,1.67 a 6.34,6.34 0 0 0 -1.38,-1 3.45,3.45 0 0 0 -1.62,-0.37 4.29,4.29 0 0 0 -1.89,0.42 4.18,4.18 0 0 0 -1.49,1.19 5.82,5.82 0 0 0 -1,1.85 7.37,7.37 0 0 0 -0.35,2.37 7.49,7.49 0 0 0 0.34,2.35 5.7,5.7 0 0 0 0.94,1.82 4.38,4.38 0 0 0 1.47,1.17 4.3,4.3 0 0 0 1.9,0.42 4.19,4.19 0 0 0 1.93,-0.45 7.7,7.7 0 0 0 1.6,-1.07 l 1.12,1.71 a 8.13,8.13 0 0 1 -2.27,1.41 6.73,6.73 0 0 1 -2.58,0.55 z"
     id="path1398" />
  <path
     class="cls-5"
     d="m 491.37,300.66 a 4.51,4.51 0 0 1 -3.14,-1.12 4,4 0 0 1 -1.26,-3.16 4.18,4.18 0 0 1 2.2,-3.79 18.16,18.16 0 0 1 7,-1.85 7.23,7.23 0 0 0 -0.14,-1.4 3.36,3.36 0 0 0 -0.48,-1.2 2.56,2.56 0 0 0 -1,-0.86 3.28,3.28 0 0 0 -1.53,-0.32 6.13,6.13 0 0 0 -2.45,0.49 12.62,12.62 0 0 0 -2,1.12 l -1,-1.77 a 16.66,16.66 0 0 1 2.63,-1.28 8.43,8.43 0 0 1 3.34,-0.64 4.61,4.61 0 0 1 4,1.69 7.44,7.44 0 0 1 1.24,4.51 v 9.24 h -2.1 l -0.22,-1.8 h -0.09 a 12.65,12.65 0 0 1 -2.37,1.5 5.72,5.72 0 0 1 -2.63,0.64 z m 0.75,-2 a 4.29,4.29 0 0 0 2,-0.51 10.18,10.18 0 0 0 2.05,-1.5 v -4.23 a 26.44,26.44 0 0 0 -3.18,0.58 8.42,8.42 0 0 0 -2.07,0.81 3.16,3.16 0 0 0 -1.15,1.07 2.52,2.52 0 0 0 -0.36,1.32 2.14,2.14 0 0 0 0.78,1.86 3.13,3.13 0 0 0 1.93,0.55 z"
     id="path1400" />
  <path
     class="cls-5"
     d="m 503.53,285.22 h 2.1 l 0.22,2.17 h 0.09 a 13,13 0 0 1 2.28,-1.81 5.2,5.2 0 0 1 2.78,-0.73 4,4 0 0 1 3.48,1.49 7.3,7.3 0 0 1 1.11,4.4 v 9.55 H 513 v -9.21 a 5.34,5.34 0 0 0 -0.68,-3.08 2.49,2.49 0 0 0 -2.17,-1 3.75,3.75 0 0 0 -2.08,0.59 12.83,12.83 0 0 0 -2,1.74 v 10.91 h -2.54 z"
     id="path1402" />
  <path
     class="cls-5"
     d="m 532.79,300.66 a 7.44,7.44 0 0 1 -2.84,-0.54 6.78,6.78 0 0 1 -2.29,-1.55 7.08,7.08 0 0 1 -1.53,-2.47 9,9 0 0 1 -0.56,-3.31 9.25,9.25 0 0 1 0.57,-3.34 7.73,7.73 0 0 1 1.52,-2.49 6.8,6.8 0 0 1 2.15,-1.57 6.14,6.14 0 0 1 2.52,-0.54 6.27,6.27 0 0 1 2.55,0.5 4.87,4.87 0 0 1 1.89,1.42 6.54,6.54 0 0 1 1.17,2.24 10,10 0 0 1 0.4,2.91 c 0,0.27 0,0.53 0,0.79 a 4.06,4.06 0 0 1 -0.07,0.67 h -10.19 a 5.84,5.84 0 0 0 1.5,3.82 4.61,4.61 0 0 0 3.52,1.41 5.87,5.87 0 0 0 2,-0.32 9.12,9.12 0 0 0 1.75,-0.85 l 0.9,1.67 a 13.26,13.26 0 0 1 -2.2,1.09 7.68,7.68 0 0 1 -2.76,0.46 z m 3.32,-9.11 a 5.4,5.4 0 0 0 -1,-3.49 3.33,3.33 0 0 0 -2.74,-1.19 4,4 0 0 0 -1.54,0.3 4.16,4.16 0 0 0 -1.31,0.92 4.85,4.85 0 0 0 -1,1.47 6.52,6.52 0 0 0 -0.51,2 z"
     id="path1404" />
  <path
     class="cls-5"
     d="m 542.06,285.22 h 2.11 l 0.21,2.17 h 0.1 a 12.33,12.33 0 0 1 2.28,-1.81 5.16,5.16 0 0 1 2.77,-0.73 4.07,4.07 0 0 1 3.49,1.49 7.38,7.38 0 0 1 1.1,4.4 v 9.55 h -2.54 v -9.21 a 5.33,5.33 0 0 0 -0.69,-3.08 2.48,2.48 0 0 0 -2.17,-1 3.72,3.72 0 0 0 -2.07,0.59 12.84,12.84 0 0 0 -2,1.74 v 10.91 h -2.54 z"
     id="path1406" />
  <path
     class="cls-5"
     d="m 557.47,307.01 a 6.19,6.19 0 0 1 -1.28,-0.12 5.85,5.85 0 0 1 -1,-0.28 l 0.53,-1.92 a 6,6 0 0 0 0.65,0.17 4,4 0 0 0 0.78,0.08 1.49,1.49 0 0 0 1.49,-0.78 5.23,5.23 0 0 0 0.37,-2.17 v -16.77 h 2.54 v 16.77 a 6.4,6.4 0 0 1 -0.93,3.66 3.58,3.58 0 0 1 -3.15,1.36 z m 2.88,-24.89 a 1.8,1.8 0 0 1 -1.26,-0.46 1.52,1.52 0 0 1 -0.51,-1.18 1.5,1.5 0 0 1 0.51,-1.19 1.84,1.84 0 0 1 1.26,-0.45 1.79,1.79 0 0 1 1.22,0.45 1.5,1.5 0 0 1 0.51,1.19 1.52,1.52 0 0 1 -0.51,1.18 1.75,1.75 0 0 1 -1.22,0.46 z"
     id="path1408" />
  <path
     class="cls-5"
     d="m 572.53,300.66 a 6.64,6.64 0 0 1 -2.65,-0.53 6.5,6.5 0 0 1 -2.22,-1.53 7.43,7.43 0 0 1 -1.53,-2.48 9.15,9.15 0 0 1 -0.57,-3.33 9.34,9.34 0 0 1 0.57,-3.37 7.58,7.58 0 0 1 1.53,-2.49 6.42,6.42 0 0 1 2.22,-1.55 6.89,6.89 0 0 1 5.3,0 6.42,6.42 0 0 1 2.22,1.55 7.58,7.58 0 0 1 1.53,2.49 9.33,9.33 0 0 1 0.58,3.37 9.15,9.15 0 0 1 -0.58,3.33 7.43,7.43 0 0 1 -1.53,2.48 6.5,6.5 0 0 1 -2.22,1.53 6.6,6.6 0 0 1 -2.65,0.53 z m 0,-2.11 a 3.79,3.79 0 0 0 1.77,-0.42 4.07,4.07 0 0 0 1.38,-1.17 5.82,5.82 0 0 0 0.88,-1.82 8.15,8.15 0 0 0 0.31,-2.35 8.35,8.35 0 0 0 -0.31,-2.37 5.88,5.88 0 0 0 -0.88,-1.85 3.92,3.92 0 0 0 -1.38,-1.19 3.94,3.94 0 0 0 -3.54,0 4,4 0 0 0 -1.37,1.19 5.68,5.68 0 0 0 -0.89,1.85 8.35,8.35 0 0 0 -0.31,2.37 8.15,8.15 0 0 0 0.31,2.35 5.62,5.62 0 0 0 0.89,1.82 4.14,4.14 0 0 0 1.37,1.17 3.79,3.79 0 0 0 1.77,0.39 z"
     id="path1410" />
  <path
     class="cls-5"
     d="m 583.6,306.77 a 5.64,5.64 0 0 1 -1,-0.08 4,4 0 0 1 -0.81,-0.23 l 0.5,-2 0.56,0.14 a 2.45,2.45 0 0 0 0.58,0.08 2.77,2.77 0 0 0 2.13,-0.91 6.59,6.59 0 0 0 1.29,-2.31 l 0.34,-1.12 -6.05,-15.1 h 2.64 l 3.07,8.34 c 0.22,0.66 0.46,1.36 0.72,2.09 0.26,0.73 0.5,1.46 0.73,2.16 h 0.13 c 0.22,-0.68 0.44,-1.4 0.65,-2.14 0.21,-0.74 0.41,-1.45 0.62,-2.11 l 2.69,-8.34 h 2.48 l -5.63,16.28 a 18.86,18.86 0 0 1 -0.9,2.08 6.55,6.55 0 0 1 -1.18,1.65 4.93,4.93 0 0 1 -1.55,1.1 4.71,4.71 0 0 1 -2.01,0.42 z"
     id="path1412" />
  <path
     class="cls-5"
     d="m 613.85,283.83 a 4.52,4.52 0 0 0 -1.47,-1.13 4,4 0 0 0 -1.78,-0.42 4.54,4.54 0 0 0 -2,0.43 4.34,4.34 0 0 0 -1.65,1.43 8.1,8.1 0 0 0 -1.14,2.59 16,16 0 0 0 -0.47,3.95 7.25,7.25 0 0 1 2.17,-1.82 5.18,5.18 0 0 1 2.45,-0.66 5.59,5.59 0 0 1 4.11,1.52 6.2,6.2 0 0 1 1.53,4.59 6.85,6.85 0 0 1 -0.46,2.58 6.11,6.11 0 0 1 -1.27,2 5.87,5.87 0 0 1 -1.86,1.31 5.58,5.58 0 0 1 -2.27,0.46 6.2,6.2 0 0 1 -2.69,-0.59 5.8,5.8 0 0 1 -2.16,-1.78 9.09,9.09 0 0 1 -1.44,-3 14.78,14.78 0 0 1 -0.53,-4.17 18.07,18.07 0 0 1 0.62,-5.06 9.79,9.79 0 0 1 1.68,-3.41 6.52,6.52 0 0 1 2.4,-1.93 6.89,6.89 0 0 1 2.84,-0.6 6,6 0 0 1 2.77,0.6 7.42,7.42 0 0 1 2,1.51 z m -4.06,14.82 a 3.13,3.13 0 0 0 1.37,-0.31 3.26,3.26 0 0 0 1.08,-0.89 4.22,4.22 0 0 0 0.73,-1.36 5.51,5.51 0 0 0 0.26,-1.78 4.8,4.8 0 0 0 -0.89,-3.07 3.32,3.32 0 0 0 -2.76,-1.12 4.19,4.19 0 0 0 -2,0.61 6.39,6.39 0 0 0 -2.1,2 8.79,8.79 0 0 0 1.35,4.42 3.51,3.51 0 0 0 2.96,1.5 z"
     id="path1414" />
  <path
     class="cls-5"
     d="M 624.61,300.66 A 5.26,5.26 0 0 1 619.93,298 c -1.12,-1.78 -1.67,-4.33 -1.67,-7.66 0,-3.33 0.55,-5.86 1.67,-7.6 a 5.49,5.49 0 0 1 9.33,0 c 1.12,1.74 1.67,4.27 1.67,7.6 0,3.33 -0.55,5.88 -1.67,7.66 a 5.23,5.23 0 0 1 -4.65,2.66 z m 0,-2 a 2.72,2.72 0 0 0 1.57,-0.48 4,4 0 0 0 1.21,-1.48 9.5,9.5 0 0 0 0.79,-2.58 22.17,22.17 0 0 0 0.28,-3.73 21.88,21.88 0 0 0 -0.28,-3.72 9.11,9.11 0 0 0 -0.79,-2.53 3.93,3.93 0 0 0 -1.21,-1.44 2.79,2.79 0 0 0 -1.57,-0.47 2.84,2.84 0 0 0 -1.58,0.47 3.68,3.68 0 0 0 -1.22,1.44 8.77,8.77 0 0 0 -0.8,2.53 22,22 0 0 0 -0.27,3.72 c 0,2.89 0.35,5 1.07,6.31 a 3.16,3.16 0 0 0 2.8,1.91 z"
     id="path1416" />
  <path
     class="cls-5"
     d="m 641,285.22 h 2.11 l 0.22,2.17 h 0.09 a 10.71,10.71 0 0 1 2.15,-1.81 4.66,4.66 0 0 1 2.53,-0.73 4.28,4.28 0 0 1 2.71,0.76 4.46,4.46 0 0 1 1.44,2.12 13.15,13.15 0 0 1 2.38,-2.09 4.53,4.53 0 0 1 2.58,-0.79 4.07,4.07 0 0 1 3.46,1.49 7.23,7.23 0 0 1 1.13,4.4 v 9.55 h -2.5 v -9.21 a 5.42,5.42 0 0 0 -0.68,-3.08 2.44,2.44 0 0 0 -2.11,-1 q -1.71,0 -3.78,2.33 v 10.91 h -2.54 v -9.21 a 5.33,5.33 0 0 0 -0.69,-3.08 2.45,2.45 0 0 0 -2.14,-1 q -1.7,0 -3.78,2.33 v 10.91 H 641 Z"
     id="path1418" />
  <path
     class="cls-5"
     d="m 668,282.12 a 1.79,1.79 0 0 1 -1.25,-0.46 1.5,1.5 0 0 1 -0.52,-1.18 1.48,1.48 0 0 1 0.52,-1.19 2,2 0 0 1 2.51,0 1.5,1.5 0 0 1 0.51,1.19 1.52,1.52 0 0 1 -0.51,1.18 1.8,1.8 0 0 1 -1.26,0.46 z m -1.3,3.1 h 2.54 v 15.07 h -2.54 z"
     id="path1420" />
  <path
     class="cls-5"
     d="m 674.36,285.22 h 2.11 l 0.22,2.17 h 0.09 a 13,13 0 0 1 2.28,-1.81 5.2,5.2 0 0 1 2.78,-0.73 4,4 0 0 1 3.48,1.49 7.3,7.3 0 0 1 1.1,4.4 v 9.55 h -2.54 v -9.21 a 5.42,5.42 0 0 0 -0.68,-3.08 2.49,2.49 0 0 0 -2.17,-1 3.73,3.73 0 0 0 -2.08,0.59 12.83,12.83 0 0 0 -2,1.74 v 10.91 h -2.55 z"
     id="path1422" />
  <path
     class="cls-5"
     d="m 695.72,300.66 a 4,4 0 0 1 -3.51,-1.49 7.3,7.3 0 0 1 -1.11,-4.4 v -9.55 h 2.58 v 9.21 a 5.5,5.5 0 0 0 0.66,3.08 2.45,2.45 0 0 0 2.16,1 3.61,3.61 0 0 0 2.08,-0.61 9.46,9.46 0 0 0 2,-1.93 v -10.75 h 2.54 v 15.07 H 701 l -0.21,-2.36 h -0.1 a 10.13,10.13 0 0 1 -2.21,2 5,5 0 0 1 -2.76,0.73 z"
     id="path1424" />
  <path
     class="cls-5"
     d="m 712.93,300.66 a 4.88,4.88 0 0 1 -2,-0.37 3.54,3.54 0 0 1 -1.34,-1 3.9,3.9 0 0 1 -0.72,-1.58 8.62,8.62 0 0 1 -0.22,-2 v -8.34 h -2.23 v -1.92 l 2.35,-0.16 0.31,-4.21 h 2.14 v 4.21 h 4.06 v 2.08 h -4.06 v 8.37 a 3.82,3.82 0 0 0 0.51,2.15 2,2 0 0 0 1.82,0.76 3.49,3.49 0 0 0 0.87,-0.12 6.7,6.7 0 0 0 0.83,-0.28 l 0.5,1.92 a 11.38,11.38 0 0 1 -1.35,0.39 6.57,6.57 0 0 1 -1.47,0.1 z"
     id="path1426" />
  <path
     class="cls-5"
     d="m 724.34,300.66 a 7.4,7.4 0 0 1 -2.84,-0.54 6.68,6.68 0 0 1 -2.29,-1.55 7,7 0 0 1 -1.54,-2.47 9.22,9.22 0 0 1 -0.56,-3.31 9,9 0 0 1 0.58,-3.34 7.73,7.73 0 0 1 1.52,-2.49 6.69,6.69 0 0 1 2.15,-1.57 6.1,6.1 0 0 1 2.51,-0.54 6.32,6.32 0 0 1 2.56,0.5 5,5 0 0 1 1.89,1.42 6.52,6.52 0 0 1 1.16,2.24 9.69,9.69 0 0 1 0.41,2.91 c 0,0.27 0,0.53 0,0.79 a 4,4 0 0 1 -0.08,0.67 h -10.17 a 5.9,5.9 0 0 0 1.51,3.82 4.61,4.61 0 0 0 3.52,1.41 5.87,5.87 0 0 0 2,-0.32 9.12,9.12 0 0 0 1.75,-0.85 l 0.9,1.67 a 13.26,13.26 0 0 1 -2.2,1.09 7.68,7.68 0 0 1 -2.78,0.46 z m 3.31,-9.11 a 5.4,5.4 0 0 0 -1,-3.49 3.34,3.34 0 0 0 -2.75,-1.19 4,4 0 0 0 -1.53,0.3 4.09,4.09 0 0 0 -1.32,0.92 4.82,4.82 0 0 0 -1,1.47 6.82,6.82 0 0 0 -0.52,2 z"
     id="path1428" />
  <path
     class="cls-5"
     d="m 737.54,300.66 a 8.18,8.18 0 0 1 -3.07,-0.59 9.45,9.45 0 0 1 -2.54,-1.49 l 1.27,-1.7 a 10.06,10.06 0 0 0 2,1.3 5.58,5.58 0 0 0 2.41,0.5 3.23,3.23 0 0 0 2.23,-0.68 2.22,2.22 0 0 0 0.74,-1.68 1.69,1.69 0 0 0 -0.31,-1 3,3 0 0 0 -0.79,-0.76 6,6 0 0 0 -1.1,-0.58 l -1.24,-0.49 c -0.54,-0.19 -1.07,-0.4 -1.61,-0.64 a 6,6 0 0 1 -1.44,-0.86 4.39,4.39 0 0 1 -1,-1.2 3.14,3.14 0 0 1 -0.4,-1.64 4,4 0 0 1 0.35,-1.69 3.9,3.9 0 0 1 1,-1.36 4.68,4.68 0 0 1 1.63,-0.9 6.68,6.68 0 0 1 2.17,-0.33 6.76,6.76 0 0 1 2.62,0.5 7.77,7.77 0 0 1 2.06,1.21 l -1.21,1.61 a 7.21,7.21 0 0 0 -1.61,-1 4.4,4.4 0 0 0 -1.83,-0.37 2.88,2.88 0 0 0 -2.09,0.65 2.07,2.07 0 0 0 -0.67,1.52 1.56,1.56 0 0 0 0.28,0.91 2.6,2.6 0 0 0 0.75,0.68 5.93,5.93 0 0 0 1.07,0.53 l 1.25,0.48 c 0.54,0.21 1.08,0.42 1.63,0.65 a 6.22,6.22 0 0 1 1.47,0.85 4.08,4.08 0 0 1 1.07,1.26 3.58,3.58 0 0 1 0.42,1.8 4.19,4.19 0 0 1 -0.36,1.73 3.93,3.93 0 0 1 -1,1.43 5,5 0 0 1 -1.74,1 7.2,7.2 0 0 1 -2.41,0.35 z"
     id="path1430" />
  <path
     class="cls-5"
     d="m 758.65,300.66 a 6.64,6.64 0 0 1 -2.65,-0.53 6.56,6.56 0 0 1 -2.21,-1.53 7.45,7.45 0 0 1 -1.54,-2.48 9.15,9.15 0 0 1 -0.57,-3.33 9.34,9.34 0 0 1 0.57,-3.37 7.6,7.6 0 0 1 1.54,-2.49 6.47,6.47 0 0 1 2.21,-1.55 6.89,6.89 0 0 1 5.3,0 6.42,6.42 0 0 1 2.22,1.55 7.58,7.58 0 0 1 1.53,2.49 9.13,9.13 0 0 1 0.58,3.37 9,9 0 0 1 -0.58,3.33 7.43,7.43 0 0 1 -1.53,2.48 6.5,6.5 0 0 1 -2.22,1.53 6.6,6.6 0 0 1 -2.65,0.53 z m 0,-2.11 a 3.79,3.79 0 0 0 1.77,-0.42 4.07,4.07 0 0 0 1.38,-1.17 5.61,5.61 0 0 0 0.88,-1.82 8.15,8.15 0 0 0 0.31,-2.35 8.35,8.35 0 0 0 -0.31,-2.37 5.67,5.67 0 0 0 -0.88,-1.85 3.92,3.92 0 0 0 -1.38,-1.19 3.79,3.79 0 0 0 -1.77,-0.42 3.72,3.72 0 0 0 -1.76,0.42 3.92,3.92 0 0 0 -1.38,1.19 5.68,5.68 0 0 0 -0.89,1.85 8.72,8.72 0 0 0 -0.31,2.37 8.52,8.52 0 0 0 0.31,2.35 5.62,5.62 0 0 0 0.89,1.82 4.07,4.07 0 0 0 1.38,1.17 3.72,3.72 0 0 0 1.76,0.39 z"
     id="path1432" />
  <path
     class="cls-5"
     d="m 776.39,280.29 a 4.32,4.32 0 0 0 -1.71,-0.37 c -1.41,0 -2.11,1 -2.11,2.92 v 2.38 h 3.19 v 2.08 h -3.19 v 13 H 770 v -13 h -2 v -1.92 l 2,-0.16 v -2.38 a 5.72,5.72 0 0 1 1.07,-3.66 4,4 0 0 1 3.33,-1.34 6.43,6.43 0 0 1 1.35,0.14 8.34,8.34 0 0 1 1.16,0.36 z"
     id="path1434" />
  <path
     class="cls-5"
     d="m 791.64,280.29 a 4.32,4.32 0 0 0 -1.71,-0.37 c -1.4,0 -2.11,1 -2.11,2.92 v 2.38 h 3.2 v 2.08 h -3.2 v 13 h -2.54 v -13 h -2 v -1.92 l 2,-0.16 v -2.38 a 5.72,5.72 0 0 1 1.07,-3.66 4,4 0 0 1 3.33,-1.34 6.43,6.43 0 0 1 1.35,0.14 7.94,7.94 0 0 1 1.16,0.36 z"
     id="path1436" />
  <path
     class="cls-5"
     d="m 793.9,285.22 h 2.1 l 0.21,2.73 h 0.1 a 6.93,6.93 0 0 1 1.87,-2.26 3.9,3.9 0 0 1 2.41,-0.84 4,4 0 0 1 1.61,0.31 l -0.5,2.23 a 5.79,5.79 0 0 0 -0.68,-0.18 4.22,4.22 0 0 0 -0.77,-0.06 3.32,3.32 0 0 0 -2,0.77 6.18,6.18 0 0 0 -1.82,2.7 v 9.67 h -2.54 z"
     id="path1438" />
  <path
     class="cls-5"
     d="m 810.45,300.66 a 7.35,7.35 0 0 1 -2.83,-0.54 6.72,6.72 0 0 1 -2.3,-1.55 7.08,7.08 0 0 1 -1.53,-2.47 10.07,10.07 0 0 1 0,-6.65 7.91,7.91 0 0 1 1.52,-2.49 6.73,6.73 0 0 1 2.16,-1.57 6.06,6.06 0 0 1 2.51,-0.54 6.35,6.35 0 0 1 2.56,0.5 5,5 0 0 1 1.89,1.42 6.7,6.7 0 0 1 1.16,2.24 9.7,9.7 0 0 1 0.4,2.91 c 0,0.27 0,0.53 0,0.79 a 4,4 0 0 1 -0.08,0.67 h -10.17 a 5.89,5.89 0 0 0 1.5,3.82 4.63,4.63 0 0 0 3.52,1.41 5.83,5.83 0 0 0 2,-0.32 8.84,8.84 0 0 0 1.75,-0.85 l 0.9,1.67 a 12.88,12.88 0 0 1 -2.2,1.09 7.61,7.61 0 0 1 -2.76,0.46 z m 3.32,-9.11 a 5.4,5.4 0 0 0 -1,-3.49 3.32,3.32 0 0 0 -2.74,-1.19 3.94,3.94 0 0 0 -1.53,0.3 4.09,4.09 0 0 0 -1.32,0.92 4.85,4.85 0 0 0 -1,1.47 6.52,6.52 0 0 0 -0.51,2 z"
     id="path1440" />
  <path
     class="cls-5"
     d="m 825.83,300.66 a 7.44,7.44 0 0 1 -2.84,-0.54 6.68,6.68 0 0 1 -2.29,-1.55 7.25,7.25 0 0 1 -1.54,-2.47 10.15,10.15 0 0 1 0,-6.65 7.73,7.73 0 0 1 1.52,-2.49 6.8,6.8 0 0 1 2.15,-1.57 6.13,6.13 0 0 1 2.51,-0.54 6.32,6.32 0 0 1 2.56,0.5 4.87,4.87 0 0 1 1.89,1.42 6.35,6.35 0 0 1 1.16,2.24 9.69,9.69 0 0 1 0.41,2.91 c 0,0.27 0,0.53 0,0.79 a 4.06,4.06 0 0 1 -0.07,0.67 h -10.17 a 5.84,5.84 0 0 0 1.5,3.82 4.61,4.61 0 0 0 3.52,1.41 5.87,5.87 0 0 0 2,-0.32 9.12,9.12 0 0 0 1.75,-0.85 l 0.9,1.67 a 13.26,13.26 0 0 1 -2.2,1.09 7.68,7.68 0 0 1 -2.76,0.46 z m 3.32,-9.11 a 5.4,5.4 0 0 0 -1,-3.49 3.33,3.33 0 0 0 -2.74,-1.19 4,4 0 0 0 -1.54,0.3 4.32,4.32 0 0 0 -1.32,0.92 5,5 0 0 0 -1,1.47 6.52,6.52 0 0 0 -0.51,2 z"
     id="path1442" />
  <path
     class="cls-5"
     d="m 839.47,279.95 h 2.67 l 2.13,11.07 c 0.19,1.12 0.39,2.21 0.59,3.29 0.2,1.08 0.41,2.17 0.59,3.28 h 0.13 c 0.22,-1.11 0.46,-2.21 0.71,-3.3 0.25,-1.09 0.48,-2.18 0.71,-3.27 l 2.82,-11.07 h 2.36 l 2.82,11.07 c 0.25,1.07 0.5,2.16 0.74,3.25 l 0.75,3.32 h 0.12 c 0.19,-1.11 0.37,-2.21 0.56,-3.3 0.19,-1.09 0.38,-2.18 0.59,-3.27 l 2.14,-11.07 h 2.48 l -4.22,20.34 h -3.1 L 852,288.04 q -0.27,-1.17 -0.51,-2.31 -0.24,-1.14 -0.48,-2.31 h -0.12 q -0.26,1.19 -0.51,2.31 c -0.18,0.76 -0.35,1.53 -0.52,2.31 l -3,12.25 h -3.07 z"
     id="path1444" />
  <path
     class="cls-5"
     d="m 867,282.12 a 1.8,1.8 0 0 1 -1.26,-0.46 1.52,1.52 0 0 1 -0.51,-1.18 1.5,1.5 0 0 1 0.51,-1.19 2,2 0 0 1 2.51,0 1.5,1.5 0 0 1 0.51,1.19 1.52,1.52 0 0 1 -0.51,1.18 1.79,1.79 0 0 1 -1.25,0.46 z m -1.31,3.1 h 2.55 v 15.07 h -2.55 z"
     id="path1446" />
  <path
     class="cls-5"
     d="m 872,291.52 h 7.13 v 2 H 872 Z"
     id="path1448" />
  <path
     class="cls-5"
     d="m 883.18,279.95 h 11.72 v 2.17 h -9.15 v 6.89 h 7.75 v 2.16 h -7.75 v 9.12 h -2.57 z"
     id="path1450" />
  <path
     class="cls-5"
     d="m 899.55,282.12 a 1.8,1.8 0 0 1 -1.26,-0.46 1.52,1.52 0 0 1 -0.51,-1.18 1.5,1.5 0 0 1 0.51,-1.19 2,2 0 0 1 2.51,0 1.5,1.5 0 0 1 0.51,1.19 1.52,1.52 0 0 1 -0.51,1.18 1.79,1.79 0 0 1 -1.25,0.46 z m -1.31,3.1 h 2.55 v 15.07 h -2.55 z"
     id="path1452" />
  <path
     class="cls-5"
     d="m 907.2,300.66 a 1.79,1.79 0 0 1 -1.31,-0.54 1.84,1.84 0 0 1 -0.55,-1.38 1.91,1.91 0 0 1 0.55,-1.44 1.79,1.79 0 0 1 1.31,-0.54 1.76,1.76 0 0 1 1.29,0.54 2,2 0 0 1 0.54,1.44 1.87,1.87 0 0 1 -0.54,1.38 1.76,1.76 0 0 1 -1.29,0.54 z"
     id="path1454" />
</svg>
