<?xml version="1.0" encoding="UTF-8" standalone="no"?>
<svg
   xmlns:dc="http://purl.org/dc/elements/1.1/"
   xmlns:cc="http://creativecommons.org/ns#"
   xmlns:rdf="http://www.w3.org/1999/02/22-rdf-syntax-ns#"
   xmlns:svg="http://www.w3.org/2000/svg"
   xmlns="http://www.w3.org/2000/svg"
   width="200"
   height="200"
   version="1.1"
   viewBox="0 0 150 150"
   id="svg4">
  <metadata
     id="metadata10">
    <rdf:RDF>
      <cc:Work
         rdf:about="">
        <dc:format>image/svg+xml</dc:format>
        <dc:type
           rdf:resource="http://purl.org/dc/dcmitype/StillImage" />
        <dc:title></dc:title>
      </cc:Work>
    </rdf:RDF>
  </metadata>
  <defs
     id="defs8" />
  <path
     d="m 114.44707,52.125483 c -0.63523,0.492844 -11.85026,6.812253 -11.85026,20.863895 0,16.253031 14.27068,22.002932 14.69782,22.145302 -0.0657,0.35047 -2.2671,7.87462 -7.52414,15.54115 -4.68753,6.74653 -9.58316,13.48212 -17.030642,13.48212 -7.447486,0 -9.364112,-4.3261 -17.961572,-4.3261 -8.378416,0 -11.35741,4.46848 -18.169663,4.46848 -6.812261,0 -11.565501,-6.24274 -17.030642,-13.90927 -6.330355,-9.00269 -11.445024,-22.988617 -11.445024,-36.262649 0,-21.291041 13.843551,-32.582733 27.468065,-32.582733 7.239389,0 13.274037,4.75324 17.819192,4.75324 4.326106,0 11.072649,-5.038001 19.308685,-5.038001 3.121374,0 14.336401,0.284761 21.718181,10.864566 z M 88.818966,32.247276 c 3.406127,-4.041351 5.815606,-9.648866 5.815606,-15.256381 0,-0.777606 -0.06568,-1.566163 -0.208091,-2.201387 -5.541805,0.20809 -12.135016,3.69088 -16.110657,8.301746 -3.121366,3.548507 -6.034648,9.156022 -6.034648,14.840199 0,0.854275 0.14238,1.708543 0.20809,1.982345 0.350473,0.06575 0.919987,0.142381 1.489501,0.142381 4.972283,0 11.225981,-3.329466 14.840199,-7.808903 z"
     id="path1713"
     style="stroke-width:0.109521" />
</svg>
