<?xml version="1.0" encoding="UTF-8" standalone="no"?>
<svg
   xmlns:dc="http://purl.org/dc/elements/1.1/"
   xmlns:cc="http://creativecommons.org/ns#"
   xmlns:rdf="http://www.w3.org/1999/02/22-rdf-syntax-ns#"
   xmlns:svg="http://www.w3.org/2000/svg"
   xmlns="http://www.w3.org/2000/svg"
   width="200"
   height="200"
   version="1.1"
   viewBox="0 0 150 150"
   id="svg4">
  <metadata
     id="metadata10">
    <rdf:RDF>
      <cc:Work
         rdf:about="">
        <dc:format>image/svg+xml</dc:format>
        <dc:type
           rdf:resource="http://purl.org/dc/dcmitype/StillImage" />
        <dc:title></dc:title>
      </cc:Work>
    </rdf:RDF>
  </metadata>
  <defs
     id="defs8" />
  <path
     style="fill:#000000;stroke-width:0.310765"
     d="m 93.160915,128.56678 c -1.08127,-0.38271 -2.35025,-1.53433 -4.30683,-3.90854 -1.14195,-1.38572 -14.354669,-1.87183 -21.104626,-0.77648 -3.562404,0.5781 -3.67468,0.62072 -4.300061,1.63262 -0.740511,1.19816 -2.719208,2.42861 -4.369861,2.71738 -1.641988,0.28726 -4.787807,-0.4557 -11.007838,-2.59978 -4.076118,-1.40506 -6.61818,-2.07261 -10.102549,-2.65295 -5.015503,-0.83538 -7.405773,-1.65969 -8.371087,-2.88688 -0.796212,-1.01223 -0.765094,-1.89096 0.170757,-4.82131 0.896103,-2.80591 0.958834,-4.35337 0.292863,-7.22498 -0.84673,-3.65104 0.05567,-4.88299 4.332462,-5.91479 3.992039,-0.96309 5.498127,-1.99104 7.142591,-4.875074 0.463646,-0.81314 1.167347,-1.69096 1.563762,-1.9507 0.656684,-0.43027 0.697061,-0.59921 0.454048,-1.89995 -0.371056,-1.986198 -0.0605,-3.569458 1.301447,-6.635368 0.645392,-1.45282 1.901159,-4.66924 2.790603,-7.14759 2.837289,-7.90592 3.597935,-9.28188 9.448711,-17.09208 3.329047,-4.44394 3.335289,-4.45694 3.572199,-7.4305 0.241987,-3.037313 0.219733,-3.970716 -0.30442,-12.769229 -0.336471,-5.648153 -0.321478,-6.700129 0.132259,-9.275475 0.936183,-5.313714 2.881261,-8.092633 7.066895,-10.096417 6.662225,-3.189411 13.989077,-2.528339 18.991385,1.713513 2.42026,2.052338 4.76162,6.651676 5.71584,11.228142 0.24381,1.169337 0.64231,5.227132 0.88554,9.017317 0.55677,8.676084 0.89405,9.880229 4.04591,14.444259 9.321645,13.49822 12.520345,18.78557 13.990855,23.12642 0.77846,2.29796 0.86915,2.98692 0.85001,6.457 -0.012,2.16537 -0.21773,4.746298 -0.46498,5.831668 -0.36059,1.5829 -0.36885,2.00912 -0.0442,2.2786 0.84798,0.70376 1.98338,3.520784 1.9851,4.925184 0.004,3.2431 1.38069,5.28329 4.68021,6.9357 2.56526,1.28469 3.38331,3.12579 2.3106,5.20019 -0.60909,1.17784 -1.79021,2.04129 -5.74948,4.20311 -5.64501,3.08224 -9.70622,5.66043 -12.19868,7.74413 -3.368847,2.81637 -6.304885,3.59817 -9.399485,2.50286 z m 6.589418,-3.99011 c 0.547597,-0.2838 2.247467,-1.59954 3.777477,-2.92387 2.11642,-1.83191 4.00831,-3.06319 7.90921,-5.14753 5.31666,-2.84081 6.32424,-3.58011 6.00675,-4.40746 -0.10317,-0.26886 -1.24027,-1.14809 -2.52691,-1.95386 -1.94705,-1.21937 -2.466,-1.72559 -3.09482,-3.01886 -0.41552,-0.8546 -0.85119,-2.39288 -0.96815,-3.41841 -0.2174,-1.90613 -0.58214,-2.95227 -1.02934,-2.95227 -0.13816,0 -0.70803,0.66945 -1.26638,1.48767 -1.74089,2.55116 -4.80746,3.99024 -7.94789,3.72981 -2.669007,-0.22133 -3.856255,-1.57563 -4.162205,-4.74783 -0.19503,-2.022154 -0.73734,-2.508934 -1.7107,-1.535574 -0.45467,0.454684 -0.49323,1.024354 -0.31133,4.599314 0.21439,4.2136 0.0363,6.0988 -1.14873,12.16024 -0.65689,3.35994 -0.57504,4.84821 0.36909,6.71168 1.1933,2.35524 3.33446,2.85229 6.103928,1.41695 z m -40.784819,-0.0699 c 1.233924,-0.80849 2.65316,-3.19762 2.649718,-4.46047 -0.004,-1.51886 -1.152262,-3.8151 -3.145905,-6.29184 -0.917357,-1.13965 -3.136287,-4.48106 -4.930949,-7.42534 -4.567161,-7.492754 -7.189568,-10.021534 -8.761962,-8.449144 -0.319617,0.31963 -1.101009,1.46906 -1.736425,2.554314 -1.467134,2.50576 -2.114485,2.9619 -5.331977,3.75703 -1.44257,0.3565 -3.033934,0.86076 -3.536363,1.12058 l -0.913511,0.47239 0.234811,2.37963 c 0.313893,3.18103 0.241425,4.18369 -0.477639,6.60846 -0.791227,2.66811 -0.767987,3.26638 0.150237,3.86802 0.417563,0.27361 3.03923,0.91714 5.825934,1.4301 3.913495,0.72036 5.951097,1.28513 8.952206,2.48128 4.430195,1.76576 8.153585,2.79344 9.400231,2.59455 0.469299,-0.0749 1.19902,-0.36268 1.621594,-0.63956 z m 16.326413,-7.41872 c 1.965598,-0.23558 4.412873,-0.73818 5.438395,-1.11687 2.578323,-0.9521 6.613133,-3.68266 8.512483,-5.76084 l 1.58738,-1.73685 0.0192,-3.47106 c 0.0106,-1.90909 0.12237,-4.50126 0.24843,-5.760394 0.27361,-2.73262 0.67387,-3.14907 3.02672,-3.14907 h 1.62173 l 0.39981,-2.25304 c 0.57313,-3.229778 0.4833,-9.246608 -0.17515,-11.731378 -2.12932,-8.03538 -10.64648,-28.132351 -12.170412,-28.717143 -0.24801,-0.09517 -1.949254,0.614281 -3.780534,1.576563 -1.831286,0.96228 -4.48904,2.35825 -5.906119,3.10217 -1.417085,0.74391 -2.994979,1.35256 -3.50643,1.35256 -1.382732,0 -3.723052,-1.31456 -5.856039,-3.28932 l -1.892395,-1.75203 0.108959,0.99528 c 0.25422,2.32219 -1.390164,7.14662 -3.307177,9.70288 -1.153182,1.53773 -1.846967,3.06227 -3.648254,8.01686 -0.901028,2.47835 -2.230461,5.65848 -2.954298,7.06696 -1.766893,3.43816 -2.461122,6.31059 -2.4605,10.18049 4.5e-4,2.575118 0.122132,3.373918 0.710327,4.661478 0.919641,2.01312 1.52717,2.63076 6.73642,6.848464 2.392891,1.93743 4.665358,3.99464 5.04993,4.5716 1.288129,1.9325 0.607834,4.47262 -1.402576,5.23698 -0.882533,0.33553 -1.088267,-0.0318 1.931092,3.44832 1.370876,1.5801 2.038807,2.11043 2.774976,2.20331 2.11882,0.26733 5.493911,0.18159 8.894036,-0.22592 z m 1.834172,-63.055932 c 6.192217,-3.57271 6.153164,-3.961314 -0.660841,-6.574838 -2.003943,-0.768609 -4.050712,-1.397479 -4.548375,-1.397479 -0.998781,0 -3.613504,1.646899 -6.098588,3.841226 -1.439572,1.271157 -1.527198,1.430178 -1.239286,2.248882 0.31975,0.909189 3.203044,3.432489 4.921418,4.306969 1.531374,0.77929 2.736643,0.39605 7.625672,-2.42476 z M 65.626111,47.10391 66.35384,46.594194 65.437621,46.208953 c -1.701027,-0.715225 -2.463275,-3.547377 -1.471133,-5.465978 0.402862,-0.779041 0.644273,-0.919198 1.445417,-0.839171 1.434283,0.143281 2.266285,1.441431 2.266285,3.536052 0,0.927087 0.06991,1.647714 0.155374,1.601392 2.099419,-1.137858 2.171609,-1.243707 2.166571,-3.176778 -0.0089,-3.404612 -1.686608,-5.749152 -4.114065,-5.749152 -3.819814,0 -5.439323,7.489602 -2.334213,10.794846 0.787283,0.838019 1.111223,0.868276 2.074254,0.193746 z m 17.388441,-1.339997 c 2.646443,-3.653305 1.662883,-8.693614 -2.013846,-10.320003 -1.551807,-0.686435 -3.131402,-0.444861 -4.589196,0.701839 -2.677884,2.106416 -3.042294,7.573076 -0.571667,8.575451 l 1.014079,0.41142 -0.189351,-1.184087 c -0.38174,-2.387245 1.479929,-4.847328 3.20348,-4.233245 2.059134,0.733639 2.793462,3.807864 1.369605,5.733733 -0.594324,0.803877 -0.654056,1.046863 -0.310768,1.264339 0.766915,0.485848 1.186007,0.295246 2.087664,-0.949447 z"
     id="path2133" />
</svg>
