<?xml version="1.0" encoding="UTF-8" standalone="no"?>
<svg
   xmlns:dc="http://purl.org/dc/elements/1.1/"
   xmlns:cc="http://creativecommons.org/ns#"
   xmlns:rdf="http://www.w3.org/1999/02/22-rdf-syntax-ns#"
   xmlns:svg="http://www.w3.org/2000/svg"
   xmlns="http://www.w3.org/2000/svg"
   xmlns:sodipodi="http://sodipodi.sourceforge.net/DTD/sodipodi-0.dtd"
   xmlns:inkscape="http://www.inkscape.org/namespaces/inkscape"
   viewBox="0 0 150 174.85672"
   version="1.1"
   id="svg431"
   sodipodi:docname="tails-persistent-storage.svg"
   width="150"
   height="174.85672"
   inkscape:version="1.0.1 (3bc2e813f5, 2020-09-07)">
  <metadata
     id="metadata435">
    <rdf:RDF>
      <cc:Work
         rdf:about="">
        <dc:format>image/svg+xml</dc:format>
        <dc:type
           rdf:resource="http://purl.org/dc/dcmitype/StillImage" />
      </cc:Work>
    </rdf:RDF>
  </metadata>
  <sodipodi:namedview
     pagecolor="#ffffff"
     bordercolor="#666666"
     borderopacity="1"
     objecttolerance="10"
     gridtolerance="10"
     guidetolerance="10"
     inkscape:pageopacity="0"
     inkscape:pageshadow="2"
     inkscape:window-width="1621"
     inkscape:window-height="962"
     id="namedview433"
     showgrid="false"
     inkscape:zoom="2.0575"
     inkscape:cx="-25.665457"
     inkscape:cy="84.434096"
     inkscape:window-x="0"
     inkscape:window-y="27"
     inkscape:window-maximized="0"
     inkscape:current-layer="svg431" />
  <defs
     id="defs4">
    <style
       id="style2">.cls-1{fill:#d6d7d9;}.cls-2{fill:#b5b7b9;}.cls-3{fill:#fff;}.cls-4{fill:#58595b;}.cls-5,.cls-8{fill:#393a35;}.cls-13,.cls-5{opacity:0.44;}.cls-12,.cls-6{fill:none;}.cls-7{fill:#a0a2a5;}.cls-9{fill:#9c6bad;}.cls-10{fill:#7a478b;}.cls-11{fill:#af97c7;}.cls-12{stroke:#393a35;stroke-miterlimit:10;}</style>
  </defs>
  <title
     id="title6">tails_2.3_persistent</title>
  <g
     id="Layer_7"
     data-name="Layer 7"
     transform="matrix(0.4698868,0,0,0.4698868,-9.1986174,-7.9559643)">
    <path
       class="cls-1"
       d="m 221,20.87 c 78.82,-8.58 118.13,66.47 117.8,163.42 -0.33,96.95 -22.7,186.21 -89.13,200.86 -66.43,14.65 -231,-9.74 -230.09,-110.1 0.35,-40 31.21,-49.83 34.74,-94.31 C 58.43,128.88 85.77,35.59 221,20.87 Z"
       id="path8" />
    <path
       class="cls-2"
       d="m 249.67,385.15 c 56.08,-12.37 80.76,-77.91 87.28,-156.37 -3.71,-11.3 -8.69,-18.08 -15.33,-17.73 -36.33,1.92 -38.31,98.48 -46.33,128.75 -2.07,-21.25 4.44,-128.89 -47.27,-130.21 -51.71,-1.32 -78.14,85 -88.17,115 C 140.19,282.26 98.62,224.08 61.21,226.7 38.32,228.3 25.94,254 19.63,278.5 22.51,376 184,399.62 249.67,385.15 Z"
       id="path10" />
    <path
       class="cls-3"
       d="m 243.17,201.87 a 31.56,31.56 0 0 0 -5.9,0.57 19.88,19.88 0 0 0 -5.35,1.88 17.29,17.29 0 0 0 -4.53,3.38 22.61,22.61 0 0 0 -1.92,2.19 c -0.63,0.76 -1.13,1.62 -1.79,2.43 a 20.92,20.92 0 0 1 0.94,-2.94 14.31,14.31 0 0 1 1.59,-2.69 13.36,13.36 0 0 1 4.78,-4.14 14.58,14.58 0 0 1 6.09,-1.65 14,14 0 0 1 6.09,0.97 z"
       id="path12" />
  </g>
  <g
     id="Layer_9"
     data-name="Layer 9"
     transform="matrix(0.4698868,0,0,0.4698868,-9.1986174,-7.9559643)">
    <path
       class="cls-4"
       d="m 77.67,359.6 c 1.86,1 13.45,6.54 18.11,8.52 20.24,8.62 36.36,11.56 43.47,13.4 9.05,2.34 22.44,4.1 31.68,5.32 5.4,0.87 16.72,1.51 17.16,1.57 a 79.85,79.85 0 0 1 1,-12.38 c 1.32,-11.12 -1,-32.2 -2.66,-41.11 -1.66,-8.91 -0.71,-19.75 0.08,-30.65 0.79,-10.9 -5.34,-38.65 -5.34,-38.65 H 82.93 c 0,0 -1,16.18 -0.76,20.79 0.24,4.61 -1.32,14.2 -2.11,17.86 -0.79,3.66 -0.45,23.27 0.07,30 0.58,7.55 -1.55,13.92 -2.21,21.39 a 27.78,27.78 0 0 0 -0.25,3.94 z"
       id="path15" />
    <path
       class="cls-5"
       d="m 133.33,376 a 14.77,14.77 0 0 1 -0.9,3.9 c 0.85,0.21 3.72,0.86 4.38,1 l 12.24,-63.87 -14.3,6 c 0,0 -3.1,8.77 -1.42,15.45 1.68,6.68 -1.57,12.15 -2.09,18.67 -0.52,6.52 2.76,13.7 2.09,18.85 z"
       id="path17" />
    <path
       class="cls-3"
       d="m 83.35,362.52 c 1.34,0.61 2.76,1.48 4.17,2 0,-0.65 0.14,1.68 0.08,1 -0.17,-2.1 -0.34,-4.08 -0.43,-6 a 32.38,32.38 0 0 1 1.3,-9.32 48.65,48.65 0 0 0 1.65,-10.09 c 0.18,-4.57 -0.26,-11.45 -0.7,-18.11 -0.3,-4.74 -0.59,-9.21 -0.59,-12.07 a 15.06,15.06 0 0 1 0.78,-5.79 32.15,32.15 0 0 0 1.44,-7 c 0.93,-8 1.19,-30.07 1.2,-31 h -4 c 0,0.22 -0.27,22.8 -1.17,30.59 a 28.29,28.29 0 0 1 -1.28,6.23 18.89,18.89 0 0 0 -1,7 c 0,3 0.29,7.52 0.6,12.33 0.41,6.25 0.87,13.33 0.69,17.69 a 45.56,45.56 0 0 1 -1.54,9.32 35.62,35.62 0 0 0 -1.41,10.45 c 0.13,1.97 0.03,0.66 0.21,2.77 z"
       id="path19" />
    <path
       class="cls-6"
       d="m 221,20.87 c 78.82,-8.58 118.13,66.47 117.8,163.42 -0.33,96.95 -22.7,186.21 -89.13,200.86 -66.43,14.65 -231,-9.74 -230.09,-110.1 0.35,-40 31.21,-49.83 34.74,-94.31 C 58.43,128.88 85.77,35.59 221,20.87 Z"
       id="path21" />
    <path
       class="cls-7"
       d="m 183.28,178.93 c -31.94,-19.51 -37.39,-29.47 -37.39,-29.47 0,0 8.85,-103.27 8.88,-104.27 l -45.84,63.93 c 0,0 0,47.16 -0.27,49.75 -3.79,5 -25.22,22.1 -25.22,22.1 l 5.19,85.14 92.5,-0.49 2.12,-85.62 c 0.14,-0.51 0.17,-0.89 0.03,-1.07 z"
       id="path23" />
    <path
       class="cls-4"
       d="m 85.91,93.8 c 0,0 -6.25,19.2 -10.86,25.73 4.15,0 12.57,-0.73 12.57,-0.73 z"
       id="path25" />
    <path
       class="cls-7"
       d="m 154.77,45.19 -69.83,28.52 2.19,64.42 c 0,0 0.25,3.78 3.64,3.61 3.39,-0.17 27.11,-0.7 27.11,-0.7 z"
       id="path27" />
    <polygon
       class="cls-5"
       points="136.96,141.56 108.59,154.51 109.1,141.56 "
       id="polygon29" />
    <path
       class="cls-3"
       d="m 88.63,266.11 92.5,-0.49 2.12,-85.62 c 0.14,-0.52 0.17,-0.9 0,-1.08 a 246.37,246.37 0 0 1 -23.53,-16 c -30.42,14.22 -48.48,9 -58.75,3.44 C 93.45,173 83.44,181 83.44,181 Z"
       id="path31" />
    <polygon
       class="cls-8"
       points="140.28,248.53 139.97,269.82 83.44,229.42 83.44,215.16 "
       id="polygon33" />
    <path
       class="cls-8"
       d="m 89.72,175.88 c 0,0 32.28,0.33 50.52,0.77 l -0.2,-12.41 c 0,0 -31.5,-6.63 -40.71,3.47 z"
       id="path35" />
    <path
       class="cls-7"
       d="m 83.44,181 -20.13,73 -6.77,85.8 c 0,0 13.09,9.43 18.13,2.8 1.49,-4.89 14,-76.49 14,-76.49 l 3.78,-59 c 0,0 2.55,-15.66 -9.01,-26.11 z"
       id="path37" />
    <path
       class="cls-7"
       d="m 56.54,339.8 c 0,0 -4.09,29 -1.17,37.61 1.42,0.07 2.36,-2.7 2.36,-2.7 0,0 -0.26,8.69 0.64,8.69 0.9,0 2.63,-8.58 2.63,-8.58 0,0 0.35,8.61 1.47,8.58 1.12,-0.03 1.67,-8.8 1.67,-8.8 0,0 0.88,7.48 2.28,7.37 1.4,-0.11 2.18,-20.37 2.18,-20.37 0,0 -0.44,9.58 1.43,9.36 1.87,-0.22 4.61,-28.36 4.61,-28.36 z"
       id="path39" />
  </g>
  <g
     id="Layer_6"
     data-name="Layer 6"
     transform="matrix(0.4698868,0,0,0.4698868,-9.1986174,-7.9559643)">
    <path
       class="cls-4"
       d="m 132.37,54.23 10.39,79.91 c 0,0 4.69,0 5.47,-11.76 0.78,-11.76 6.54,-77.19 6.54,-77.19 z"
       id="path42" />
    <path
       class="cls-3"
       d="m 114.73,89.08 c -3.78,5 -11.27,7 -19.8,2.16 2,-8.89 15.86,-12.39 19.8,-2.16 z"
       id="path44" />
    <path
       class="cls-8"
       d="m 94.93,91.24 a 19.75,19.75 0 0 0 8.77,2.76 5.6,5.6 0 0 0 0.82,-1.28 5.31,5.31 0 0 0 0.46,-2.62 v 0 a 5,5 0 0 0 -5.42,-5.29 10.56,10.56 0 0 0 -4.63,6.43 z"
       id="path46" />
    <path
       class="cls-4"
       d="m 93.75,105.14 c -3.51,0 -5.73,-5.91 -6.33,-11.49 -0.53,-5.05 0.23,-10.65 4,-11.23 0.81,-0.13 2,0 3.21,1.62 3,3.93 4.17,14.51 2.16,18.85 a 3.35,3.35 0 0 1 -2.84,2.25 z M 91.81,84.38 h -0.1 c -1.86,0.29 -2.82,4.1 -2.3,9 0.56,5.21 2.57,9.7 4.35,9.7 v 0 c 0.43,0 0.82,-0.39 1.14,-1.09 1.68,-3.62 0.54,-13.52 -1.94,-16.81 -0.25,-0.34 -0.7,-0.8 -1.15,-0.8 z m -0.25,-1 z"
       id="path48" />
    <path
       class="cls-4"
       d="M 88.58,96.35 H 88.4 l -5.38,-1 a 1.0169685,1.0169685 0 0 1 0.37,-2 l 5.38,1 a 1.0045024,1.0045024 0 0 1 -0.19,2 z"
       id="path50" />
    <path
       class="cls-4"
       d="m 96.9,97.76 a 1,1 0 0 1 -1,-0.85 1,1 0 0 1 0.84,-1.14 l 48.76,-7.53 a 1.0111874,1.0111874 0 0 1 0.3,2 l -48.74,7.5 z"
       id="path52" />
    <path
       class="cls-8"
       d="m 110.84,73.45 c -2.12,-1 -4.73,-0.55 -7,-0.13 -3.13,0.59 -6.69,1.33 -8.82,3.87 a 0.46,0.46 0 0 0 0.44,0.77 c 2.69,-0.61 5.24,-1.57 8,-2 1.65,-0.26 4.44,-1 6,-0.17 1.56,0.83 2.94,-1.58 1.38,-2.34 z"
       id="path54" />
    <path
       class="cls-8"
       d="m 99.11,122 c -3.6,3.79 -7.72,4.3 -12.35,5.3 v 1.63 c 5,0.46 12,-1.21 13.25,-6.38 A 0.57,0.57 0 0 0 99.11,122 Z"
       id="path56" />
    <path
       class="cls-7"
       d="m 135.87,95.38 c 0,0 9.84,-17.88 14.24,-4.38 4.4,13.5 -12.8,18.29 -12.8,18.29"
       id="path58" />
    <path
       class="cls-4"
       d="m 154.71,27.89 a 15,15 0 0 0 -7,-9.77 c -7.09,-3.84 -11.93,2.31 -13.07,8.7 a 11.93,11.93 0 0 0 -5.83,-5.07 11,11 0 0 0 -9.23,0.49 10.23,10.23 0 0 0 -5.43,7.76 c -0.07,0.5 -0.15,1.07 -0.21,1.66 a 8.38,8.38 0 0 0 -3.59,-2.91 7.44,7.44 0 0 0 -7.93,1.07 12.75,12.75 0 0 0 -4,8.75 c -1.77,-2 -3.84,-3.37 -7.06,-2.38 a 5.8,5.8 0 0 0 -2.54,1.54 6.16,6.16 0 0 0 -1.47,-2.91 C 85.42,32.68 82.8,32.82 80.57,34.49 76.85,37.18 76,41.85 77,46.08 a 5,5 0 0 0 -4.49,0.1 c -3.93,1.75 -6.06,6.42 -7.65,10.11 -3.4,7.85 -7.15,22.6 2.43,23.26 5.51,0.38 9.63,-1.9 16.2,-4.73 0,0 70.51,-29.4 71.26,-29.63 0.04,-0.8 0.75,-14.07 -0.04,-17.3 z"
       id="path60" />
  </g>
  <g
     id="Layer_13"
     data-name="Layer 13"
     transform="matrix(0.4698868,0,0,0.4698868,-9.1986174,-7.9559643)">
    <path
       class="cls-9"
       d="M 277.37,60 H 155.44 v 60 h 121.93 a 30,30 0 0 0 0,-59.92 z"
       id="path63" />
    <path
       class="cls-10"
       d="m 301.88,107.21 a 1.61,1.61 0 0 1 -0.62,-0.56 3.12,3.12 0 0 0 -1.59,-1.35 9,9 0 0 1 -1.58,0.91 v 0 a 0.86,0.86 0 0 1 -1.27,0.27 2.81,2.81 0 0 1 -1.49,-0.44 4.45,4.45 0 0 1 -2,0.25 c -2.31,-0.39 -5.95,-4.44 -7.26,-0.07 -0.26,0.85 -1.56,1.39 -2.2,0.58 a 5,5 0 0 0 -2.56,-1.5 c -0.53,0.12 -1,0.22 -1.4,0.29 a 4.55,4.55 0 0 0 -1.6,2.08 c -0.45,1 -1.7,0.69 -2.22,0 q -2.06,-3.9 -6.08,-1.39 a 1.05,1.05 0 0 1 -1.47,0 5.65,5.65 0 0 0 -2.4,-1.64 3,3 0 0 0 -1.1,1.06 0.65,0.65 0 0 1 -1.17,-0.16 4.58,4.58 0 0 0 -0.36,-0.94 h -0.34 a 7.19,7.19 0 0 0 -3.32,2 0.94,0.94 0 0 1 -1.45,-0.19 c -1.58,-2.13 -6.18,-2.53 -7.15,0.68 -0.31,1 -2,1.18 -2.26,0 q -2.13,-3 -4,0.07 a 1.1,1.1 0 0 1 -1.88,0 3.07,3.07 0 0 0 -1.81,-1.72 c -0.78,0 -1.51,0 -2.2,0 a 14.33,14.33 0 0 0 -4.63,2.49 1,1 0 0 1 -1.18,-0.15 c -1.69,-2 -4.94,-4.39 -7.56,-0.53 a 1,1 0 0 1 -1.77,-0.23 2.87,2.87 0 0 0 -1.86,-2.27 c -0.57,0 -1.16,0.07 -1.78,0.09 a 5.43,5.43 0 0 0 -2.82,2.57 0.63,0.63 0 0 1 -1.07,0 6.1,6.1 0 0 0 -2.83,-2.3 2.48,2.48 0 0 0 -1.26,1.55 0.86,0.86 0 0 1 -1.65,0 10.26,10.26 0 0 0 -0.69,-1.5 13,13 0 0 0 -4.53,3 1.5,1.5 0 0 1 -2.34,-0.3 14.77,14.77 0 0 0 -2.64,-3.39 h -0.21 c -0.44,0 -0.88,0 -1.33,0 a 2.86,2.86 0 0 0 -1,1.72 1,1 0 0 1 -1.77,0.23 c -0.2,-0.41 -0.35,-0.91 -0.54,-1.37 -0.19,0.09 -0.37,0.15 -0.56,0.25 -0.65,0.33 -1.15,0.9 -1.83,1.21 a 4.89,4.89 0 0 1 -1.89,0.46 1.88,1.88 0 0 0 -0.12,0.18 0.79,0.79 0 0 1 -1.34,0 c -0.07,-0.15 -0.15,-0.27 -0.22,-0.41 -0.51,-0.18 -0.94,-0.5 -1.46,-0.69 a 9.46,9.46 0 0 0 -5.7,-0.59 52,52 0 0 1 -6.81,1.11 1,1 0 0 1 -0.67,-0.23 c -4.94,1.18 -9.38,2.45 -11.38,3.19 L 159,120 h 118.4 a 29.92,29.92 0 0 0 24.48,-12.79 z"
       id="path65" />
    <circle
       class="cls-10"
       cx="155.44"
       cy="89.989998"
       r="29.959999"
       id="circle67" />
    <path
       class="cls-11"
       d="m 292.85,158.51 c 0.08,-1 0.13,-2 0.13,-2.95 A 36.08,36.08 0 0 0 257.85,119.5 v 0 h -83.16 v 36.09 H 140 V 294.64 H 257.1 A 36.09,36.09 0 0 0 293,258.56 c 0,-1 -0.05,-2 -0.13,-2.95 z"
       id="path69" />
    <path
       class="cls-9"
       d="M 176.05,119.47 A 36.09,36.09 0 0 0 140,155.56 v 139.08 h 34.83 v 0 h 1.26 a 36.07,36.07 0 0 0 36,-34.82 v 0 -104.26 a 36.08,36.08 0 0 0 -36.04,-36.09 z"
       id="path71" />
    <path
       class="cls-11"
       d="M 262.35,294.62 H 169.6 v 59.92 h 92.75 a 30,30 0 1 0 0,-59.92 z"
       id="path73" />
    <path
       class="cls-9"
       d="M 169.81,294.62 H 168.75 140 V 322 c -0.07,0.86 -0.11,1.72 -0.11,2.6 a 30,30 0 1 0 30,-30 z"
       id="path75" />
    <path
       class="cls-12"
       d="m 154.91,92.62 a 4.08,4.08 0 0 0 1.16,-4.79 c -1,-1.83 -3.92,-1.78 -5.53,-0.9 -2.53,1.36 -2.94,5.26 -2.07,7.84 a 8.69,8.69 0 0 0 9.83,5.37 c 4.9,-1.27 6.56,-7.9 5.78,-12.39 A 12.57,12.57 0 0 0 152.77,77.51 c -6.1,-0.41 -10.66,4 -12.47,8.26 -3,7 1.64,13.55 2.64,14.86 a 16.58,16.58 0 0 0 16.27,6.37 c 8.73,-1.8 11.84,-10.28 12.13,-11.15 2.64,-7.6 -1.24,-14.15 -2.39,-16.1 a 20,20 0 0 0 -10.82,-9.16 c -10,-3.28 -18.49,3.72 -19.15,4.29 A 20.1,20.1 0 0 0 132.87,84 c -1.88,6 -0.25,11 0.66,13.87 1.05,3.27 3.41,10.62 10.9,14.78 9.21,5.12 18.72,1.23 20.06,0.66 9.58,-4.1 12.78,-13 13.46,-15.11 3.65,-11.23 -2.15,-20.53 -3,-21.8 -6.59,-10.18 -17.69,-11.57 -19.16,-11.72 l -1.66,-4.66"
       id="path77" />
  </g>
  <g
     id="Layer_11"
     data-name="Layer 11"
     transform="matrix(0.4698868,0,0,0.4698868,-9.1986174,-7.9559643)">
    <path
       class="cls-8"
       d="m 233.94,358.64 c 1.11,1.74 -2.49,7.82 -6.41,1.07 3.02,1.96 6.41,-1.07 6.41,-1.07 z"
       id="path80" />
    <polygon
       class="cls-8"
       points="140.04,210.2 136.74,204.08 137.59,203.32 139.89,204.08 "
       id="polygon82" />
  </g>
  <g
     id="Layer_12"
     data-name="Layer 12"
     transform="matrix(0.4698868,0,0,0.4698868,-9.1986174,-7.9559643)">
    <path
       class="cls-9"
       d="M 262.35,294.62 H 169.6 v 59.92 h 92.75 a 30,30 0 1 0 0,-59.92 z"
       id="path85" />
    <path
       class="cls-10"
       d="M 169.81,294.62 H 168.75 140 V 322 c -0.07,0.86 -0.11,1.72 -0.11,2.6 a 30,30 0 1 0 30,-30 z"
       id="path87" />
    <path
       class="cls-4"
       d="m 251.46,81.72 c -1.38,-12 -6.88,-14.73 -13.42,-13.94 -9.53,1.14 -8.87,10.69 -7.94,19.69 0.93,9 6.07,16.68 14,15.77 8.18,-0.94 8.9,-7.98 7.36,-21.52 z m -8.61,14.41 c -3.37,0.59 -5,-4 -5.57,-9.95 -0.57,-5.95 -1.88,-10.8 2.52,-11.27 3.13,-0.33 3.55,2.93 4.43,9.8 0.88,6.87 1.22,10.97 -1.38,11.42 z"
       id="path89" />
    <path
       class="cls-4"
       d="m 243.9,59.42 c -4,-11.35 -10,-12.83 -16.19,-10.61 -9,3.24 -6.27,12.4 -3.36,21 2.91,8.6 9.65,14.88 17.19,12.19 7.74,-2.7 6.89,-9.73 2.36,-22.58 z m -5.19,16 c -3.16,1.32 -5.72,-2.77 -7.65,-8.46 -1.93,-5.69 -4.23,-10.12 -0.05,-11.55 3,-1 4.11,2.06 6.51,8.57 2.4,6.51 3.62,10.39 1.19,11.41 z"
       id="path91" />
    <path
       class="cls-4"
       d="m 218.32,62.1 c 11,4.95 16.17,1.64 18.85,-4.38 3.9,-8.77 -4.63,-13.09 -12.84,-16.9 -8.21,-3.81 -17.44,-3.34 -20.73,4 -3.37,7.45 2.3,11.69 14.72,17.28 z m -8,-14.77 c 1.22,-3.2 5.95,-2.23 11.4,0.31 5.45,2.54 10.24,3.92 8.39,7.93 -1.33,2.87 -4.34,1.55 -10.7,-1.2 -6.36,-2.75 -10,-4.58 -9.05,-7.04 z"
       id="path93" />
    <path
       class="cls-4"
       d="m 198.62,60 c 0.62,-1.29 1.45,-2.81 2.44,-4.62 3.27,-6 5.46,-9.59 7.83,-8.43 3.07,1.51 1.68,6.13 -1.34,11.33 -0.3,0.51 -0.63,1.24 -0.91,1.74 2.57,0 7.17,-0.05 7.28,0 4,-7.62 4.81,-15.78 -1.89,-19.56 -7.15,-4 -11.89,1.22 -18.58,13.09 A 26.92,26.92 0 0 0 190.73,60 c 2.54,0.16 5.27,0 7.89,0 z"
       id="path95" />
    <path
       class="cls-4"
       d="m 255.14,103 c -0.41,-12 -5.67,-15.24 -12.26,-15 -9.58,0.38 -9.7,9.94 -9.49,19 0.21,9.06 4.71,17.12 12.71,16.85 8.21,-0.3 9.51,-7.26 9.04,-20.85 z m -9.74,13.67 c -3.41,0.31 -4.63,-4.36 -4.76,-10.37 -0.13,-6.01 -1,-10.92 3.42,-11 3.16,-0.08 3.31,3.2 3.64,10.12 0.33,6.92 0.3,10.98 -2.3,11.23 z"
       id="path97" />
    <path
       class="cls-4"
       d="m 258.35,122.43 c -1.66,-11.92 -7.22,-14.56 -13.75,-13.62 -9.49,1.36 -8.61,10.89 -7.46,19.87 1.15,8.98 6.46,16.53 14.39,15.43 8.13,-1.11 8.7,-8.19 6.82,-21.68 z M 250.09,137 c -3.36,0.67 -5.06,-3.85 -5.81,-9.81 -0.75,-5.96 -2.13,-10.77 2.25,-11.33 3.13,-0.41 3.62,2.84 4.67,9.69 1.05,6.85 1.48,10.97 -1.11,11.45 z"
       id="path99" />
    <path
       class="cls-4"
       d="m 258.46,145.94 c 1.23,-12 -3.55,-15.86 -10.11,-16.51 -9.55,-0.93 -11,8.54 -12,17.53 -1,8.99 2.33,17.59 10.3,18.41 8.19,0.84 10.43,-5.88 11.81,-19.43 z M 247,158.16 c -3.42,-0.15 -4,-4.94 -3.3,-10.91 0.7,-5.97 0.49,-11 4.88,-10.47 3.14,0.35 2.84,3.62 2.23,10.53 -0.61,6.91 -1.22,10.97 -3.81,10.85 z"
       id="path101" />
    <path
       class="cls-4"
       d="m 258.14,166.82 c 1,-12 -3.87,-15.79 -10.44,-16.3 -9.57,-0.75 -10.79,8.74 -11.64,17.75 -0.85,9.01 2.69,17.55 10.68,18.21 8.18,0.68 10.26,-6.09 11.4,-19.66 z m -11.27,12.45 c -3.42,-0.09 -4.09,-4.87 -3.52,-10.85 0.57,-5.98 0.28,-11 4.68,-10.56 3.14,0.29 2.91,3.56 2.43,10.48 -0.48,6.92 -0.95,10.99 -3.59,10.93 z"
       id="path103" />
    <path
       class="cls-4"
       d="m 256.94,187 c 0.37,-12 -4.68,-15.56 -11.27,-15.73 -9.59,-0.25 -10.32,9.3 -10.69,18.34 -0.37,9.04 3.6,17.38 11.61,17.62 8.2,0.27 9.95,-6.59 10.35,-20.23 z m -10.6,13 c -3.42,0.1 -4.33,-4.64 -4.08,-10.65 0.25,-6.01 -0.29,-11 4.12,-10.79 3.15,0.13 3.09,3.41 3,10.34 -0.09,6.93 -0.38,11.1 -3.04,11.1 z"
       id="path105" />
    <path
       class="cls-4"
       d="m 256.21,209.69 c 2.18,-11.84 -2.26,-16.1 -8.75,-17.26 -9.45,-1.7 -11.61,7.62 -13.36,16.5 -1.75,8.88 0.92,17.73 8.8,19.19 8.1,1.49 10.84,-5.03 13.31,-18.43 z M 243.76,221 c -3.4,-0.42 -3.58,-5.25 -2.42,-11.15 1.16,-5.9 1.37,-10.88 5.71,-10 3.09,0.6 2.54,3.84 1.37,10.67 -1.17,6.83 -2.04,10.76 -4.66,10.48 z"
       id="path107" />
    <path
       class="cls-4"
       d="m 257.29,227.34 c -0.66,-12 -6,-15.12 -12.57,-14.73 -9.57,0.57 -9.49,10.14 -9.09,19.18 0.4,9.04 5.05,17 13.05,16.58 8.2,-0.45 9.32,-7.43 8.61,-21.03 z m -9.46,13.86 c -3.4,0.39 -4.71,-4.26 -5,-10.26 -0.29,-6 -1.22,-10.9 3.19,-11.1 3.15,-0.14 3.37,3.13 3.85,10 0.48,6.87 0.59,11.07 -2.04,11.36 z"
       id="path109" />
    <path
       class="cls-4"
       d="m 258.81,247.43 c -0.67,-12 -6,-15.11 -12.57,-14.72 -9.58,0.57 -9.5,10.14 -9.1,19.18 0.4,9.04 5.06,17 13.06,16.58 8.2,-0.47 9.35,-7.47 8.61,-21.04 z m -9.46,13.87 c -3.41,0.39 -4.72,-4.26 -5,-10.26 -0.28,-6 -1.23,-10.9 3.19,-11.1 3.15,-0.15 3.37,3.13 3.84,10 0.47,6.87 0.62,11.06 -2.03,11.36 z"
       id="path111" />
    <path
       class="cls-4"
       d="m 238.59,274.68 c 0.82,12 6.18,15 12.76,14.56 9.57,-0.69 9.36,-10.26 8.84,-19.3 -0.52,-9.04 -5.28,-16.95 -13.27,-16.4 -8.19,0.56 -9.26,7.56 -8.33,21.14 z m 9.27,-14 c 3.4,-0.43 4.77,4.2 5.11,10.2 0.34,6 1.36,10.88 -3.05,11.14 -3.14,0.19 -3.41,-3.09 -4,-10 -0.59,-6.91 -0.68,-11.02 1.94,-11.33 z"
       id="path113" />
    <path
       class="cls-4"
       d="m 242.69,295.31 c 1.56,11.94 7.1,14.62 13.63,13.74 9.51,-1.29 8.71,-10.82 7.64,-19.81 -1.07,-8.99 -6.32,-16.59 -14.27,-15.55 -8.14,1.06 -8.77,8.11 -7,21.62 z m 8.39,-14.54 c 3.36,-0.64 5,3.9 5.72,9.87 0.72,5.97 2,10.77 -2.35,11.3 -3.13,0.38 -3.59,-2.87 -4.58,-9.73 -0.99,-6.86 -1.39,-10.94 1.21,-11.44 z"
       id="path115" />
    <path
       class="cls-4"
       d="m 264.22,312.06 c 2.71,-11.73 -1.55,-16.18 -8,-17.64 -9.36,-2.11 -11.94,7.1 -14.07,15.9 -2.13,8.8 0.13,17.75 7.93,19.55 8.02,1.85 11.08,-4.54 14.14,-17.81 z m -12.94,10.69 c -3.38,-0.57 -3.35,-5.4 -1.92,-11.24 1.43,-5.84 1.85,-10.81 6.15,-9.77 3.06,0.73 2.36,3.94 0.9,10.72 -1.46,6.78 -2.53,10.74 -5.13,10.29 z"
       id="path117" />
    <path
       class="cls-4"
       d="m 261.49,333.84 c 4.24,-11.28 0.61,-16.25 -5.57,-18.54 -9,-3.34 -12.77,5.45 -16,13.89 -3.23,8.44 -2.22,17.61 5.27,20.43 7.64,2.89 11.51,-3.04 16.3,-15.78 z m -14.24,8.88 c -3.27,-1 -2.6,-5.8 -0.41,-11.4 2.19,-5.6 3.27,-10.47 7.39,-8.87 2.94,1.14 1.82,4.22 -0.53,10.74 -2.35,6.52 -3.93,10.31 -6.45,9.53 z"
       id="path119" />
    <path
       class="cls-4"
       d="m 250.8,357 c 9,-8 8.12,-14.09 3.72,-19 -6.4,-7.15 -13.84,-1.13 -20.68,4.8 -6.84,5.93 -10.18,14.54 -4.86,20.53 5.32,5.99 11.63,2.74 21.82,-6.33 z m -16.74,1.21 c -2.42,-2.42 0.4,-6.34 4.95,-10.27 4.55,-3.93 7.78,-7.74 10.68,-4.4 2.07,2.37 -0.36,4.59 -5.48,9.25 -5.12,4.66 -8.29,7.32 -10.15,5.45 z"
       id="path121" />
    <path
       class="cls-4"
       d="m 232.28,354.54 c 1.76,3.38 2.89,6.43 0,7.95 -2.89,1.52 -4.33,-1.9 -7.7,-7.95 h -8.68 c 0.86,1.86 1.85,3.78 3,6 5.73,10.59 11.86,11.12 17.65,8 5.79,-3.12 5.51,-8.39 3.41,-13.93 -1.18,-0.07 -6.62,-0.06 -7.68,-0.07 z"
       id="path123" />
    <polygon
       class="cls-8"
       points="208.34,56.86 206.93,55.84 211.06,50.25 "
       id="polygon125" />
    <path
       class="cls-8"
       d="m 211.1,46.23 a 6,6 0 0 1 5.54,-0.53 l 0.51,1.93 -6.92,0.31 a 3,3 0 0 1 0.87,-1.71 z"
       id="path127" />
    <polygon
       class="cls-8"
       points="216.35,61.2 213.92,60.03 216.57,53.09 "
       id="polygon129" />
    <path
       class="cls-8"
       d="m 222.46,63.67 c 0,0 5.37,1.92 7.65,0.56 0.5,1.4 0.8,2.26 0.8,2.26 0,0 -7.59,0.29 -8.45,-2.82 z"
       id="path131" />
    <path
       class="cls-8"
       d="m 230.31,55.19 c 0,0 3.18,-2 5.62,4.59 a 10.42,10.42 0 0 1 -0.9,1.42 10.26,10.26 0 0 0 -4.72,-6.01 z"
       id="path133" />
    <path
       class="cls-8"
       d="m 239.59,74.67 c 0,0 3.26,-1 4.14,6.33 a 73.57,73.57 0 0 1 -4.14,-6.33 z"
       id="path135" />
    <path
       class="cls-8"
       d="m 229.6,78.68 c 0,0 3.91,3.74 7.26,3.89 -2.23,0.43 -7.22,-1 -7.22,-1 z"
       id="path137" />
    <path
       class="cls-8"
       d="m 244.63,88 c 0,0 0.89,6.09 -0.34,7.27 -0.95,-3.33 -1.78,-7.23 -1.78,-7.23 z"
       id="path139" />
    <path
       class="cls-8"
       d="m 241.66,96.18 c 0,0 -1.45,0.28 -1.13,6.86 0.91,0.17 1.62,0.24 1.62,0.24 z"
       id="path141" />
    <path
       class="cls-8"
       d="m 246.85,115.87 c 0,0 3.05,-0.85 3.9,6.69 a 61.24,61.24 0 0 1 -3.9,-6.69 z"
       id="path143" />
    <path
       class="cls-8"
       d="m 236.63,118.61 c 0,0 1.91,2.94 7.18,5.22 -2.23,0 -7.34,-2.22 -7.34,-2.22 a 14.75,14.75 0 0 1 0.16,-3 z"
       id="path145" />
    <path
       class="cls-8"
       d="m 247.85,136.55 c 0,0 -3,-0.15 -3.68,5.67 a 4.49,4.49 0 0 0 2,1.24 c 0,0 0.32,-5.25 1.68,-6.91 z"
       id="path147" />
    <path
       class="cls-8"
       d="m 258.4,138.88 c 0,0 -2.85,5.34 -7.34,5.28 -0.13,1.15 -0.15,2.52 -0.15,2.52 0,0 6.82,-1.22 7.49,-7.8 z"
       id="path149" />
    <path
       class="cls-8"
       d="m 246.24,158.07 c 0,0 -2.32,-0.08 -2.69,6.5 1.11,0.4 1.85,0.6 1.85,0.6 z"
       id="path151" />
    <path
       class="cls-8"
       d="m 256.89,156.27 c 0,0 -2.06,7.67 -6.1,8.74 a 22.51,22.51 0 0 0 -0.21,2.45 c 0,0 5.7,-1.46 6.31,-11.19 z"
       id="path153" />
    <path
       class="cls-8"
       d="m 245.18,178.71 c 0,0 -2.85,0 -2.78,6.44 1.07,0.54 1.64,0.76 1.64,0.76 0,0 0.17,-5.91 1.14,-7.2 z"
       id="path155" />
    <path
       class="cls-8"
       d="m 256.2,179.27 c 0,0 -2.67,7 -6.8,7.26 0,1.63 0,2.79 0,2.79 0,0 5.45,0.1 6.8,-10.05 z"
       id="path157" />
    <path
       class="cls-8"
       d="m 247.47,199.77 c 0,0 2.73,0 1.59,7.29 -1.31,-3.33 -2.72,-7 -2.72,-7 z"
       id="path159" />
    <path
       class="cls-8"
       d="m 236.54,199.53 c 0,0 2.14,5.19 5.49,6.54 -2.92,-0.13 -6.53,-3.34 -6.53,-3.34 z"
       id="path161" />
    <path
       class="cls-8"
       d="m 243.76,221 c 0,0 -1.52,0.72 -0.86,7.17 1.49,0.18 1.81,0.2 1.81,0.2 z"
       id="path163" />
    <path
       class="cls-8"
       d="m 254.64,217.1 c 0,0 -1.53,7.8 -5,9.62 0.09,1.23 0.27,2.78 0.27,2.78 0,0 4.64,-0.68 4.73,-12.4 z"
       id="path165" />
    <path
       class="cls-8"
       d="m 237.65,240.75 c 0,0 2.16,5.26 6.46,6.85 0.17,1.55 0.21,2.31 0.21,2.31 0,0 -6.48,-1.1 -6.67,-9.16 z"
       id="path167" />
    <path
       class="cls-8"
       d="m 249.46,240.39 c 0,0 1.71,1.26 1.84,7.55 a 2.54,2.54 0 0 1 -1.63,0.34 z"
       id="path169" />
    <path
       class="cls-8"
       d="m 247.35,260.82 c 0,0 -2.15,0.41 -1.7,6.71 a 10.27,10.27 0 0 0 1.73,0.73 18.52,18.52 0 0 1 -0.03,-7.44 z"
       id="path171" />
    <path
       class="cls-8"
       d="m 252.78,268.09 c 0,0 3.88,-1.06 5.34,-6.31 -0.68,5 -2.35,8.58 -5.15,9.11 -0.15,-1.89 -0.19,-2.8 -0.19,-2.8 z"
       id="path173" />
    <path
       class="cls-8"
       d="m 252.55,280.85 c 0,0 2.72,0.83 3.8,6.66 a 10.58,10.58 0 0 1 -1.45,0.91 27.64,27.64 0 0 0 -2.35,-7.57 z"
       id="path175" />
    <path
       class="cls-8"
       d="m 242,285.71 c 0,0 3.36,4 7.5,3.56 0.31,2.31 0.4,2.94 0.4,2.94 0,0 -6.17,-0.86 -7.9,-6.5 z"
       id="path177" />
    <path
       class="cls-8"
       d="m 264.33,300.89 c 0,0 -1.15,7.58 -7.18,8.06 -0.27,1.31 -0.6,2.85 -0.6,2.85 0,0 5.77,1.45 7.78,-10.91 z"
       id="path179" />
    <path
       class="cls-8"
       d="m 253.05,301.94 c 0,0 -1.66,0.47 -3,6.53 1.47,0.46 1.88,0.54 1.88,0.54 z"
       id="path181" />
    <path
       class="cls-8"
       d="m 242.5,323 c 0,0 1.58,4.26 5.21,6 l -1.29,3.42 c 0,0 -3.77,-0.8 -3.92,-9.42 z"
       id="path183" />
    <path
       class="cls-8"
       d="m 253.16,322.08 c 0,0 4.5,0 1.72,7.78 a 18.62,18.62 0 0 1 -2.27,0.33 13.66,13.66 0 0 0 0.55,-8.11 z"
       id="path185" />
    <path
       class="cls-8"
       d="m 246.41,342.41 c 0,0 -1.41,-0.28 -5.69,4 a 9.84,9.84 0 0 0 2,1.89 25.71,25.71 0 0 1 3.69,-5.89 z"
       id="path187" />
    <path
       class="cls-8"
       d="m 257.45,343.13 c -3.81,5.21 -5.07,6.95 -10.38,7.05 L 245,352.1 c 0,0 5.21,3.82 12.45,-8.97 z"
       id="path189" />
    <path
       class="cls-8"
       d="m 240.6,356 c 0,0 2,5.42 0,8.76 2.07,-1.25 3.21,-2 3.21,-2 0,0 -1.49,-4.88 -3.21,-6.76 z"
       id="path191" />
    <path
       class="cls-8"
       d="m 240,354.53 h -6.48 a 9.82,9.82 0 0 0 -0.41,1.67 c 0.21,0.48 7.19,-0.84 7.19,-0.84 z"
       id="path193" />
    <polygon
       class="cls-8"
       points="220.24,362.74 215.9,354.53 224.59,354.54 226.08,357.23 "
       id="polygon195" />
    <path
       class="cls-4"
       d="m 197.59,161.65 c 11.85,-2.17 14.24,-7.84 13,-14.32 -1.78,-9.43 -11.26,-8.14 -20.18,-6.61 -8.92,1.53 -16.24,7.16 -14.8,15.05 1.51,8.07 8.59,8.34 21.98,5.88 z m -15,-7.63 c -0.81,-3.33 3.64,-5.22 9.56,-6.22 5.92,-1 10.66,-2.59 11.41,1.76 0.54,3.11 -2.68,3.74 -9.48,5.08 -6.8,1.34 -10.81,1.94 -11.44,-0.64 z"
       id="path197" />
    <path
       class="cls-4"
       d="m 178,166.36 c 11.91,-1.76 14.49,-7.35 13.5,-13.87 -1.46,-9.48 -11,-8.52 -19.94,-7.29 -8.94,1.23 -16.48,6.61 -15.3,14.54 1.22,8.12 8.28,8.63 21.74,6.62 z m -14.69,-8.13 c -0.7,-3.36 3.81,-5.09 9.77,-5.9 5.96,-0.81 10.74,-2.23 11.34,2.15 0.44,3.12 -2.81,3.65 -9.65,4.76 -6.84,1.11 -10.9,1.57 -11.44,-1.01 z"
       id="path199" />
    <path
       class="cls-4"
       d="m 158.9,171.82 c 11.75,-2.63 13.93,-8.39 12.46,-14.82 -2.14,-9.35 -11.56,-7.7 -20.42,-5.82 -8.86,1.88 -15.94,7.82 -14.2,15.61 1.79,8.01 8.87,8 22.16,5.03 z m -15.23,-7 c -0.94,-3.29 3.42,-5.35 9.31,-6.59 5.89,-1.24 10.55,-3 11.47,1.32 0.66,3.08 -2.54,3.84 -9.28,5.44 -6.74,1.6 -10.78,2.32 -11.5,-0.22 z"
       id="path201" />
    <path
       class="cls-4"
       d="m 146.72,152.11 c -5.21,-10.86 -11.31,-11.68 -17.25,-8.81 -8.63,4.19 -4.89,13 -1.07,21.21 3.82,8.21 11.18,13.79 18.4,10.32 7.41,-3.55 5.8,-10.44 -0.08,-22.72 z m -3.44,16.43 c -3,1.65 -6,-2.14 -8.52,-7.59 -2.52,-5.45 -5.3,-9.6 -1.3,-11.48 2.86,-1.33 4.32,1.61 7.4,7.82 3.08,6.21 4.73,9.97 2.42,11.25 z"
       id="path203" />
    <path
       class="cls-4"
       d="m 150.05,126.19 c -7.39,-6.12 -13.86,0.93 -19.75,7.81 -5.89,6.88 -7.92,15.88 -1.78,21 3.94,3.29 7.13,3.19 11.45,-0.16 v 0 c 0.09,-0.59 1.82,-11.65 2.94,-13.59 l -0.88,1.08 c -4.31,5.3 -7.11,8.43 -9.23,6.86 -2.76,-2 -0.54,-6.34 3.37,-10.9 3.91,-4.56 6.55,-8.8 9.91,-5.93 a 2.52,2.52 0 0 1 1,1.85 c 0.51,-0.63 1,-1.23 1.55,-1.81 a 45.18,45.18 0 0 1 3.77,-3.81 15.29,15.29 0 0 0 -2.35,-2.4 z"
       id="path205" />
    <path
       class="cls-4"
       d="m 218.24,158.68 c 11.84,-2.16 14.24,-7.84 13,-14.32 -1.77,-9.43 -11.25,-8.14 -20.17,-6.61 -8.92,1.53 -16.24,7.17 -14.8,15.05 1.5,8.07 8.57,8.34 21.97,5.88 z m -15,-7.63 c -0.81,-3.33 3.63,-5.22 9.56,-6.22 5.93,-1 10.66,-2.59 11.41,1.76 0.54,3.11 -2.69,3.74 -9.48,5.08 -6.79,1.34 -10.81,1.94 -11.44,-0.62 z"
       id="path207" />
    <path
       class="cls-4"
       d="m 238.79,154.66 c 11.8,-2.41 14.08,-8.13 12.73,-14.59 -2,-9.39 -11.42,-7.9 -20.31,-6.19 -8.89,1.71 -16.09,7.51 -14.48,15.35 1.64,8.05 8.72,8.17 22.06,5.43 z m -15.1,-7.32 c -0.88,-3.31 3.52,-5.29 9.42,-6.42 5.9,-1.13 10.61,-2.81 11.45,1.53 0.6,3.09 -2.61,3.79 -9.37,5.27 -6.76,1.48 -10.82,2.17 -11.5,-0.38 z"
       id="path209" />
    <path
       class="cls-4"
       d="m 258.41,152.27 c 11.93,-1.65 14.57,-7.21 13.64,-13.74 -1.35,-9.5 -10.88,-8.62 -19.86,-7.49 -8.98,1.13 -16.54,6.44 -15.45,14.38 1.12,8.13 8.18,8.71 21.67,6.85 z M 243.81,144 c -0.66,-3.36 3.86,-5 9.82,-5.79 5.96,-0.79 10.77,-2.12 11.33,2.26 0.4,3.13 -2.85,3.62 -9.7,4.66 -6.85,1.04 -10.94,1.44 -11.45,-1.13 z"
       id="path211" />
    <path
       class="cls-4"
       d="m 279.13,148.35 c 11.93,-1.64 14.57,-7.21 13.64,-13.73 -1.36,-9.5 -10.89,-8.63 -19.87,-7.49 -8.98,1.14 -16.54,6.44 -15.44,14.38 1.12,8.13 8.18,8.71 21.67,6.84 z m -14.6,-8.28 c -0.67,-3.36 3.86,-5 9.82,-5.8 5.96,-0.8 10.76,-2.12 11.33,2.27 0.4,3.12 -2.85,3.61 -9.7,4.65 -6.85,1.04 -10.98,1.47 -11.45,-1.12 z"
       id="path213" />
    <path
       class="cls-4"
       d="m 281.84,150.81 c 4.54,11.15 10.58,12.34 16.68,9.83 8.87,-3.65 5.68,-12.67 2.36,-21.1 -3.32,-8.43 -10.32,-14.44 -17.74,-11.42 -7.6,3.09 -6.43,10.07 -1.3,22.69 z m 4.44,-16.19 c 3.09,-1.48 5.84,2.49 8,8.09 2.16,5.6 4.71,9.91 0.6,11.53 -2.93,1.16 -4.21,-1.87 -6.9,-8.25 -2.69,-6.38 -4.09,-10.24 -1.7,-11.37 z"
       id="path215" />
    <path
       class="cls-4"
       d="m 304.91,150.77 c -2.56,-5.08 -6.64,-5.81 -13,-3.74 a 52.2,52.2 0 0 1 1,7.31 c 2.83,-1.16 4.85,-1.39 5.69,0.08 1.68,2.9 -2,5.93 -5.82,8 0.11,2.74 0.13,5.26 0.13,7.85 1.1,-0.5 0.85,-0.39 1.94,-0.93 8.2,-3.95 13.65,-11.4 10.06,-18.57 z"
       id="path217" />
    <polygon
       class="cls-8"
       points="280.79,148.09 277.72,148.54 276.93,141.05 278.4,140.82 "
       id="polygon219" />
    <path
       class="cls-8"
       d="m 285.4,135.15 c 0,0 -0.42,-2.46 -7.47,-1.37 a 31.64,31.64 0 0 0 -0.21,3.33 l 7.35,-0.71 a 4.55,4.55 0 0 1 0.33,-1.25 z"
       id="path221" />
    <path
       class="cls-8"
       d="m 257.63,137.65 c 0,0 5.42,-1.51 6.83,1.23 l 0.07,1.19 -7.18,-0.06 z"
       id="path223" />
    <path
       class="cls-8"
       d="m 258.35,144.63 c 0,0 2.11,4.74 9.41,4.6 -2.92,1.47 -3.86,2.07 -6.6,2.56 -1.47,-1.41 -4.37,-6.92 -4.37,-6.92 z"
       id="path225" />
    <path
       class="cls-8"
       d="m 251.06,138.65 c 0,0 -4.26,0 -6.77,2.85 a 10.8,10.8 0 0 1 0.34,1.61 l 7.11,-1.7 z"
       id="path227" />
    <path
       class="cls-8"
       d="m 251.52,145.91 c 0,0 -0.89,4.38 -6.86,7 2.23,0.19 5.52,0.17 5.52,0.17 z"
       id="path229" />
    <path
       class="cls-8"
       d="m 223.85,145.33 c 0,0 -0.58,-2.44 -6.89,-1.25 a 21.42,21.42 0 0 0 -0.45,3.33 l 7.07,-0.54 a 3.3,3.3 0 0 1 0.27,-1.54 z"
       id="path231" />
    <path
       class="cls-8"
       d="m 217.29,151.18 c 0,0 1.72,5.16 8.52,5.07 -3.75,1.52 -4.84,2 -7.57,2.43 -0.74,-1 -2.91,-7.12 -2.91,-7.12 z"
       id="path233" />
    <path
       class="cls-8"
       d="m 196.89,147 c 0,0 5.43,-1.89 6.6,2.09 l -0.29,1.18 -7,-0.38 z"
       id="path235" />
    <path
       class="cls-8"
       d="m 196.61,154.14 a 7.8,7.8 0 0 0 7.26,5.71 33.43,33.43 0 0 1 -6,1.75 c -0.59,-1 -2.48,-7.22 -2.48,-7.22 z"
       id="path237" />
    <path
       class="cls-8"
       d="m 176.71,158.92 c 0,0 1.93,4.92 10.94,4.09 -3.44,1.81 -4,2.46 -7.89,3.06 -1.11,-0.95 -4.3,-6.94 -4.3,-6.94 z"
       id="path239" />
    <path
       class="cls-8"
       d="m 182.78,151.9 c 0,0 -0.73,-1.3 -7,0 a 15.94,15.94 0 0 0 -0.18,3.64 l 6.94,-2.3 z"
       id="path241" />
    <path
       class="cls-8"
       d="m 163.11,157.31 c 0,0 -2.34,-1.62 -6.93,0.15 a 29.06,29.06 0 0 0 0.31,3.36 l 6.82,-2.09 z"
       id="path243" />
    <path
       class="cls-8"
       d="m 158.08,164.24 c 0,0 2.73,3.55 10.53,3.11 -2.94,2.13 -2.4,2 -5.89,3.39 a 82.39,82.39 0 0 1 -5.77,-6.22 z"
       id="path245" />
    <path
       class="cls-8"
       d="m 140.36,156.28 3.18,6.85 v 1.11 l -5.5,-5.1 a 15.12,15.12 0 0 1 2.32,-2.86 z"
       id="path247" />
    <path
       class="cls-8"
       d="m 148.93,173.53 c 0,0 -8.28,0.27 -10.44,-2.82 0.82,3.3 4.18,5.17 4.18,5.17 a 11.56,11.56 0 0 0 6.26,-2.35 z"
       id="path249" />
    <path
       class="cls-8"
       d="m 135.39,149.16 c 0,0 2.3,0.57 4.35,5.88 -1.35,0.93 -2.42,1.53 -2.42,1.53 l -2.61,-7.08 z"
       id="path251" />
    <path
       class="cls-8"
       d="m 133.37,142 c 0,0 -4.08,5.25 -0.05,7.53 0.78,-0.3 1.09,-0.38 1.09,-0.38 A 10,10 0 0 1 133.37,142 Z"
       id="path253" />
    <path
       class="cls-8"
       d="m 133,157.36 c 0,0 -4.5,-0.3 -7.22,-5.77 1.3,4.25 5.23,6.26 7.89,7.16 z"
       id="path255" />
    <path
       class="cls-4"
       d="m 146.22,135.34 c -0.27,-0.38 -0.13,-0.43 -0.09,-0.94 0.14,-1.94 1.11,-2.81 3.55,-3.14 2.74,-2.73 5.22,-5.33 8.62,-7 l -0.67,-0.09 c -9,-1.28 -17.66,1.84 -18.7,9.79 -0.56,4.28 0.12,6.53 3.58,8.33 a 29.55,29.55 0 0 1 3.71,-6.95 z"
       id="path257" />
    <path
       class="cls-8"
       d="m 138.8,135.18 c 0,0 3.95,-6.81 7.74,-2.33 l -0.41,1.55 c 0,0 -6.89,0.75 -7.33,2.32 -0.03,-1 0,-1.54 0,-1.54 z"
       id="path259" />
    <path
       class="cls-8"
       d="m 296.26,153.41 c 0.93,-0.19 5.39,0.89 0.93,6 0.02,-2.85 0.21,-4.82 -0.93,-6 z"
       id="path261" />
    <polygon
       class="cls-8"
       points="295.42,169.1 292.98,170.29 292.85,162.44 294.15,161.69 "
       id="polygon263" />
    <path
       class="cls-8"
       d="m 292,147 c 0,0 1,5.86 1,7.31 1.06,-0.41 1.6,-0.58 1.6,-0.58 l -1.31,-7.13 z"
       id="path265" />
    <path
       class="cls-4"
       d="m 292.78,162.07 0.07,6.72 c 5,0.43 6.58,1.63 6.53,3.84 -0.06,2.76 -2.08,4.32 -6.4,4.31 0.09,1.84 -0.05,6.67 0,7.2 7.42,-0.4 13.07,-4.58 13.62,-11.39 0.59,-7.39 -2.77,-9.48 -13.82,-10.68 z"
       id="path267" />
    <path
       class="cls-4"
       d="m 306.48,187.54 c 6.25,-10.3 3.6,-15.86 -2.06,-19.25 -8.22,-4.94 -13.56,3 -18.34,10.69 -4.78,7.69 -5.42,16.91 1.43,21.06 7.02,4.26 11.91,-0.86 18.97,-12.5 z m -15.63,6.1 c -3,-1.6 -1.49,-6.18 1.69,-11.27 3.18,-5.09 5.14,-9.69 8.9,-7.37 2.68,1.66 1,4.49 -2.5,10.47 -3.5,5.98 -5.76,9.41 -8.09,8.17 z"
       id="path269" />
    <path
       class="cls-4"
       d="m 289.33,205.2 c 10,-6.76 9.87,-12.92 6.14,-18.36 -5.42,-7.91 -13.58,-2.91 -21.13,2.09 -7.55,5 -12,13.1 -7.47,19.73 4.6,6.79 11.19,4.19 22.46,-3.46 z m -16.76,-1 c -2.09,-2.72 1.22,-6.24 6.24,-9.55 5.02,-3.31 8.71,-6.66 11.15,-3 1.75,2.62 -0.95,4.5 -6.63,8.47 -5.68,3.97 -9.16,6.21 -10.76,4.12 z"
       id="path271" />
    <path
       class="cls-4"
       d="m 271.77,217.79 c 10.47,-5.94 10.87,-12.09 7.59,-17.81 -4.77,-8.32 -13.3,-4 -21.23,0.39 -7.93,4.39 -13,12.11 -9,19.08 4.02,7.14 10.79,5.06 22.64,-1.66 z m -16.63,-2.3 c -1.86,-2.87 1.72,-6.11 7,-9 5.28,-2.89 9.22,-5.95 11.36,-2.09 1.53,2.76 -1.31,4.41 -7.29,7.92 -5.98,3.51 -9.63,5.39 -11.07,3.17 z"
       id="path273" />
    <path
       class="cls-4"
       d="m 254.17,227.9 c 10.47,-5.94 10.87,-12.09 7.59,-17.81 -4.77,-8.32 -13.31,-4 -21.23,0.39 -7.92,4.39 -13,12.11 -9,19.07 4.02,7.15 10.79,5.07 22.64,-1.65 z m -16.63,-2.3 c -1.86,-2.87 1.72,-6.12 7,-9 5.28,-2.88 9.21,-6 11.36,-2.08 1.53,2.76 -1.31,4.41 -7.29,7.91 -5.98,3.5 -9.61,5.39 -11.07,3.17 z"
       id="path275" />
    <path
       class="cls-4"
       d="m 233,238.66 c 11.72,-2.75 13.84,-8.53 12.3,-14.95 -2.23,-9.33 -11.64,-7.57 -20.47,-5.6 -8.83,1.97 -15.87,7.95 -14,15.75 1.82,7.99 8.9,7.91 22.17,4.8 z m -15.31,-6.89 c -1,-3.28 3.37,-5.39 9.24,-6.69 5.87,-1.3 10.52,-3.11 11.49,1.21 0.69,3.07 -2.5,3.86 -9.23,5.54 -6.73,1.68 -10.76,2.47 -11.51,-0.06 z"
       id="path277" />
    <path
       class="cls-4"
       d="m 214.67,245.43 c 11.29,-4.19 12.67,-10.19 10.35,-16.36 -3.38,-9 -12.49,-6.07 -21,-3 -8.51,3.07 -14.75,9.86 -12,17.38 2.87,7.68 9.88,6.72 22.65,1.98 z m -16,-4.93 c -1.38,-3.14 2.67,-5.76 8.33,-7.78 5.66,-2.02 10,-4.4 11.55,-0.24 1.07,3 -2,4.15 -8.46,6.64 -6.46,2.49 -10.4,3.8 -11.46,1.38 z"
       id="path279" />
    <path
       class="cls-4"
       d="m 195.47,253.77 c 11.29,-4.19 12.67,-10.19 10.35,-16.36 -3.38,-9 -12.5,-6.07 -21,-3 -8.5,3.07 -14.75,9.86 -12,17.38 2.87,7.68 9.88,6.72 22.65,1.98 z m -16.05,-4.93 c -1.37,-3.13 2.68,-5.76 8.34,-7.78 5.66,-2.02 10.05,-4.4 11.54,-0.24 1.07,3 -2,4.15 -8.46,6.65 -6.46,2.5 -10.36,3.79 -11.42,1.37 z"
       id="path281" />
    <path
       class="cls-4"
       d="m 179.25,262.44 c 10.13,-6.5 10.2,-12.66 6.61,-18.19 -5.21,-8.05 -13.5,-3.26 -21.17,1.54 -7.67,4.8 -12.31,12.79 -8,19.54 4.45,6.91 11.1,4.47 22.56,-2.89 z m -16.73,-1.39 c -2,-2.77 1.38,-6.2 6.48,-9.38 5.1,-3.18 8.88,-6.44 11.23,-2.7 1.68,2.67 -1.07,4.48 -6.85,8.3 -5.78,3.82 -9.31,5.92 -10.86,3.78 z"
       id="path283" />
    <path
       class="cls-4"
       d="m 161.75,274.06 c 10.13,-6.5 10.2,-12.66 6.61,-18.19 -5.22,-8.06 -13.5,-3.27 -21.17,1.53 -7.67,4.8 -12.31,12.8 -8,19.54 4.44,6.91 11.09,4.47 22.56,-2.88 z M 145,272.67 c -2,-2.77 1.38,-6.21 6.48,-9.39 5.1,-3.18 8.88,-6.44 11.23,-2.7 1.68,2.67 -1.07,4.48 -6.85,8.3 -5.78,3.82 -9.29,5.92 -10.86,3.79 z"
       id="path285" />
    <path
       class="cls-4"
       d="m 151,282.55 c 4.2,-11.29 0.55,-16.25 -5.64,-18.52 -9,-3.3 -12.75,5.51 -16,14 -3.25,8.49 -2.15,17.62 5.35,20.41 7.72,2.82 11.57,-3.12 16.29,-15.89 z m -14.21,8.94 c -3.27,-1 -2.62,-5.79 -0.45,-11.4 2.17,-5.61 3.23,-10.48 7.35,-8.9 2.95,1.13 1.84,4.22 -0.48,10.75 -2.32,6.53 -3.87,10.32 -6.4,9.55 z"
       id="path287" />
    <path
       class="cls-4"
       d="m 134.61,294.42 c 0.38,-2.12 2.14,-5 5.32,-4.72 0,-1.4 0.06,-5.29 0,-6.34 -8.55,-0.26 -11.79,5.15 -12.7,10.78 -1.28,7.94 5.36,10.63 12.69,12.23 0.06,-2.34 -0.07,-5.13 0,-7.27 -3.4,-0.67 -5.84,-1.63 -5.31,-4.68 z"
       id="path289" />
    <path
       class="cls-8"
       d="m 294.92,162.33 c -0.06,0.11 -0.9,6.58 -0.9,6.58 l -1.17,-0.12 -0.07,-6.72 z"
       id="path291" />
    <polygon
       class="cls-8"
       points="295.66,183.82 292.98,184.14 292.99,181.64 295.66,177.33 "
       id="polygon293" />
    <path
       class="cls-8"
       d="m 299,174.44 c 0,0 2.64,-5.15 -5,-5.53 2.79,2.61 2.75,7 2.75,7 z"
       id="path295" />
    <path
       class="cls-8"
       d="m 301.07,181.77 c 0,0 1.06,0 4.33,-5.09 -1.82,4.25 -2.47,6.07 -5.68,7.6 0.85,-1.61 1.35,-2.51 1.35,-2.51 z"
       id="path297" />
    <path
       class="cls-8"
       d="m 291.77,183.61 c 0,0 -2.76,3.74 -2.55,7.22 l 0.74,0.88 3.38,-7.24 z"
       id="path299" />
    <path
       class="cls-8"
       d="m 294.14,201.23 a 9.7,9.7 0 0 0 3.65,-7.34 12.65,12.65 0 0 1 -0.25,5.43 12.27,12.27 0 0 1 -3.4,1.91 z"
       id="path301" />
    <path
       class="cls-8"
       d="m 280.56,202.57 c 0,0 1.71,4.87 -0.83,8.34 2.12,-1.06 4,-2.12 4,-2.12 0,0 -2.12,-5.1 -3.17,-6.22 z"
       id="path303" />
    <path
       class="cls-8"
       d="m 276.25,196.52 c 0,0 -4.3,2.22 -4.32,6 0.52,0.56 0.83,0.84 0.83,0.84 l 4.17,-6.57 z"
       id="path305" />
    <path
       class="cls-8"
       d="m 263.49,214.88 c 0,0 0.6,3.78 -3,8.26 1.84,-0.64 4.32,-1.74 4.32,-1.74 z"
       id="path307" />
    <path
       class="cls-8"
       d="m 254.64,213.21 c 0,0 -2,-2.19 -6.91,1.55 0.17,2.6 0.71,3.3 0.71,3.3 l 6.31,-3.44 z"
       id="path309" />
    <path
       class="cls-8"
       d="m 241.83,218.2 c 0,0 -5.15,2.55 -4.79,5.82 a 9.51,9.51 0 0 1 1,1.2 l 5.41,-5.61 z"
       id="path311" />
    <path
       class="cls-8"
       d="m 245.73,226.2 c 0,0 0.29,4.18 -1.9,6.73 1.6,-0.61 4.17,-1.76 4.17,-1.76 z"
       id="path313" />
    <path
       class="cls-8"
       d="m 214.05,239.12 c 0,0 2.8,2.35 9.07,1.35 a 46.06,46.06 0 0 1 -6,4 z"
       id="path315" />
    <path
       class="cls-8"
       d="m 217.54,230.88 c 0,0 -1.26,-1.56 -6.89,0.51 -0.06,3.06 0.46,3.65 0.46,3.65 l 6.73,-2.88 z"
       id="path317" />
    <path
       class="cls-8"
       d="m 203.75,234 a 5.88,5.88 0 0 0 -5.39,5.1 c 0.55,0.86 0.78,1.29 0.78,1.29 l 6.17,-4.17 z"
       id="path319" />
    <path
       class="cls-8"
       d="m 194.86,247.57 a 11.85,11.85 0 0 0 9.13,1.12 46.23,46.23 0 0 1 -6.68,4.35 z"
       id="path321" />
    <path
       class="cls-8"
       d="m 179.17,247.87 c 0,0 -1.24,-2.44 -6.91,1.71 a 25,25 0 0 0 1.07,3.35 l 6.24,-3.83 z"
       id="path323" />
    <path
       class="cls-8"
       d="m 176.51,256.46 a 14,14 0 0 0 9,0.64 34.66,34.66 0 0 1 -6.59,5.67 z"
       id="path325" />
    <path
       class="cls-8"
       d="m 162,259.65 c 0,0 -1.4,-2.52 -6.69,1.33 a 16.33,16.33 0 0 0 1.08,3.75 l 5.89,-4.13 z"
       id="path327" />
    <path
       class="cls-8"
       d="m 159.84,269 a 12.14,12.14 0 0 0 8.27,-0.37 56.64,56.64 0 0 1 -5.53,4.93 z"
       id="path329" />
    <path
       class="cls-8"
       d="m 148.36,265.45 c 0,0 -4.67,2.77 -4,6.08 l 0.8,0.87 6,-4.24 z"
       id="path331" />
    <path
       class="cls-8"
       d="m 152.83,273.92 c 0,0 0,4.21 -0.82,5.6 1.9,-0.89 4,-2 4,-2 z"
       id="path333" />
    <path
       class="cls-8"
       d="m 136.12,291.28 c 0,0 -3.16,4.73 -0.45,6.27 0.38,-1.6 1.87,-5.9 1.87,-5.9 z"
       id="path335" />
    <polygon
       class="cls-8"
       points="139.93,289.7 138.39,289.83 137.86,283.42 139.97,283.36 "
       id="polygon337" />
    <polygon
       class="cls-8"
       points="138.07,305.93 139.97,306.37 139.97,299.1 138.64,298.81 "
       id="polygon339" />
    <path
       class="cls-4"
       d="m 136.24,220.93 c 7.78,9.18 13.89,8.44 18.91,4.15 7.29,-6.24 1.44,-13.81 -4.33,-20.78 -5.77,-6.97 -14.3,-10.52 -20.42,-5.34 -6.12,5.18 -2.97,11.58 5.84,21.97 z m -0.83,-16.77 c 2.48,-2.36 6.33,0.55 10.15,5.19 3.82,4.64 7.56,8 4.16,10.77 -2.42,2 -4.58,-0.46 -9.13,-5.69 -4.55,-5.23 -7.09,-8.43 -5.18,-10.27 z"
       id="path341" />
    <path
       class="cls-4"
       d="m 140,200.63 a 14.72,14.72 0 0 1 -2.44,2.69 3.05,3.05 0 0 1 -4.25,0 c -2.52,-1.9 -0.59,-4.56 3.45,-10.19 1.44,-2 2.05,-2.92 3.17,-4.22 -0.09,-3.07 0.06,-6.71 0.07,-9.78 -3.27,1.84 -6.37,5.59 -10.56,11.25 -7.16,9.67 -5,15.45 0.28,19.35 3.79,2.79 7.18,2.42 10.29,0.47 -0.12,-3.3 -0.01,-6.08 -0.01,-9.57 z"
       id="path343" />
    <path
       class="cls-4"
       d="m 153.05,236.16 c 9.07,7.92 15,6.26 19.32,1.28 6.28,-7.26 -0.63,-13.88 -7.38,-19.91 -6.75,-6.03 -15.72,-8.25 -21,-2.22 -5.39,6.18 -1.2,11.89 9.06,20.85 z m -3.32,-16.46 c 2.1,-2.7 6.34,-0.4 10.82,3.61 4.48,4.01 8.66,6.73 5.72,10 -2.1,2.36 -4.6,0.23 -9.88,-4.26 -5.28,-4.49 -8.28,-7.26 -6.66,-9.35 z"
       id="path345" />
    <path
       class="cls-4"
       d="m 169.82,248.85 c 9.07,7.92 15,6.27 19.31,1.29 6.28,-7.26 -0.63,-13.88 -7.38,-19.91 C 175,224.2 166,222 160.77,228 c -5.23,6 -1.21,11.89 9.05,20.85 z m -3.33,-16.45 c 2.1,-2.71 6.34,-0.4 10.82,3.61 4.48,4.01 8.66,6.73 5.72,10 -2.1,2.36 -4.6,0.22 -9.88,-4.26 -5.28,-4.48 -8.28,-7.26 -6.66,-9.35 z"
       id="path347" />
    <path
       class="cls-4"
       d="m 185.5,260 c 9.37,7.56 15.24,5.68 19.35,0.53 6,-7.5 -1.17,-13.84 -8.15,-19.61 -6.98,-5.77 -16,-7.63 -21.06,-1.4 -5.15,6.38 -0.74,11.92 9.86,20.48 z m -3.34,-14.9 c 2,-2.79 6.33,-0.65 11,3.18 4.67,3.83 8.92,6.39 6.11,9.8 -2,2.44 -4.58,0.4 -10,-3.87 -5.42,-4.27 -8.64,-6.98 -7.11,-9.12 z"
       id="path349" />
    <path
       class="cls-4"
       d="m 201.66,273.55 c 9.37,7.56 15.24,5.68 19.35,0.53 6,-7.5 -1.17,-13.84 -8.15,-19.61 -6.98,-5.77 -16,-7.63 -21.06,-1.4 -5.15,6.39 -0.74,11.93 9.86,20.48 z m -4,-16.31 c 2,-2.79 6.32,-0.65 11,3.18 4.68,3.83 8.91,6.39 6.1,9.8 -2,2.44 -4.58,0.41 -10,-3.87 -5.42,-4.28 -8.6,-6.96 -7.06,-9.11 z"
       id="path351" />
    <path
       class="cls-4"
       d="m 221.6,283.67 c 10.62,5.66 16,2.71 19.1,-3.12 4.48,-8.49 -3.75,-13.37 -11.69,-17.72 -7.94,-4.35 -17.17,-4.49 -20.94,2.57 -3.87,7.25 1.51,11.86 13.53,18.27 z m -7,-15.28 c 1.43,-3.11 6.09,-1.83 11.35,1.07 5.26,2.9 10,4.6 7.84,8.48 -1.51,2.77 -4.43,1.26 -10.58,-1.92 -6.15,-3.18 -9.68,-5.23 -8.57,-7.63 z"
       id="path353" />
    <path
       class="cls-4"
       d="m 244,290.79 c 11.75,2.64 16.18,-1.64 17.59,-8.08 2.07,-9.37 -7.16,-11.89 -16,-14 -8.84,-2.11 -17.75,0.23 -19.51,8 -1.81,8.08 4.59,11.1 17.92,14.08 z m -10.8,-12.88 c 0.55,-3.38 5.38,-3.37 11.23,-2 5.85,1.37 10.82,1.79 9.81,6.09 -0.72,3.07 -3.94,2.39 -10.72,1 -6.78,-1.39 -10.75,-2.48 -10.32,-5.09 z"
       id="path355" />
    <path
       class="cls-4"
       d="m 266.54,292.23 c 12,0.67 15.69,-4.27 16,-10.86 0.49,-9.58 -9,-10.56 -18.06,-11.17 -9.06,-0.61 -17.47,3.14 -17.92,11.14 -0.43,8.2 6.38,10.12 19.98,10.89 z m -12.73,-10.94 c 0,-3.43 4.75,-4.22 10.75,-3.8 6,0.42 11,0 10.68,4.4 -0.21,3.15 -3.49,3 -10.42,2.71 -6.93,-0.29 -11.01,-0.67 -11.01,-3.31 z"
       id="path357" />
    <path
       class="cls-4"
       d="m 278.21,298.3 c 9.1,7.88 15,6.2 19.32,1.2 6.25,-7.28 -0.69,-13.87 -7.47,-19.87 -6.78,-6 -15.75,-8.19 -21,-2.14 -5.37,6.21 -1.15,11.9 9.15,20.81 z m -3.4,-16.44 c 2.09,-2.71 6.34,-0.43 10.83,3.56 4.49,3.99 8.69,6.7 5.77,10 -2.09,2.36 -4.6,0.24 -9.9,-4.22 -5.3,-4.46 -8.31,-7.2 -6.7,-9.34 z"
       id="path359" />
    <path
       class="cls-4"
       d="m 298.07,291.49 c -6.21,-7.32 -13.81,-1.5 -20.8,4.26 a 17.94,17.94 0 0 0 -2,1.8 32.17,32.17 0 0 1 6.3,4.06 c 0.38,-0.33 0.31,-0.26 0.72,-0.59 4.64,-3.82 8,-7.54 10.78,-4.13 2,2.43 -0.48,4.58 -5.72,9.11 -0.48,0.42 -0.49,0.44 -0.94,0.82 a 26.92,26.92 0 0 1 3.72,6.57 c 1.18,-0.91 2.41,-1.92 3.71,-3 9.23,-7.77 8.5,-13.88 4.23,-18.9 z"
       id="path361" />
    <path
       class="cls-8"
       d="m 288.2,296.36 c 0,0 -4.72,2.76 -6.13,4.85 1.68,1 3.44,1.74 3.44,1.74 l 3.34,-6.54 z"
       id="path363" />
    <path
       class="cls-8"
       d="m 291.41,295.43 c 0,0 3.31,-2.23 -2.28,-7 a 21.68,21.68 0 0 0 -2.27,0.72 l 3.3,6.27 z"
       id="path365" />
    <path
       class="cls-8"
       d="m 275.16,281.21 c 0,0 2.81,-2 7.27,1.65 a 28.31,28.31 0 0 1 -0.73,2.85 l -6.54,-3.27 z"
       id="path367" />
    <path
       class="cls-8"
       d="m 279.21,289.29 a 13.13,13.13 0 0 1 -7.55,2.85 c 1.31,1.35 2.29,2.31 2.29,2.31 l 6.32,-4.29 z"
       id="path369" />
    <path
       class="cls-8"
       d="m 248,276.72 c 0,0 5.08,0.67 6.18,3.08 l -0.32,1.29 -7,-1.29 a 5.61,5.61 0 0 1 1.14,-3.08 z"
       id="path371" />
    <path
       class="cls-8"
       d="m 246.67,283.63 c 0,0 0.43,5.75 8.37,7.12 a 19.67,19.67 0 0 1 -7.73,0.67 c -1.61,-0.28 -2.11,-8.09 -2.11,-8.09 z"
       id="path373" />
    <path
       class="cls-8"
       d="m 241.86,275.5 c 0,0 -4.72,-1.45 -7.51,0.49 a 8.86,8.86 0 0 1 -0.38,1.67 l 7.3,1.26 c 0,0 1.02,-2.38 0.59,-3.42 z"
       id="path375" />
    <path
       class="cls-8"
       d="m 226,277.41 c 0,0 -1.57,5.83 5,9.23 -6.22,-1.16 -7,-2 -7,-2 l 0.47,-7.91 z"
       id="path377" />
    <path
       class="cls-8"
       d="m 213.1,278.59 c 0,0 3.9,0.4 7.47,-4 l 1.65,0.88 -5,5.72 z"
       id="path379" />
    <path
       class="cls-8"
       d="m 215.65,267.13 c 0,0 2.56,-1.95 7.61,1 a 19.11,19.11 0 0 1 -0.63,3.31 l -7,-2.87 z"
       id="path381" />
    <path
       class="cls-8"
       d="m 195.53,250 c 0,0 4.63,3.67 4.59,5.93 a 7.62,7.62 0 0 0 -1.76,0.59 l -5.75,-4.38 a 10.43,10.43 0 0 1 2.92,-2.14 z"
       id="path383" />
    <path
       class="cls-8"
       d="m 190.34,255.15 a 7.85,7.85 0 0 0 1.26,8.6 15.68,15.68 0 0 1 -4.67,-2.66 l 1.49,-7.5 z"
       id="path385" />
    <path
       class="cls-8"
       d="m 184,243.88 a 10.12,10.12 0 0 1 7.16,2.87 22.89,22.89 0 0 1 -1.71,3 l -5.71,-4.32 z"
       id="path387" />
    <path
       class="cls-8"
       d="m 186.67,252.44 c 0,0 -4,3.07 -7.75,1.64 1.58,1.65 2.86,2.8 2.86,2.8 l 5.68,-3.95 z"
       id="path389" />
    <path
       class="cls-8"
       d="m 163.41,225.81 c 0,0 4.16,2.84 3.79,5.79 a 10.26,10.26 0 0 0 -0.94,1.17 l -5.26,-5 z"
       id="path391" />
    <path
       class="cls-8"
       d="m 158.91,230.92 c 0,0 -2.2,4.55 3.26,10.47 a 21.47,21.47 0 0 1 -7.19,-3.66 c -0.65,-0.5 2.71,-7.54 2.71,-7.54 z"
       id="path393" />
    <path
       class="cls-8"
       d="m 142.76,217 c 0,0 -3.55,4.44 1.56,10.31 -4.6,-2.44 -5.64,-3.75 -5.64,-3.75 l 3.07,-7.79 z"
       id="path395" />
    <path
       class="cls-8"
       d="m 148.24,212.51 c 0,0 4,3.23 2.59,6.22 l -0.86,0.69 -3.77,-6 z"
       id="path397" />
    <path
       class="cls-8"
       d="m 127.78,208 c 0,0 5.2,5.26 10.12,3.22 l 0.78,1 -7.81,1.85 c 0,0 -3.14,-4.43 -3.09,-6.07 z"
       id="path399" />
    <path
       class="cls-2"
       d="m 236.08,202 a 17.85,17.85 0 0 0 -13.4,13.06 24.76,24.76 0 0 0 -0.68,3.94 33.21,33.21 0 0 1 8.35,-1.48 c 0,-0.11 0.05,-0.22 0.08,-0.32 a 9.92,9.92 0 0 1 7.48,-7.41 c 7.79,-1.79 18.47,4 28.54,15.41 l 6,-5.28 C 260.19,206.08 247,199.55 236.08,202 Z"
       id="path401" />
    <path
       class="cls-2"
       d="m 222.32,226.32 a 40.28,40.28 0 0 0 1.9,7 c 2.11,-0.64 7.25,-2.09 7.73,-2.23 a 27,27 0 0 1 -1.93,-6.77 c -2.59,0.78 -5.11,1.25 -7.7,2 z"
       id="path403" />
    <path
       class="cls-2"
       d="m 235.46,237.71 c -2.69,0.7 -5.36,1.5 -8.07,2.12 A 62.79,62.79 0 0 0 238,253 l 5.57,-5.75 a 56.46,56.46 0 0 1 -8.11,-9.54 z"
       id="path405" />
    <g
       class="cls-13"
       id="g413">
      <path
         class="cls-4"
         d="m 230.31,217.56 c 0,-0.11 0.05,-0.22 0.08,-0.32 a 11.37,11.37 0 0 1 1.68,-3.56 c -2.69,1 -5.44,1.85 -8.14,2.82 l -1.75,0.83 c -0.1,0.56 -0.16,1.14 -0.22,1.71 a 33.21,33.21 0 0 1 8.35,-1.48 z"
         id="path407" />
      <path
         class="cls-4"
         d="m 222.32,226.41 a 39.38,39.38 0 0 0 1.9,7 c 2.11,-0.64 7.25,-2.09 7.73,-2.23 a 25.63,25.63 0 0 1 -1.87,-6.66 22.21,22.21 0 0 0 -7.76,1.89 z"
         id="path409" />
      <path
         class="cls-4"
         d="m 235.46,237.71 c -2.69,0.7 -5.36,1.5 -8.07,2.12 A 62.79,62.79 0 0 0 238,253 l 5.57,-5.75 a 56.46,56.46 0 0 1 -8.11,-9.54 z"
         id="path411" />
    </g>
    <path
       class="cls-4"
       d="m 280.74,274.33 8.11,-8.15 -2,-3.05 c 4.6,-20.54 -22.92,-40.47 -22.92,-40.47 l -31.05,31.58 c 0,0 27.32,38.53 46.43,21.46 v 0 l 0.43,-0.43 c 0.38,-0.27 0.69,-0.61 1,-0.94 z"
       id="path415" />
    <path
       class="cls-2"
       d="m 271.82,214.63 -30.9,31.61 c 0,0 29.91,42.19 49,18.72 19.09,-23.47 -18.1,-50.33 -18.1,-50.33 z"
       id="path417" />
    <path
       class="cls-4"
       d="M 284.64,249 271,242.46 a 5.1,5.1 0 0 0 -1.24,-6.72 c -4.25,-3.5 -7.37,0 -7.37,0 -1.75,1.69 -2.37,4.76 0,7.57 a 5.14,5.14 0 0 0 6.77,0.93 l 7,14.74 z"
       id="path419" />
    <path
       class="cls-3"
       d="m 241.88,245.14 c 2.05,-2.67 4.24,-5.21 6.48,-7.7 2.24,-2.49 4.55,-4.9 6.88,-7.3 2.33,-2.4 4.74,-4.72 7.2,-7 2.46,-2.28 4.95,-4.51 7.59,-6.6 -2,2.68 -4.24,5.21 -6.48,7.7 -2.24,2.49 -4.55,4.91 -6.88,7.3 -2.33,2.39 -4.74,4.72 -7.2,7 -2.46,2.28 -4.95,4.51 -7.59,6.6 z"
       id="path421" />
  </g>
  <g
     id="Layer_10"
     data-name="Layer 10"
     transform="matrix(0.4698868,0,0,0.4698868,-9.1986174,-7.9559643)">
    <path
       class="cls-3"
       d="m 271.82,214.63 a 65.35,65.35 0 0 1 13,10.77 56.22,56.22 0 0 1 5.34,6.64 41.67,41.67 0 0 1 4,7.57 29.67,29.67 0 0 1 2,8.43 23,23 0 0 1 -1.08,8.6 25.91,25.91 0 0 1 -1.68,4 29.54,29.54 0 0 1 -2.38,3.57 35.24,35.24 0 0 1 -6,5.94 l 1.41,-1.57 a 18.67,18.67 0 0 0 1.38,-1.57 l 1.28,-1.64 a 17.9,17.9 0 0 0 1.15,-1.73 29.38,29.38 0 0 0 2,-3.59 27.82,27.82 0 0 0 1.36,-3.84 23.25,23.25 0 0 0 0.68,-8 28.6,28.6 0 0 0 -2,-7.84 51.43,51.43 0 0 0 -8.7,-13.92 c -1.78,-2.12 -3.67,-4.16 -5.65,-6.13 -1.98,-1.97 -3.93,-3.87 -6.11,-5.69 z"
       id="path424" />
    <path
       class="cls-3"
       d="m 262.34,235.74 a 5.21,5.21 0 0 1 3.54,-1.93 6.22,6.22 0 0 1 4.12,1.13 6.46,6.46 0 0 1 2.62,3.57 5.37,5.37 0 0 1 -0.86,4.54 l -0.38,-1.49 c 2.27,1.1 4.53,2.23 6.75,3.46 a 73.64,73.64 0 0 1 6.51,3.94 72.53,72.53 0 0 1 -7.17,-2.55 c -2.35,-0.94 -4.65,-2 -6.94,-3 l -1.09,-0.51 0.7,-1 a 3.53,3.53 0 0 0 0.64,-2.92 5.27,5.27 0 0 0 -1.73,-2.77 5.39,5.39 0 0 0 -6.71,-0.45 z"
       id="path426" />
    <path
       class="cls-3"
       d="m 247.27,202.4 a 51.47,51.47 0 0 0 -7.59,0.38 26.52,26.52 0 0 0 -7.11,1.87 15.4,15.4 0 0 0 -3.16,1.74 15.05,15.05 0 0 0 -2.74,2.37 23.08,23.08 0 0 0 -4,6.33 14.88,14.88 0 0 1 2.78,-7.32 15.23,15.23 0 0 1 6.32,-5 20.64,20.64 0 0 1 7.78,-1.58 22,22 0 0 1 7.72,1.21 z"
       id="path428" />
  </g>
</svg>
